<svg width="167" height="330" viewBox="0 0 167 330" fill="none" xmlns="http://www.w3.org/2000/svg">
<path opacity="0.2" fill-rule="evenodd" clip-rule="evenodd" d="M-82.9878 329.2C-82.9878 329.2 81.9953 310.341 81.9953 214.845C81.9953 119.349 166.126 54.3334 127.908 -22.4114C82.5002 -113.595 41.3069 -58.0024 7.07225 -78.6884C-50.6975 -113.595 -52.9513 -126.182 -42.6037 -148.508C-25.0098 -186.469 -82.9878 -47.7565 -82.9878 -47.7565V329.2Z" fill="#D95535"/>
<path opacity="0.2" fill-rule="evenodd" clip-rule="evenodd" d="M119.523 167.302C109.394 167.302 99.5781 175.213 99.5781 185.343C99.5781 195.472 110.757 210.182 120.886 210.182C131.016 210.182 137.864 195.772 137.864 185.643C137.864 175.513 129.653 167.302 119.523 167.302Z" fill="#D95535"/>
<path d="M97.8881 143.895H89.8163" stroke="#EEB330" stroke-width="2" stroke-linecap="round" stroke-linejoin="round"/>
<path d="M75.1841 143.895H67.1124" stroke="#EEB330" stroke-width="2" stroke-linecap="round" stroke-linejoin="round"/>
<path d="M52.4802 143.895H44.4084" stroke="#EEB330" stroke-width="2" stroke-linecap="round" stroke-linejoin="round"/>
<path d="M29.7762 143.895H21.7045" stroke="#EEB330" stroke-width="2" stroke-linecap="round" stroke-linejoin="round"/>
<path d="M7.07227 143.895H-0.999516" stroke="#EEB330" stroke-width="2" stroke-linecap="round" stroke-linejoin="round"/>
<path d="M75.1841 215.413H67.1124" stroke="#EEB330" stroke-width="2" stroke-linecap="round" stroke-linejoin="round"/>
<path d="M52.4802 215.413H44.4084" stroke="#EEB330" stroke-width="2" stroke-linecap="round" stroke-linejoin="round"/>
<path d="M29.7762 215.413H21.7045" stroke="#EEB330" stroke-width="2" stroke-linecap="round" stroke-linejoin="round"/>
<path d="M7.07227 215.413H-0.999516" stroke="#EEB330" stroke-width="2" stroke-linecap="round" stroke-linejoin="round"/>
<path d="M7.07227 239.252H-0.999516" stroke="#EEB330" stroke-width="2" stroke-linecap="round" stroke-linejoin="round"/>
<path d="M86.5361 120.056H78.4644" stroke="#EEB330" stroke-width="2" stroke-linecap="round" stroke-linejoin="round"/>
<path d="M63.8322 120.056H55.7604" stroke="#EEB330" stroke-width="2" stroke-linecap="round" stroke-linejoin="round"/>
<path d="M41.1282 120.056H33.0565" stroke="#EEB330" stroke-width="2" stroke-linecap="round" stroke-linejoin="round"/>
<path d="M120.592 96.2168H112.52" stroke="#EEB330" stroke-width="2" stroke-linecap="round" stroke-linejoin="round"/>
<path d="M97.8881 96.2168H89.8163" stroke="#EEB330" stroke-width="2" stroke-linecap="round" stroke-linejoin="round"/>
<path d="M75.1842 96.2168H67.1124" stroke="#EEB330" stroke-width="2" stroke-linecap="round" stroke-linejoin="round"/>
<path d="M52.4802 96.2168H44.4084" stroke="#EEB330" stroke-width="2" stroke-linecap="round" stroke-linejoin="round"/>
<path d="M52.4802 72.3776H44.4084" stroke="#EEB330" stroke-width="2" stroke-linecap="round" stroke-linejoin="round"/>
<path d="M29.7762 72.3776H21.7044" stroke="#EEB330" stroke-width="2" stroke-linecap="round" stroke-linejoin="round"/>
<path d="M7.07227 72.3776H-0.999516" stroke="#EEB330" stroke-width="2" stroke-linecap="round" stroke-linejoin="round"/>
<path d="M120.592 48.5385H112.52" stroke="#EEB330" stroke-width="2" stroke-linecap="round" stroke-linejoin="round"/>
<path d="M52.4802 48.5385H44.4084" stroke="#EEB330" stroke-width="2" stroke-linecap="round" stroke-linejoin="round"/>
<path d="M29.7762 48.5385H21.7045" stroke="#EEB330" stroke-width="2" stroke-linecap="round" stroke-linejoin="round"/>
<path d="M7.07227 48.5385H-0.999516" stroke="#EEB330" stroke-width="2" stroke-linecap="round" stroke-linejoin="round"/>
<path d="M63.8322 24.6993H55.7604" stroke="#EEB330" stroke-width="2" stroke-linecap="round" stroke-linejoin="round"/>
<path d="M41.1282 24.6993H33.0564" stroke="#EEB330" stroke-width="2" stroke-linecap="round" stroke-linejoin="round"/>
<path d="M18.4243 24.6993H10.3525" stroke="#EEB330" stroke-width="2" stroke-linecap="round" stroke-linejoin="round"/>
<path d="M131.944 0.860135H123.872" stroke="#EEB330" stroke-width="2" stroke-linecap="round" stroke-linejoin="round"/>
<path d="M63.8322 0.860135H55.7604" stroke="#EEB330" stroke-width="2" stroke-linecap="round" stroke-linejoin="round"/>
<path d="M41.1282 0.860135H33.0564" stroke="#EEB330" stroke-width="2" stroke-linecap="round" stroke-linejoin="round"/>
<path d="M18.4242 0.860135H10.3524" stroke="#EEB330" stroke-width="2" stroke-linecap="round" stroke-linejoin="round"/>
<path d="M2.53149 167.734H-5.54029" stroke="#EEB330" stroke-width="2" stroke-linecap="round" stroke-linejoin="round"/>
</svg>
