<svg width="364" height="299" viewBox="0 0 364 299" fill="none" xmlns="http://www.w3.org/2000/svg">
<path opacity="0.2" fill-rule="evenodd" clip-rule="evenodd" d="M399.578 0.5C399.578 0.5 270.996 9.7 235.921 103.986C200.846 198.272 174.406 217.614 136.447 236.972C98.4875 256.331 113.418 291.567 98.976 305.038C84.5336 318.51 18.4037 326.961 0.578125 365.422H355.912L399.578 0.5Z" fill="#EEB330"/>
<path d="M196.996 137.24H204.107" stroke="#EEB330" stroke-width="2" stroke-linecap="round" stroke-linejoin="round"/>
<path d="M216.996 137.24H224.107" stroke="#EEB330" stroke-width="2" stroke-linecap="round" stroke-linejoin="round"/>
<path d="M236.996 137.24H244.107" stroke="#EEB330" stroke-width="2" stroke-linecap="round" stroke-linejoin="round"/>
<path d="M256.996 137.24H264.107" stroke="#EEB330" stroke-width="2" stroke-linecap="round" stroke-linejoin="round"/>
<path d="M276.996 137.24H284.107" stroke="#EEB330" stroke-width="2" stroke-linecap="round" stroke-linejoin="round"/>
<path d="M296.996 137.24H304.107" stroke="#EEB330" stroke-width="2" stroke-linecap="round" stroke-linejoin="round"/>
<path d="M216.996 74.2397H224.107" stroke="#EEB330" stroke-width="2" stroke-linecap="round" stroke-linejoin="round"/>
<path d="M236.996 74.2397H244.107" stroke="#EEB330" stroke-width="2" stroke-linecap="round" stroke-linejoin="round"/>
<path d="M256.996 74.2397H264.107" stroke="#EEB330" stroke-width="2" stroke-linecap="round" stroke-linejoin="round"/>
<path d="M276.996 74.2397H284.107" stroke="#EEB330" stroke-width="2" stroke-linecap="round" stroke-linejoin="round"/>
<path d="M296.996 74.2397H304.107" stroke="#EEB330" stroke-width="2" stroke-linecap="round" stroke-linejoin="round"/>
<path d="M316.996 74.2397H324.107" stroke="#EEB330" stroke-width="2" stroke-linecap="round" stroke-linejoin="round"/>
<path d="M276.996 53.2397H284.107" stroke="#EEB330" stroke-width="2" stroke-linecap="round" stroke-linejoin="round"/>
<path d="M296.996 53.2397H304.107" stroke="#EEB330" stroke-width="2" stroke-linecap="round" stroke-linejoin="round"/>
<path d="M316.996 53.2397H324.107" stroke="#EEB330" stroke-width="2" stroke-linecap="round" stroke-linejoin="round"/>
<path d="M336.996 53.2397H344.107" stroke="#EEB330" stroke-width="2" stroke-linecap="round" stroke-linejoin="round"/>
<path d="M356.996 53.2397H364.107" stroke="#EEB330" stroke-width="2" stroke-linecap="round" stroke-linejoin="round"/>
<path d="M206.996 158.24H214.107" stroke="#EEB330" stroke-width="2" stroke-linecap="round" stroke-linejoin="round"/>
<path d="M226.996 158.24H234.107" stroke="#EEB330" stroke-width="2" stroke-linecap="round" stroke-linejoin="round"/>
<path d="M246.996 158.24H254.107" stroke="#EEB330" stroke-width="2" stroke-linecap="round" stroke-linejoin="round"/>
<path d="M306.996 158.24H314.107" stroke="#EEB330" stroke-width="2" stroke-linecap="round" stroke-linejoin="round"/>
<path d="M326.996 158.24H334.107" stroke="#EEB330" stroke-width="2" stroke-linecap="round" stroke-linejoin="round"/>
<path d="M176.996 179.24H184.107" stroke="#EEB330" stroke-width="2" stroke-linecap="round" stroke-linejoin="round"/>
<path d="M196.996 179.24H204.107" stroke="#EEB330" stroke-width="2" stroke-linecap="round" stroke-linejoin="round"/>
<path d="M216.996 179.24H224.107" stroke="#EEB330" stroke-width="2" stroke-linecap="round" stroke-linejoin="round"/>
<path d="M236.996 179.24H244.107" stroke="#EEB330" stroke-width="2" stroke-linecap="round" stroke-linejoin="round"/>
<path d="M236.996 200.24H244.107" stroke="#EEB330" stroke-width="2" stroke-linecap="round" stroke-linejoin="round"/>
<path d="M256.996 200.24H264.107" stroke="#EEB330" stroke-width="2" stroke-linecap="round" stroke-linejoin="round"/>
<path d="M276.996 200.24H284.107" stroke="#EEB330" stroke-width="2" stroke-linecap="round" stroke-linejoin="round"/>
<path d="M296.996 200.24H304.107" stroke="#EEB330" stroke-width="2" stroke-linecap="round" stroke-linejoin="round"/>
<path d="M316.996 200.24H324.107" stroke="#EEB330" stroke-width="2" stroke-linecap="round" stroke-linejoin="round"/>
<path d="M336.996 200.24H344.107" stroke="#EEB330" stroke-width="2" stroke-linecap="round" stroke-linejoin="round"/>
<path d="M176.996 221.24H184.107" stroke="#EEB330" stroke-width="2" stroke-linecap="round" stroke-linejoin="round"/>
<path d="M236.996 221.24H244.107" stroke="#EEB330" stroke-width="2" stroke-linecap="round" stroke-linejoin="round"/>
<path d="M256.996 221.24H264.107" stroke="#EEB330" stroke-width="2" stroke-linecap="round" stroke-linejoin="round"/>
<path d="M276.996 221.24H284.107" stroke="#EEB330" stroke-width="2" stroke-linecap="round" stroke-linejoin="round"/>
<path d="M296.996 221.24H304.107" stroke="#EEB330" stroke-width="2" stroke-linecap="round" stroke-linejoin="round"/>
<path d="M316.996 221.24H324.107" stroke="#EEB330" stroke-width="2" stroke-linecap="round" stroke-linejoin="round"/>
<path d="M226.996 242.24H234.107" stroke="#EEB330" stroke-width="2" stroke-linecap="round" stroke-linejoin="round"/>
<path d="M246.996 242.24H254.107" stroke="#EEB330" stroke-width="2" stroke-linecap="round" stroke-linejoin="round"/>
<path d="M266.996 242.24H274.107" stroke="#EEB330" stroke-width="2" stroke-linecap="round" stroke-linejoin="round"/>
<path d="M286.996 242.24H294.107" stroke="#EEB330" stroke-width="2" stroke-linecap="round" stroke-linejoin="round"/>
<path d="M306.996 242.24H314.107" stroke="#EEB330" stroke-width="2" stroke-linecap="round" stroke-linejoin="round"/>
<path d="M166.996 263.24H174.107" stroke="#EEB330" stroke-width="2" stroke-linecap="round" stroke-linejoin="round"/>
<path d="M226.996 263.24H234.107" stroke="#EEB330" stroke-width="2" stroke-linecap="round" stroke-linejoin="round"/>
<path d="M246.996 263.24H254.107" stroke="#EEB330" stroke-width="2" stroke-linecap="round" stroke-linejoin="round"/>
<path d="M266.996 263.24H274.107" stroke="#EEB330" stroke-width="2" stroke-linecap="round" stroke-linejoin="round"/>
<path d="M286.996 263.24H294.107" stroke="#EEB330" stroke-width="2" stroke-linecap="round" stroke-linejoin="round"/>
<path d="M136.996 284.24H144.107" stroke="#EEB330" stroke-width="2" stroke-linecap="round" stroke-linejoin="round"/>
<path d="M156.996 284.24H164.107" stroke="#EEB330" stroke-width="2" stroke-linecap="round" stroke-linejoin="round"/>
<path d="M216.996 284.24H224.107" stroke="#EEB330" stroke-width="2" stroke-linecap="round" stroke-linejoin="round"/>
<path d="M236.996 284.24H244.107" stroke="#EEB330" stroke-width="2" stroke-linecap="round" stroke-linejoin="round"/>
<path d="M256.996 284.24H264.107" stroke="#EEB330" stroke-width="2" stroke-linecap="round" stroke-linejoin="round"/>
<path d="M280.996 116.24H288.107" stroke="#EEB330" stroke-width="2" stroke-linecap="round" stroke-linejoin="round"/>
<path d="M300.996 116.24H308.107" stroke="#EEB330" stroke-width="2" stroke-linecap="round" stroke-linejoin="round"/>
<path d="M360.996 116.24H368.107" stroke="#EEB330" stroke-width="2" stroke-linecap="round" stroke-linejoin="round"/>
<path d="M310.996 95.2397H318.107" stroke="#EEB330" stroke-width="2" stroke-linecap="round" stroke-linejoin="round"/>
<path d="M330.996 95.2397H338.107" stroke="#EEB330" stroke-width="2" stroke-linecap="round" stroke-linejoin="round"/>
</svg>
