<svg width="153" height="305" viewBox="0 0 153 305" fill="none" xmlns="http://www.w3.org/2000/svg">
<path opacity="0.2" fill-rule="evenodd" clip-rule="evenodd" d="M220.334 431.736C220.334 431.736 111 416.123 111 332C111 247.877 29.837 194.87 71 151.211C111 108.786 107.953 29.1434 138.11 10.9211C189 -19.8283 193.875 30.5884 184.76 10.9211C169.261 -22.5187 220.334 99.6734 220.334 99.6734V431.736Z" fill="#D95535"/>
<path d="M61 268.5H68.1105" stroke="#EEB330" stroke-width="2" stroke-linecap="round" stroke-linejoin="round"/>
<path d="M81 268.5H88.1105" stroke="#EEB330" stroke-width="2" stroke-linecap="round" stroke-linejoin="round"/>
<path d="M101 268.5H108.11" stroke="#EEB330" stroke-width="2" stroke-linecap="round" stroke-linejoin="round"/>
<path d="M121 268.5H128.11" stroke="#EEB330" stroke-width="2" stroke-linecap="round" stroke-linejoin="round"/>
<path d="M141 268.5H148.11" stroke="#EEB330" stroke-width="2" stroke-linecap="round" stroke-linejoin="round"/>
<path d="M71 247.5H78.1105" stroke="#EEB330" stroke-width="2" stroke-linecap="round" stroke-linejoin="round"/>
<path d="M91 247.5H98.1105" stroke="#EEB330" stroke-width="2" stroke-linecap="round" stroke-linejoin="round"/>
<path d="M111 247.5H118.11" stroke="#EEB330" stroke-width="2" stroke-linecap="round" stroke-linejoin="round"/>
<path d="M41 226.5H48.1105" stroke="#EEB330" stroke-width="2" stroke-linecap="round" stroke-linejoin="round"/>
<path d="M61 226.5H68.1105" stroke="#EEB330" stroke-width="2" stroke-linecap="round" stroke-linejoin="round"/>
<path d="M81 226.5H88.1105" stroke="#EEB330" stroke-width="2" stroke-linecap="round" stroke-linejoin="round"/>
<path d="M101 226.5H108.11" stroke="#EEB330" stroke-width="2" stroke-linecap="round" stroke-linejoin="round"/>
<path d="M101 205.5H108.11" stroke="#EEB330" stroke-width="2" stroke-linecap="round" stroke-linejoin="round"/>
<path d="M121 205.5H128.11" stroke="#EEB330" stroke-width="2" stroke-linecap="round" stroke-linejoin="round"/>
<path d="M141 205.5H148.11" stroke="#EEB330" stroke-width="2" stroke-linecap="round" stroke-linejoin="round"/>
<path d="M41 184.5H48.1105" stroke="#EEB330" stroke-width="2" stroke-linecap="round" stroke-linejoin="round"/>
<path d="M101 184.5H108.11" stroke="#EEB330" stroke-width="2" stroke-linecap="round" stroke-linejoin="round"/>
<path d="M121 184.5H128.11" stroke="#EEB330" stroke-width="2" stroke-linecap="round" stroke-linejoin="round"/>
<path d="M141 184.5H148.11" stroke="#EEB330" stroke-width="2" stroke-linecap="round" stroke-linejoin="round"/>
<path d="M91 163.5H98.1105" stroke="#EEB330" stroke-width="2" stroke-linecap="round" stroke-linejoin="round"/>
<path d="M111 163.5H118.11" stroke="#EEB330" stroke-width="2" stroke-linecap="round" stroke-linejoin="round"/>
<path d="M131 163.5H138.11" stroke="#EEB330" stroke-width="2" stroke-linecap="round" stroke-linejoin="round"/>
<path d="M151 163.5H158.11" stroke="#EEB330" stroke-width="2" stroke-linecap="round" stroke-linejoin="round"/>
<path d="M31 142.5H38.1105" stroke="#EEB330" stroke-width="2" stroke-linecap="round" stroke-linejoin="round"/>
<path d="M91 142.5H98.1105" stroke="#EEB330" stroke-width="2" stroke-linecap="round" stroke-linejoin="round"/>
<path d="M111 142.5H118.11" stroke="#EEB330" stroke-width="2" stroke-linecap="round" stroke-linejoin="round"/>
<path d="M131 142.5H138.11" stroke="#EEB330" stroke-width="2" stroke-linecap="round" stroke-linejoin="round"/>
<path d="M151 142.5H158.11" stroke="#EEB330" stroke-width="2" stroke-linecap="round" stroke-linejoin="round"/>
<path d="M1 121.5H8.11046" stroke="#EEB330" stroke-width="2" stroke-linecap="round" stroke-linejoin="round"/>
<path d="M21 121.5H28.1105" stroke="#EEB330" stroke-width="2" stroke-linecap="round" stroke-linejoin="round"/>
<path d="M81 121.5H88.1105" stroke="#EEB330" stroke-width="2" stroke-linecap="round" stroke-linejoin="round"/>
<path d="M101 121.5H108.11" stroke="#EEB330" stroke-width="2" stroke-linecap="round" stroke-linejoin="round"/>
<path d="M121 121.5H128.11" stroke="#EEB330" stroke-width="2" stroke-linecap="round" stroke-linejoin="round"/>
<path d="M145 289.5H152.11" stroke="#EEB330" stroke-width="2" stroke-linecap="round" stroke-linejoin="round"/>
<path d="M71 100.5H78.1105" stroke="#EEB330" stroke-width="2" stroke-linecap="round" stroke-linejoin="round"/>
<path d="M111 100.5H118.11" stroke="#EEB330" stroke-width="2" stroke-linecap="round" stroke-linejoin="round"/>
<path d="M151 100.5H158.11" stroke="#EEB330" stroke-width="2" stroke-linecap="round" stroke-linejoin="round"/>
</svg>
