<svg id="Layer_1" data-name="Layer 1" xmlns="http://www.w3.org/2000/svg" xmlns:xlink="http://www.w3.org/1999/xlink" viewBox="0 0 375 1365.3"><defs><style>.cls-1,.cls-10,.cls-14,.cls-15,.cls-25,.cls-6{fill:none;}.cls-2,.cls-24{fill:#293579;}.cls-3{font-size:31.77px;font-family:FuturaBT-Medium, Futura Md BT;font-weight:500;}.cls-13,.cls-17,.cls-18,.cls-20,.cls-21,.cls-22,.cls-3{fill:#fff;}.cls-4{letter-spacing:-0.04em;}.cls-19,.cls-5{fill:#da5534;}.cls-12,.cls-25,.cls-26,.cls-28,.cls-29,.cls-30,.cls-31,.cls-32,.cls-34,.cls-6,.cls-7,.cls-8,.cls-9{stroke:#293579;}.cls-10,.cls-14,.cls-15,.cls-17,.cls-25,.cls-6{stroke-linecap:round;stroke-linejoin:round;}.cls-12,.cls-6,.cls-7,.cls-8,.cls-9{stroke-width:0.91px;}.cls-12,.cls-26,.cls-28,.cls-29,.cls-30,.cls-31,.cls-32,.cls-34,.cls-7,.cls-8,.cls-9{stroke-miterlimit:10;}.cls-7{fill:url(#New_Pattern);}.cls-8{fill:url(#New_Pattern-3);}.cls-9{fill:url(#New_Pattern-5);}.cls-10,.cls-14,.cls-15,.cls-17{stroke:#fff;}.cls-10{stroke-width:1.83px;stroke-dasharray:5.48;}.cls-11,.cls-23{fill:#eeb330;}.cls-12{fill:url(#New_Pattern-7);}.cls-14{stroke-width:2px;stroke-dasharray:6;}.cls-15,.cls-17{stroke-width:0.86px;stroke-dasharray:2.59;}.cls-16{fill:#19b686;}.cls-18{font-size:32.57px;}.cls-18,.cls-19,.cls-20,.cls-22{font-family:Slabo27px-Regular, "Slabo 27px";}.cls-19,.cls-20{font-size:139.75px;}.cls-21,.cls-22,.cls-23,.cls-35{font-size:20px;}.cls-21,.cls-23,.cls-24,.cls-35{font-family:CrimsonText-Regular, Crimson Text;}.cls-24{font-size:15px;}.cls-26{fill:url(#New_Pattern-9);}.cls-27{fill:#16875e;}.cls-28{fill:url(#New_Pattern-11);}.cls-29{fill:url(#New_Pattern-13);}.cls-30{fill:url(#New_Pattern-15);}.cls-31{fill:url(#New_Pattern-17);}.cls-32{fill:url(#New_Pattern-19);}.cls-33,.cls-35{fill:#97feb6;}.cls-34{fill:url(#New_Pattern-21);}</style><pattern id="New_Pattern" data-name="New Pattern" width="43.43" height="32.75" patternTransform="translate(647.55 355.09) scale(0.83 0.79)" patternUnits="userSpaceOnUse" viewBox="0 0 43.43 32.75"><rect class="cls-1" width="43.43" height="32.75"/><circle class="cls-2" cx="37.23" cy="3.07" r="0.84"/><circle class="cls-2" cx="30.03" cy="3.07" r="0.84"/><circle class="cls-2" cx="22.84" cy="3.07" r="0.84"/><circle class="cls-2" cx="15.64" cy="3.07" r="0.84"/><circle class="cls-2" cx="8.44" cy="3.07" r="0.84"/><circle class="cls-2" cx="1.24" cy="3.07" r="0.84"/><circle class="cls-2" cx="40.83" cy="8.58" r="0.84"/><circle class="cls-2" cx="33.63" cy="8.58" r="0.84"/><circle class="cls-2" cx="26.43" cy="8.58" r="0.84"/><circle class="cls-2" cx="19.24" cy="8.58" r="0.84"/><circle class="cls-2" cx="12.04" cy="8.58" r="0.84"/><circle class="cls-2" cx="4.84" cy="8.58" r="0.84"/><circle class="cls-2" cx="37.23" cy="14.16" r="0.84"/><circle class="cls-2" cx="30.03" cy="14.16" r="0.84"/><circle class="cls-2" cx="22.84" cy="14.16" r="0.84"/><circle class="cls-2" cx="15.64" cy="14.16" r="0.84"/><circle class="cls-2" cx="8.44" cy="14.16" r="0.84"/><circle class="cls-2" cx="1.24" cy="14.16" r="0.84"/><circle class="cls-2" cx="40.83" cy="19.68" r="0.84"/><circle class="cls-2" cx="33.63" cy="19.68" r="0.84"/><circle class="cls-2" cx="26.43" cy="19.68" r="0.84"/><circle class="cls-2" cx="19.24" cy="19.68" r="0.84"/><circle class="cls-2" cx="12.04" cy="19.68" r="0.84"/><circle class="cls-2" cx="4.84" cy="19.68" r="0.84"/><circle class="cls-2" cx="37.52" cy="25.24" r="0.84"/><circle class="cls-2" cx="30.33" cy="25.24" r="0.84"/><circle class="cls-2" cx="23.13" cy="25.24" r="0.84"/><circle class="cls-2" cx="15.93" cy="25.24" r="0.84"/><circle class="cls-2" cx="8.73" cy="25.24" r="0.84"/><circle class="cls-2" cx="1.53" cy="25.24" r="0.84"/><circle class="cls-2" cx="41.12" cy="30.76" r="0.84"/><circle class="cls-2" cx="33.92" cy="30.76" r="0.84"/><circle class="cls-2" cx="26.73" cy="30.76" r="0.84"/><circle class="cls-2" cx="19.53" cy="30.76" r="0.84"/><circle class="cls-2" cx="12.33" cy="30.76" r="0.84"/><circle class="cls-2" cx="5.13" cy="30.76" r="0.84"/></pattern><pattern id="New_Pattern-3" data-name="New Pattern" width="43.43" height="32.75" patternTransform="translate(683.17 341.73) scale(0.83 0.79)" patternUnits="userSpaceOnUse" viewBox="0 0 43.43 32.75"><rect class="cls-1" width="43.43" height="32.75"/><circle class="cls-2" cx="37.23" cy="3.07" r="0.84"/><circle class="cls-2" cx="30.03" cy="3.07" r="0.84"/><circle class="cls-2" cx="22.84" cy="3.07" r="0.84"/><circle class="cls-2" cx="15.64" cy="3.07" r="0.84"/><circle class="cls-2" cx="8.44" cy="3.07" r="0.84"/><circle class="cls-2" cx="1.24" cy="3.07" r="0.84"/><circle class="cls-2" cx="40.83" cy="8.58" r="0.84"/><circle class="cls-2" cx="33.63" cy="8.58" r="0.84"/><circle class="cls-2" cx="26.43" cy="8.58" r="0.84"/><circle class="cls-2" cx="19.24" cy="8.58" r="0.84"/><circle class="cls-2" cx="12.04" cy="8.58" r="0.84"/><circle class="cls-2" cx="4.84" cy="8.58" r="0.84"/><circle class="cls-2" cx="37.23" cy="14.16" r="0.84"/><circle class="cls-2" cx="30.03" cy="14.16" r="0.84"/><circle class="cls-2" cx="22.84" cy="14.16" r="0.84"/><circle class="cls-2" cx="15.64" cy="14.16" r="0.84"/><circle class="cls-2" cx="8.44" cy="14.16" r="0.84"/><circle class="cls-2" cx="1.24" cy="14.16" r="0.84"/><circle class="cls-2" cx="40.83" cy="19.68" r="0.84"/><circle class="cls-2" cx="33.63" cy="19.68" r="0.84"/><circle class="cls-2" cx="26.43" cy="19.68" r="0.84"/><circle class="cls-2" cx="19.24" cy="19.68" r="0.84"/><circle class="cls-2" cx="12.04" cy="19.68" r="0.84"/><circle class="cls-2" cx="4.84" cy="19.68" r="0.84"/><circle class="cls-2" cx="37.52" cy="25.24" r="0.84"/><circle class="cls-2" cx="30.33" cy="25.24" r="0.84"/><circle class="cls-2" cx="23.13" cy="25.24" r="0.84"/><circle class="cls-2" cx="15.93" cy="25.24" r="0.84"/><circle class="cls-2" cx="8.73" cy="25.24" r="0.84"/><circle class="cls-2" cx="1.53" cy="25.24" r="0.84"/><circle class="cls-2" cx="41.12" cy="30.76" r="0.84"/><circle class="cls-2" cx="33.92" cy="30.76" r="0.84"/><circle class="cls-2" cx="26.73" cy="30.76" r="0.84"/><circle class="cls-2" cx="19.53" cy="30.76" r="0.84"/><circle class="cls-2" cx="12.33" cy="30.76" r="0.84"/><circle class="cls-2" cx="5.13" cy="30.76" r="0.84"/></pattern><pattern id="New_Pattern-5" data-name="New Pattern" width="43.43" height="32.75" patternTransform="translate(682.68 330.37) scale(0.83 0.79)" patternUnits="userSpaceOnUse" viewBox="0 0 43.43 32.75"><rect class="cls-1" width="43.43" height="32.75"/><circle class="cls-2" cx="37.23" cy="3.07" r="0.84"/><circle class="cls-2" cx="30.03" cy="3.07" r="0.84"/><circle class="cls-2" cx="22.84" cy="3.07" r="0.84"/><circle class="cls-2" cx="15.64" cy="3.07" r="0.84"/><circle class="cls-2" cx="8.44" cy="3.07" r="0.84"/><circle class="cls-2" cx="1.24" cy="3.07" r="0.84"/><circle class="cls-2" cx="40.83" cy="8.58" r="0.84"/><circle class="cls-2" cx="33.63" cy="8.58" r="0.84"/><circle class="cls-2" cx="26.43" cy="8.58" r="0.84"/><circle class="cls-2" cx="19.24" cy="8.58" r="0.84"/><circle class="cls-2" cx="12.04" cy="8.58" r="0.84"/><circle class="cls-2" cx="4.84" cy="8.58" r="0.84"/><circle class="cls-2" cx="37.23" cy="14.16" r="0.84"/><circle class="cls-2" cx="30.03" cy="14.16" r="0.84"/><circle class="cls-2" cx="22.84" cy="14.16" r="0.84"/><circle class="cls-2" cx="15.64" cy="14.16" r="0.84"/><circle class="cls-2" cx="8.44" cy="14.16" r="0.84"/><circle class="cls-2" cx="1.24" cy="14.16" r="0.84"/><circle class="cls-2" cx="40.83" cy="19.68" r="0.84"/><circle class="cls-2" cx="33.63" cy="19.68" r="0.84"/><circle class="cls-2" cx="26.43" cy="19.68" r="0.84"/><circle class="cls-2" cx="19.24" cy="19.68" r="0.84"/><circle class="cls-2" cx="12.04" cy="19.68" r="0.84"/><circle class="cls-2" cx="4.84" cy="19.68" r="0.84"/><circle class="cls-2" cx="37.52" cy="25.24" r="0.84"/><circle class="cls-2" cx="30.33" cy="25.24" r="0.84"/><circle class="cls-2" cx="23.13" cy="25.24" r="0.84"/><circle class="cls-2" cx="15.93" cy="25.24" r="0.84"/><circle class="cls-2" cx="8.73" cy="25.24" r="0.84"/><circle class="cls-2" cx="1.53" cy="25.24" r="0.84"/><circle class="cls-2" cx="41.12" cy="30.76" r="0.84"/><circle class="cls-2" cx="33.92" cy="30.76" r="0.84"/><circle class="cls-2" cx="26.73" cy="30.76" r="0.84"/><circle class="cls-2" cx="19.53" cy="30.76" r="0.84"/><circle class="cls-2" cx="12.33" cy="30.76" r="0.84"/><circle class="cls-2" cx="5.13" cy="30.76" r="0.84"/></pattern><pattern id="New_Pattern-7" data-name="New Pattern" width="43.43" height="32.75" patternTransform="translate(681.97 340.28) scale(0.83 0.79)" patternUnits="userSpaceOnUse" viewBox="0 0 43.43 32.75"><rect class="cls-1" width="43.43" height="32.75"/><circle class="cls-2" cx="37.23" cy="3.07" r="0.84"/><circle class="cls-2" cx="30.03" cy="3.07" r="0.84"/><circle class="cls-2" cx="22.84" cy="3.07" r="0.84"/><circle class="cls-2" cx="15.64" cy="3.07" r="0.84"/><circle class="cls-2" cx="8.44" cy="3.07" r="0.84"/><circle class="cls-2" cx="1.24" cy="3.07" r="0.84"/><circle class="cls-2" cx="40.83" cy="8.58" r="0.84"/><circle class="cls-2" cx="33.63" cy="8.58" r="0.84"/><circle class="cls-2" cx="26.43" cy="8.58" r="0.84"/><circle class="cls-2" cx="19.24" cy="8.58" r="0.84"/><circle class="cls-2" cx="12.04" cy="8.58" r="0.84"/><circle class="cls-2" cx="4.84" cy="8.58" r="0.84"/><circle class="cls-2" cx="37.23" cy="14.16" r="0.84"/><circle class="cls-2" cx="30.03" cy="14.16" r="0.84"/><circle class="cls-2" cx="22.84" cy="14.16" r="0.84"/><circle class="cls-2" cx="15.64" cy="14.16" r="0.84"/><circle class="cls-2" cx="8.44" cy="14.16" r="0.84"/><circle class="cls-2" cx="1.24" cy="14.16" r="0.84"/><circle class="cls-2" cx="40.83" cy="19.68" r="0.84"/><circle class="cls-2" cx="33.63" cy="19.68" r="0.84"/><circle class="cls-2" cx="26.43" cy="19.68" r="0.84"/><circle class="cls-2" cx="19.24" cy="19.68" r="0.84"/><circle class="cls-2" cx="12.04" cy="19.68" r="0.84"/><circle class="cls-2" cx="4.84" cy="19.68" r="0.84"/><circle class="cls-2" cx="37.52" cy="25.24" r="0.84"/><circle class="cls-2" cx="30.33" cy="25.24" r="0.84"/><circle class="cls-2" cx="23.13" cy="25.24" r="0.84"/><circle class="cls-2" cx="15.93" cy="25.24" r="0.84"/><circle class="cls-2" cx="8.73" cy="25.24" r="0.84"/><circle class="cls-2" cx="1.53" cy="25.24" r="0.84"/><circle class="cls-2" cx="41.12" cy="30.76" r="0.84"/><circle class="cls-2" cx="33.92" cy="30.76" r="0.84"/><circle class="cls-2" cx="26.73" cy="30.76" r="0.84"/><circle class="cls-2" cx="19.53" cy="30.76" r="0.84"/><circle class="cls-2" cx="12.33" cy="30.76" r="0.84"/><circle class="cls-2" cx="5.13" cy="30.76" r="0.84"/></pattern><pattern id="New_Pattern-9" data-name="New Pattern" width="43.43" height="32.75" patternTransform="translate(575.26 331.31) scale(0.74 0.7)" patternUnits="userSpaceOnUse" viewBox="0 0 43.43 32.75"><rect class="cls-1" width="43.43" height="32.75"/><circle class="cls-2" cx="37.23" cy="3.07" r="0.84"/><circle class="cls-2" cx="30.03" cy="3.07" r="0.84"/><circle class="cls-2" cx="22.84" cy="3.07" r="0.84"/><circle class="cls-2" cx="15.64" cy="3.07" r="0.84"/><circle class="cls-2" cx="8.44" cy="3.07" r="0.84"/><circle class="cls-2" cx="1.24" cy="3.07" r="0.84"/><circle class="cls-2" cx="40.83" cy="8.58" r="0.84"/><circle class="cls-2" cx="33.63" cy="8.58" r="0.84"/><circle class="cls-2" cx="26.43" cy="8.58" r="0.84"/><circle class="cls-2" cx="19.24" cy="8.58" r="0.84"/><circle class="cls-2" cx="12.04" cy="8.58" r="0.84"/><circle class="cls-2" cx="4.84" cy="8.58" r="0.84"/><circle class="cls-2" cx="37.23" cy="14.16" r="0.84"/><circle class="cls-2" cx="30.03" cy="14.16" r="0.84"/><circle class="cls-2" cx="22.84" cy="14.16" r="0.84"/><circle class="cls-2" cx="15.64" cy="14.16" r="0.84"/><circle class="cls-2" cx="8.44" cy="14.16" r="0.84"/><circle class="cls-2" cx="1.24" cy="14.16" r="0.84"/><circle class="cls-2" cx="40.83" cy="19.68" r="0.84"/><circle class="cls-2" cx="33.63" cy="19.68" r="0.84"/><circle class="cls-2" cx="26.43" cy="19.68" r="0.84"/><circle class="cls-2" cx="19.24" cy="19.68" r="0.84"/><circle class="cls-2" cx="12.04" cy="19.68" r="0.84"/><circle class="cls-2" cx="4.84" cy="19.68" r="0.84"/><circle class="cls-2" cx="37.52" cy="25.24" r="0.84"/><circle class="cls-2" cx="30.33" cy="25.24" r="0.84"/><circle class="cls-2" cx="23.13" cy="25.24" r="0.84"/><circle class="cls-2" cx="15.93" cy="25.24" r="0.84"/><circle class="cls-2" cx="8.73" cy="25.24" r="0.84"/><circle class="cls-2" cx="1.53" cy="25.24" r="0.84"/><circle class="cls-2" cx="41.12" cy="30.76" r="0.84"/><circle class="cls-2" cx="33.92" cy="30.76" r="0.84"/><circle class="cls-2" cx="26.73" cy="30.76" r="0.84"/><circle class="cls-2" cx="19.53" cy="30.76" r="0.84"/><circle class="cls-2" cx="12.33" cy="30.76" r="0.84"/><circle class="cls-2" cx="5.13" cy="30.76" r="0.84"/></pattern><pattern id="New_Pattern-11" data-name="New Pattern" width="43.43" height="32.75" patternTransform="translate(607.17 347.01) scale(0.74 0.7)" patternUnits="userSpaceOnUse" viewBox="0 0 43.43 32.75"><rect class="cls-1" width="43.43" height="32.75"/><circle class="cls-2" cx="37.23" cy="3.07" r="0.84"/><circle class="cls-2" cx="30.03" cy="3.07" r="0.84"/><circle class="cls-2" cx="22.84" cy="3.07" r="0.84"/><circle class="cls-2" cx="15.64" cy="3.07" r="0.84"/><circle class="cls-2" cx="8.44" cy="3.07" r="0.84"/><circle class="cls-2" cx="1.24" cy="3.07" r="0.84"/><circle class="cls-2" cx="40.83" cy="8.58" r="0.84"/><circle class="cls-2" cx="33.63" cy="8.58" r="0.84"/><circle class="cls-2" cx="26.43" cy="8.58" r="0.84"/><circle class="cls-2" cx="19.24" cy="8.58" r="0.84"/><circle class="cls-2" cx="12.04" cy="8.58" r="0.84"/><circle class="cls-2" cx="4.84" cy="8.58" r="0.84"/><circle class="cls-2" cx="37.23" cy="14.16" r="0.84"/><circle class="cls-2" cx="30.03" cy="14.16" r="0.84"/><circle class="cls-2" cx="22.84" cy="14.16" r="0.84"/><circle class="cls-2" cx="15.64" cy="14.16" r="0.84"/><circle class="cls-2" cx="8.44" cy="14.16" r="0.84"/><circle class="cls-2" cx="1.24" cy="14.16" r="0.84"/><circle class="cls-2" cx="40.83" cy="19.68" r="0.84"/><circle class="cls-2" cx="33.63" cy="19.68" r="0.84"/><circle class="cls-2" cx="26.43" cy="19.68" r="0.84"/><circle class="cls-2" cx="19.24" cy="19.68" r="0.84"/><circle class="cls-2" cx="12.04" cy="19.68" r="0.84"/><circle class="cls-2" cx="4.84" cy="19.68" r="0.84"/><circle class="cls-2" cx="37.52" cy="25.24" r="0.84"/><circle class="cls-2" cx="30.33" cy="25.24" r="0.84"/><circle class="cls-2" cx="23.13" cy="25.24" r="0.84"/><circle class="cls-2" cx="15.93" cy="25.24" r="0.84"/><circle class="cls-2" cx="8.73" cy="25.24" r="0.84"/><circle class="cls-2" cx="1.53" cy="25.24" r="0.84"/><circle class="cls-2" cx="41.12" cy="30.76" r="0.84"/><circle class="cls-2" cx="33.92" cy="30.76" r="0.84"/><circle class="cls-2" cx="26.73" cy="30.76" r="0.84"/><circle class="cls-2" cx="19.53" cy="30.76" r="0.84"/><circle class="cls-2" cx="12.33" cy="30.76" r="0.84"/><circle class="cls-2" cx="5.13" cy="30.76" r="0.84"/></pattern><pattern id="New_Pattern-13" data-name="New Pattern" width="43.43" height="32.75" patternTransform="translate(638.99 335.08) scale(0.74 0.7)" patternUnits="userSpaceOnUse" viewBox="0 0 43.43 32.75"><rect class="cls-1" width="43.43" height="32.75"/><circle class="cls-2" cx="37.23" cy="3.07" r="0.84"/><circle class="cls-2" cx="30.03" cy="3.07" r="0.84"/><circle class="cls-2" cx="22.84" cy="3.07" r="0.84"/><circle class="cls-2" cx="15.64" cy="3.07" r="0.84"/><circle class="cls-2" cx="8.44" cy="3.07" r="0.84"/><circle class="cls-2" cx="1.24" cy="3.07" r="0.84"/><circle class="cls-2" cx="40.83" cy="8.58" r="0.84"/><circle class="cls-2" cx="33.63" cy="8.58" r="0.84"/><circle class="cls-2" cx="26.43" cy="8.58" r="0.84"/><circle class="cls-2" cx="19.24" cy="8.58" r="0.84"/><circle class="cls-2" cx="12.04" cy="8.58" r="0.84"/><circle class="cls-2" cx="4.84" cy="8.58" r="0.84"/><circle class="cls-2" cx="37.23" cy="14.16" r="0.84"/><circle class="cls-2" cx="30.03" cy="14.16" r="0.84"/><circle class="cls-2" cx="22.84" cy="14.16" r="0.84"/><circle class="cls-2" cx="15.64" cy="14.16" r="0.84"/><circle class="cls-2" cx="8.44" cy="14.16" r="0.84"/><circle class="cls-2" cx="1.24" cy="14.16" r="0.84"/><circle class="cls-2" cx="40.83" cy="19.68" r="0.84"/><circle class="cls-2" cx="33.63" cy="19.68" r="0.84"/><circle class="cls-2" cx="26.43" cy="19.68" r="0.84"/><circle class="cls-2" cx="19.24" cy="19.68" r="0.84"/><circle class="cls-2" cx="12.04" cy="19.68" r="0.84"/><circle class="cls-2" cx="4.84" cy="19.68" r="0.84"/><circle class="cls-2" cx="37.52" cy="25.24" r="0.84"/><circle class="cls-2" cx="30.33" cy="25.24" r="0.84"/><circle class="cls-2" cx="23.13" cy="25.24" r="0.84"/><circle class="cls-2" cx="15.93" cy="25.24" r="0.84"/><circle class="cls-2" cx="8.73" cy="25.24" r="0.84"/><circle class="cls-2" cx="1.53" cy="25.24" r="0.84"/><circle class="cls-2" cx="41.12" cy="30.76" r="0.84"/><circle class="cls-2" cx="33.92" cy="30.76" r="0.84"/><circle class="cls-2" cx="26.73" cy="30.76" r="0.84"/><circle class="cls-2" cx="19.53" cy="30.76" r="0.84"/><circle class="cls-2" cx="12.33" cy="30.76" r="0.84"/><circle class="cls-2" cx="5.13" cy="30.76" r="0.84"/></pattern><pattern id="New_Pattern-15" data-name="New Pattern" width="43.43" height="32.75" patternTransform="translate(638.55 324.93) scale(0.74 0.7)" patternUnits="userSpaceOnUse" viewBox="0 0 43.43 32.75"><rect class="cls-1" width="43.43" height="32.75"/><circle class="cls-2" cx="37.23" cy="3.07" r="0.84"/><circle class="cls-2" cx="30.03" cy="3.07" r="0.84"/><circle class="cls-2" cx="22.84" cy="3.07" r="0.84"/><circle class="cls-2" cx="15.64" cy="3.07" r="0.84"/><circle class="cls-2" cx="8.44" cy="3.07" r="0.84"/><circle class="cls-2" cx="1.24" cy="3.07" r="0.84"/><circle class="cls-2" cx="40.83" cy="8.58" r="0.84"/><circle class="cls-2" cx="33.63" cy="8.58" r="0.84"/><circle class="cls-2" cx="26.43" cy="8.58" r="0.84"/><circle class="cls-2" cx="19.24" cy="8.58" r="0.84"/><circle class="cls-2" cx="12.04" cy="8.58" r="0.84"/><circle class="cls-2" cx="4.84" cy="8.58" r="0.84"/><circle class="cls-2" cx="37.23" cy="14.16" r="0.84"/><circle class="cls-2" cx="30.03" cy="14.16" r="0.84"/><circle class="cls-2" cx="22.84" cy="14.16" r="0.84"/><circle class="cls-2" cx="15.64" cy="14.16" r="0.84"/><circle class="cls-2" cx="8.44" cy="14.16" r="0.84"/><circle class="cls-2" cx="1.24" cy="14.16" r="0.84"/><circle class="cls-2" cx="40.83" cy="19.68" r="0.84"/><circle class="cls-2" cx="33.63" cy="19.68" r="0.84"/><circle class="cls-2" cx="26.43" cy="19.68" r="0.84"/><circle class="cls-2" cx="19.24" cy="19.68" r="0.84"/><circle class="cls-2" cx="12.04" cy="19.68" r="0.84"/><circle class="cls-2" cx="4.84" cy="19.68" r="0.84"/><circle class="cls-2" cx="37.52" cy="25.24" r="0.84"/><circle class="cls-2" cx="30.33" cy="25.24" r="0.84"/><circle class="cls-2" cx="23.13" cy="25.24" r="0.84"/><circle class="cls-2" cx="15.93" cy="25.24" r="0.84"/><circle class="cls-2" cx="8.73" cy="25.24" r="0.84"/><circle class="cls-2" cx="1.53" cy="25.24" r="0.84"/><circle class="cls-2" cx="41.12" cy="30.76" r="0.84"/><circle class="cls-2" cx="33.92" cy="30.76" r="0.84"/><circle class="cls-2" cx="26.73" cy="30.76" r="0.84"/><circle class="cls-2" cx="19.53" cy="30.76" r="0.84"/><circle class="cls-2" cx="12.33" cy="30.76" r="0.84"/><circle class="cls-2" cx="5.13" cy="30.76" r="0.84"/></pattern><pattern id="New_Pattern-17" data-name="New Pattern" width="43.43" height="32.75" patternTransform="translate(607.07 319.38) scale(0.74 0.7)" patternUnits="userSpaceOnUse" viewBox="0 0 43.43 32.75"><rect class="cls-1" width="43.43" height="32.75"/><circle class="cls-2" cx="37.23" cy="3.07" r="0.84"/><circle class="cls-2" cx="30.03" cy="3.07" r="0.84"/><circle class="cls-2" cx="22.84" cy="3.07" r="0.84"/><circle class="cls-2" cx="15.64" cy="3.07" r="0.84"/><circle class="cls-2" cx="8.44" cy="3.07" r="0.84"/><circle class="cls-2" cx="1.24" cy="3.07" r="0.84"/><circle class="cls-2" cx="40.83" cy="8.58" r="0.84"/><circle class="cls-2" cx="33.63" cy="8.58" r="0.84"/><circle class="cls-2" cx="26.43" cy="8.58" r="0.84"/><circle class="cls-2" cx="19.24" cy="8.58" r="0.84"/><circle class="cls-2" cx="12.04" cy="8.58" r="0.84"/><circle class="cls-2" cx="4.84" cy="8.58" r="0.84"/><circle class="cls-2" cx="37.23" cy="14.16" r="0.84"/><circle class="cls-2" cx="30.03" cy="14.16" r="0.84"/><circle class="cls-2" cx="22.84" cy="14.16" r="0.84"/><circle class="cls-2" cx="15.64" cy="14.16" r="0.84"/><circle class="cls-2" cx="8.44" cy="14.16" r="0.84"/><circle class="cls-2" cx="1.24" cy="14.16" r="0.84"/><circle class="cls-2" cx="40.83" cy="19.68" r="0.84"/><circle class="cls-2" cx="33.63" cy="19.68" r="0.84"/><circle class="cls-2" cx="26.43" cy="19.68" r="0.84"/><circle class="cls-2" cx="19.24" cy="19.68" r="0.84"/><circle class="cls-2" cx="12.04" cy="19.68" r="0.84"/><circle class="cls-2" cx="4.84" cy="19.68" r="0.84"/><circle class="cls-2" cx="37.52" cy="25.24" r="0.84"/><circle class="cls-2" cx="30.33" cy="25.24" r="0.84"/><circle class="cls-2" cx="23.13" cy="25.24" r="0.84"/><circle class="cls-2" cx="15.93" cy="25.24" r="0.84"/><circle class="cls-2" cx="8.73" cy="25.24" r="0.84"/><circle class="cls-2" cx="1.53" cy="25.24" r="0.84"/><circle class="cls-2" cx="41.12" cy="30.76" r="0.84"/><circle class="cls-2" cx="33.92" cy="30.76" r="0.84"/><circle class="cls-2" cx="26.73" cy="30.76" r="0.84"/><circle class="cls-2" cx="19.53" cy="30.76" r="0.84"/><circle class="cls-2" cx="12.33" cy="30.76" r="0.84"/><circle class="cls-2" cx="5.13" cy="30.76" r="0.84"/></pattern><pattern id="New_Pattern-19" data-name="New Pattern" width="43.43" height="32.75" patternTransform="translate(606.63 309.23) scale(0.74 0.7)" patternUnits="userSpaceOnUse" viewBox="0 0 43.43 32.75"><rect class="cls-1" width="43.43" height="32.75"/><circle class="cls-2" cx="37.23" cy="3.07" r="0.84"/><circle class="cls-2" cx="30.03" cy="3.07" r="0.84"/><circle class="cls-2" cx="22.84" cy="3.07" r="0.84"/><circle class="cls-2" cx="15.64" cy="3.07" r="0.84"/><circle class="cls-2" cx="8.44" cy="3.07" r="0.84"/><circle class="cls-2" cx="1.24" cy="3.07" r="0.84"/><circle class="cls-2" cx="40.83" cy="8.58" r="0.84"/><circle class="cls-2" cx="33.63" cy="8.58" r="0.84"/><circle class="cls-2" cx="26.43" cy="8.58" r="0.84"/><circle class="cls-2" cx="19.24" cy="8.58" r="0.84"/><circle class="cls-2" cx="12.04" cy="8.58" r="0.84"/><circle class="cls-2" cx="4.84" cy="8.58" r="0.84"/><circle class="cls-2" cx="37.23" cy="14.16" r="0.84"/><circle class="cls-2" cx="30.03" cy="14.16" r="0.84"/><circle class="cls-2" cx="22.84" cy="14.16" r="0.84"/><circle class="cls-2" cx="15.64" cy="14.16" r="0.84"/><circle class="cls-2" cx="8.44" cy="14.16" r="0.84"/><circle class="cls-2" cx="1.24" cy="14.16" r="0.84"/><circle class="cls-2" cx="40.83" cy="19.68" r="0.84"/><circle class="cls-2" cx="33.63" cy="19.68" r="0.84"/><circle class="cls-2" cx="26.43" cy="19.68" r="0.84"/><circle class="cls-2" cx="19.24" cy="19.68" r="0.84"/><circle class="cls-2" cx="12.04" cy="19.68" r="0.84"/><circle class="cls-2" cx="4.84" cy="19.68" r="0.84"/><circle class="cls-2" cx="37.52" cy="25.24" r="0.84"/><circle class="cls-2" cx="30.33" cy="25.24" r="0.84"/><circle class="cls-2" cx="23.13" cy="25.24" r="0.84"/><circle class="cls-2" cx="15.93" cy="25.24" r="0.84"/><circle class="cls-2" cx="8.73" cy="25.24" r="0.84"/><circle class="cls-2" cx="1.53" cy="25.24" r="0.84"/><circle class="cls-2" cx="41.12" cy="30.76" r="0.84"/><circle class="cls-2" cx="33.92" cy="30.76" r="0.84"/><circle class="cls-2" cx="26.73" cy="30.76" r="0.84"/><circle class="cls-2" cx="19.53" cy="30.76" r="0.84"/><circle class="cls-2" cx="12.33" cy="30.76" r="0.84"/><circle class="cls-2" cx="5.13" cy="30.76" r="0.84"/></pattern><pattern id="New_Pattern-21" data-name="New Pattern" width="43.43" height="32.75" patternTransform="translate(606 318.08) scale(0.74 0.7)" patternUnits="userSpaceOnUse" viewBox="0 0 43.43 32.75"><rect class="cls-1" width="43.43" height="32.75"/><circle class="cls-2" cx="37.23" cy="3.07" r="0.84"/><circle class="cls-2" cx="30.03" cy="3.07" r="0.84"/><circle class="cls-2" cx="22.84" cy="3.07" r="0.84"/><circle class="cls-2" cx="15.64" cy="3.07" r="0.84"/><circle class="cls-2" cx="8.44" cy="3.07" r="0.84"/><circle class="cls-2" cx="1.24" cy="3.07" r="0.84"/><circle class="cls-2" cx="40.83" cy="8.58" r="0.84"/><circle class="cls-2" cx="33.63" cy="8.58" r="0.84"/><circle class="cls-2" cx="26.43" cy="8.58" r="0.84"/><circle class="cls-2" cx="19.24" cy="8.58" r="0.84"/><circle class="cls-2" cx="12.04" cy="8.58" r="0.84"/><circle class="cls-2" cx="4.84" cy="8.58" r="0.84"/><circle class="cls-2" cx="37.23" cy="14.16" r="0.84"/><circle class="cls-2" cx="30.03" cy="14.16" r="0.84"/><circle class="cls-2" cx="22.84" cy="14.16" r="0.84"/><circle class="cls-2" cx="15.64" cy="14.16" r="0.84"/><circle class="cls-2" cx="8.44" cy="14.16" r="0.84"/><circle class="cls-2" cx="1.24" cy="14.16" r="0.84"/><circle class="cls-2" cx="40.83" cy="19.68" r="0.84"/><circle class="cls-2" cx="33.63" cy="19.68" r="0.84"/><circle class="cls-2" cx="26.43" cy="19.68" r="0.84"/><circle class="cls-2" cx="19.24" cy="19.68" r="0.84"/><circle class="cls-2" cx="12.04" cy="19.68" r="0.84"/><circle class="cls-2" cx="4.84" cy="19.68" r="0.84"/><circle class="cls-2" cx="37.52" cy="25.24" r="0.84"/><circle class="cls-2" cx="30.33" cy="25.24" r="0.84"/><circle class="cls-2" cx="23.13" cy="25.24" r="0.84"/><circle class="cls-2" cx="15.93" cy="25.24" r="0.84"/><circle class="cls-2" cx="8.73" cy="25.24" r="0.84"/><circle class="cls-2" cx="1.53" cy="25.24" r="0.84"/><circle class="cls-2" cx="41.12" cy="30.76" r="0.84"/><circle class="cls-2" cx="33.92" cy="30.76" r="0.84"/><circle class="cls-2" cx="26.73" cy="30.76" r="0.84"/><circle class="cls-2" cx="19.53" cy="30.76" r="0.84"/><circle class="cls-2" cx="12.33" cy="30.76" r="0.84"/><circle class="cls-2" cx="5.13" cy="30.76" r="0.84"/></pattern></defs><title>QC-illo4-desktop-1</title><text class="cls-3" transform="translate(21.69 62.31) scale(1.13 1)">TUPE<tspan class="cls-4" x="73.61" y="0">L</tspan><tspan x="87.42" y="0">O CHAINTREE</tspan></text><polygon class="cls-5" points="4.17 363.14 -48.25 389.88 -48.25 400.42 4.17 427.23 56.59 400.42 56.59 389.88 4.17 363.14"/><polyline class="cls-6" points="4.55 416.13 -47.87 389.32 4.55 362.58 56.97 389.32"/><polygon class="cls-5" points="4.55 426.68 56.97 399.86 56.97 389.32 4.55 416.13 4.55 426.68"/><polygon class="cls-6" points="4.55 427.54 -47.87 400.73 -47.87 389.32 4.55 416.13 4.55 427.54"/><polygon class="cls-6" points="4.55 426.68 56.97 399.86 56.97 389.32 4.55 416.13 4.55 426.68"/><polygon class="cls-7" points="4.12 426.36 56.54 399.54 56.54 389 4.12 415.82 4.12 426.36"/><polygon class="cls-5" points="75.77 323.94 23.34 350.67 23.34 361.21 75.77 388.03 128.19 361.21 128.19 350.67 75.77 323.94"/><polyline class="cls-6" points="76.14 376.93 23.72 350.11 76.14 323.38 128.56 350.11"/><polygon class="cls-5" points="76.14 387.47 128.56 360.65 128.56 350.11 76.14 376.93 76.14 387.47"/><polygon class="cls-6" points="76.14 388.34 23.72 361.52 23.72 350.11 76.14 376.93 76.14 388.34"/><polygon class="cls-6" points="76.14 387.47 128.56 360.65 128.56 350.11 76.14 376.93 76.14 387.47"/><polygon class="cls-8" points="75.71 387.15 128.13 360.33 128.13 349.79 75.71 376.61 75.71 387.15"/><polygon class="cls-5" points="147.21 286.72 94.79 313.46 94.79 324 147.21 350.81 199.63 324 199.63 313.46 147.21 286.72"/><polyline class="cls-6" points="147.59 339.71 95.17 312.9 147.59 286.16 200.01 312.9"/><polygon class="cls-5" points="147.59 350.25 200.01 323.44 200.01 312.9 147.59 339.71 147.59 350.25"/><polygon class="cls-6" points="147.59 351.12 95.17 324.31 95.17 312.9 147.59 339.71 147.59 351.12"/><polygon class="cls-6" points="147.59 350.25 200.01 323.44 200.01 312.9 147.59 339.71 147.59 350.25"/><polygon class="cls-9" points="147.16 349.94 199.58 323.12 199.58 312.58 147.16 339.39 147.16 349.94"/><line class="cls-10" x1="74.51" y1="269.47" x2="74.51" y2="351.12"/><polygon class="cls-11" points="74.56 244.93 22.14 271.66 22.14 282.2 74.56 309.02 126.98 282.2 126.98 271.66 74.56 244.93"/><polyline class="cls-6" points="74.94 297.92 22.52 271.1 74.94 244.37 127.36 271.1"/><polygon class="cls-5" points="74.94 308.46 127.36 281.64 127.36 271.1 74.94 297.92 74.94 308.46"/><polygon class="cls-6" points="74.94 309.33 22.52 282.51 22.52 271.1 74.94 297.92 74.94 309.33"/><polygon class="cls-6" points="74.94 308.46 127.36 281.64 127.36 271.1 74.94 297.92 74.94 308.46"/><polygon class="cls-12" points="74.51 308.14 126.93 281.32 126.93 270.78 74.51 297.6 74.51 308.14"/><line class="cls-10" x1="33.64" y1="376.09" x2="51.01" y2="367.3"/><line class="cls-10" x1="107.21" y1="338.44" x2="124.59" y2="329.64"/><line class="cls-10" x1="36.31" y1="409.89" x2="375.97" y2="555.07"/><polygon class="cls-13" points="147.59 463.26 163.89 452.75 172.18 468.09 147.59 463.26"/><line class="cls-14" x1="247.13" y1="788.19" x2="247.13" y2="632.56"/><ellipse class="cls-5" cx="247.02" cy="887.1" rx="23.91" ry="11.55"/><path class="cls-15" d="M258.13,867.2c7.61,1.93,12.8,5.79,12.8,10.23,0,6.38-10.7,11.55-23.91,11.55s-23.91-5.17-23.91-11.55c0-4.18,4.6-7.84,11.49-9.87"/><line class="cls-15" x1="192.91" y1="814.28" x2="301.14" y2="759.12"/><line class="cls-15" x1="247.02" y1="786.7" x2="301.14" y2="814.28"/><ellipse class="cls-16" cx="176.67" cy="832.73" rx="23.91" ry="11.55"/><path class="cls-15" d="M186.72,812.58c8.19,1.83,13.86,5.84,13.86,10.48,0,6.38-10.7,11.55-23.91,11.55s-23.91-5.17-23.91-11.55c0-4.26,4.77-8,11.87-10"/><rect class="cls-13" x="230.03" y="785.36" width="34.67" height="2.6" transform="translate(-330.29 198.15) rotate(-27.01)"/><rect class="cls-13" x="245.89" y="769.04" width="2.6" height="35.07" transform="translate(-565.85 649.6) rotate(-62.99)"/><line class="cls-17" x1="247.02" y1="850.31" x2="247.02" y2="834.1"/><rect class="cls-5" x="229.88" y="822.38" width="34.67" height="2.6" transform="translate(-347.12 202.12) rotate(-27.01)"/><rect class="cls-5" x="245.73" y="806.06" width="2.6" height="35.07" transform="translate(-598.92 669.67) rotate(-62.99)"/><text class="cls-18" transform="translate(167.81 816.03) scale(1.13 1)">a</text><ellipse class="cls-16" cx="327.31" cy="835.97" rx="23.91" ry="11.55"/><path class="cls-15" d="M338.73,816.16c7.44,2,12.49,5.76,12.49,10.14,0,6.38-10.71,11.55-23.91,11.55s-23.91-5.17-23.91-11.55c0-4.25,4.76-8,11.85-10"/><text class="cls-18" transform="translate(318.39 820.45) scale(1.13 1)">b</text><text class="cls-18" transform="translate(237.57 872.64) scale(1.13 1)">d</text><ellipse class="cls-16" cx="325.45" cy="755.36" rx="23.91" ry="11.55"/><path class="cls-15" d="M334.75,735.05c8.58,1.75,14.61,5.86,14.61,10.64,0,6.37-10.71,11.54-23.91,11.54s-23.91-5.17-23.91-11.54c0-4.61,5.59-8.59,13.69-10.44"/><text class="cls-18" transform="translate(316.54 739.5) scale(1.13 1)">c</text><text class="cls-19" transform="translate(33.07 202.85) scale(1.13 1)">1</text><text class="cls-20" transform="translate(42.24 202.85) scale(1.13 1)">1</text><text class="cls-21" transform="translate(107.57 138.58) scale(1.13 1)">Owner of chain <tspan x="0" y="24">wishes to append data. </tspan><tspan x="0" y="48">Submits to signer&apos;s </tspan><tspan x="0" y="72">group for validation.</tspan></text><text class="cls-19" transform="translate(36.07 1013.45) scale(1.13 1)">3</text><text class="cls-20" transform="translate(45.24 1013.45) scale(1.13 1)">3</text><path class="cls-13" d="M133.58,938.76c1,0,1.83,0,2.47,0s1.48,0,2.49,0,1.8,0,2.35,0a7.12,7.12,0,0,0,1.52-.22l.42,2.8a.81.81,0,0,1-.53.13c-.13,0-.21,0-.22-.09a2.6,2.6,0,0,0-.76-1.42,3.2,3.2,0,0,0-1.7-.32c-1.56,0-2.36.1-2.42.29a7.09,7.09,0,0,0-.2,2v7.06a6.75,6.75,0,0,0,.2,1.81c0,.09.23.18.61.27a4.62,4.62,0,0,0,.8.12s.08.1.08.3a.77.77,0,0,1,0,.27c-1.47-.07-2.32-.1-2.55-.1l-2.64.1a.37.37,0,0,1-.09-.29c0-.19,0-.28.09-.28a5.06,5.06,0,0,0,.84-.11c.38-.08.59-.17.63-.28a6.94,6.94,0,0,0,.16-1.74V941.9a5.53,5.53,0,0,0-.2-2c-.12-.19-.91-.29-2.38-.29a3.2,3.2,0,0,0-1.7.32,2.6,2.6,0,0,0-.76,1.42c0,.06-.09.09-.22.09a.81.81,0,0,1-.53-.13l.42-2.8a7,7,0,0,0,1.52.22C131.79,938.72,132.57,938.73,133.58,938.76Z"/><path class="cls-13" d="M149.85,943.08a2,2,0,0,1,1.71.56,1.65,1.65,0,0,1-.24,1,.72.72,0,0,1-.59.31,1,1,0,0,1-.73-.33,1.22,1.22,0,0,0-.9-.33,1.53,1.53,0,0,0-1.19.56,1.78,1.78,0,0,0-.51,1.19V949a6.41,6.41,0,0,0,.18,1.74c0,.09.22.18.58.27a4.08,4.08,0,0,0,.76.12q.08,0,.09.24a.8.8,0,0,1,0,.33l-2.38-.1-2.4.1a.48.48,0,0,1-.08-.32c0-.17,0-.25.08-.25A3.87,3.87,0,0,0,145,951c.34-.09.53-.18.56-.27a5.41,5.41,0,0,0,.15-1.37v-3.69a1.4,1.4,0,0,0-.31-1,1,1,0,0,0-.54-.32,2,2,0,0,0-.52-.09c-.14,0-.21,0-.21,0,0-.31,0-.48.13-.49a29.2,29.2,0,0,0,3-.51l.11,0c.06,0,.1.06.11.17a.47.47,0,0,1,0,.24l-.13,1a4.61,4.61,0,0,1,1.09-1A2.51,2.51,0,0,1,149.85,943.08Z"/><path class="cls-13" d="M156.93,943.09a4.31,4.31,0,0,1,1.78.35,2.86,2.86,0,0,1,1.18.88,3.64,3.64,0,0,1,.59,1.09,3.58,3.58,0,0,1,.19,1.1c0,.26,0,.42-.13.48a1,1,0,0,1-.51.09h-5.54c-.12,0-.18,0-.18.1a3.5,3.5,0,0,0,.84,2.26,2.92,2.92,0,0,0,2.42,1,5.05,5.05,0,0,0,.88-.08,4.8,4.8,0,0,0,.71-.19,4.42,4.42,0,0,0,.51-.21,2.87,2.87,0,0,0,.36-.21l.15-.09c.09,0,.14.08.14.25a.66.66,0,0,1-.14.35,3.92,3.92,0,0,1-1.29,1,4.12,4.12,0,0,1-1.87.44,4.45,4.45,0,0,1-3.14-1.22,3.94,3.94,0,0,1-1.31-3,4.2,4.2,0,0,1,4.36-4.44Zm-.22.73a2,2,0,0,0-1.75.87,2.77,2.77,0,0,0-.61,1.43.13.13,0,0,0,.14.14h4.29c.07,0,.11-.07.11-.2a2.53,2.53,0,0,0-.6-1.43A1.85,1.85,0,0,0,156.71,943.82Z"/><path class="cls-13" d="M166.39,943.09a4.31,4.31,0,0,1,1.78.35,2.93,2.93,0,0,1,1.18.88,3.88,3.88,0,0,1,.59,1.09,3.58,3.58,0,0,1,.19,1.1c0,.26,0,.42-.14.48a.93.93,0,0,1-.5.09H164c-.12,0-.18,0-.18.1a3.5,3.5,0,0,0,.84,2.26,2.91,2.91,0,0,0,2.41,1,4.88,4.88,0,0,0,.88-.08,4.63,4.63,0,0,0,.72-.19,4.42,4.42,0,0,0,.51-.21,3.82,3.82,0,0,0,.36-.21l.15-.09c.09,0,.13.08.13.25a.63.63,0,0,1-.13.35,3.86,3.86,0,0,1-1.3,1,4.06,4.06,0,0,1-1.87.44,4.45,4.45,0,0,1-3.13-1.22,3.94,3.94,0,0,1-1.31-3,4.19,4.19,0,0,1,4.36-4.44Zm-.22.73a2,2,0,0,0-1.75.87,2.68,2.68,0,0,0-.61,1.43.13.13,0,0,0,.14.14h4.28c.08,0,.11-.07.11-.2a2.51,2.51,0,0,0-.59-1.43A1.87,1.87,0,0,0,166.17,943.82Z"/><path class="cls-13" d="M179.69,949a6.41,6.41,0,0,0,.18,1.74q0,.13.57.27a3.89,3.89,0,0,0,.75.12s.07.08.09.24a.8.8,0,0,1,0,.33l-2.36-.1-2.4.1a.48.48,0,0,1-.08-.32c0-.17,0-.25.08-.25a3.87,3.87,0,0,0,.79-.12c.34-.09.53-.18.56-.27a5.41,5.41,0,0,0,.15-1.37v-3.69a1.4,1.4,0,0,0-.31-1,1,1,0,0,0-.54-.32,2,2,0,0,0-.52-.09c-.14,0-.21,0-.21,0,0-.31,0-.48.13-.49a28.69,28.69,0,0,0,3-.51l0,0h.06c.06,0,.1.06.11.17a.47.47,0,0,1,0,.24,10.73,10.73,0,0,0-.11,1.41Zm-1.79-8.25a.91.91,0,0,1,0-1.39,1.23,1.23,0,0,1,1.56,0,.91.91,0,0,1,0,1.39,1.23,1.23,0,0,1-1.56,0Z"/><path class="cls-13" d="M185.83,943.08a8.85,8.85,0,0,1,1.22.1l1,.15a10.67,10.67,0,0,1,.26,2c0,.07-.1.1-.29.1s-.31,0-.33-.14a2,2,0,0,0-.62-1,1.67,1.67,0,0,0-1.18-.49c-1.06,0-1.58.38-1.58,1.15a1.39,1.39,0,0,0,.08.52,1.19,1.19,0,0,0,.34.43l.39.29c.09.06.28.16.58.31l.56.29.52.26.61.32.51.33a3,3,0,0,1,.5.42,2.92,2.92,0,0,1,.29.47,1.22,1.22,0,0,1,.15.58,2.31,2.31,0,0,1-1,1.92,3.75,3.75,0,0,1-2.37.78,7.34,7.34,0,0,1-.85-.05c-.25,0-.56-.09-.91-.17s-.62-.13-.81-.16a4.56,4.56,0,0,1-.26-1,6.41,6.41,0,0,1-.12-1.06.53.53,0,0,1,.27-.11c.22,0,.33,0,.35.11a2.2,2.2,0,0,0,.82,1.15,2.36,2.36,0,0,0,1.51.55,1.83,1.83,0,0,0,1.15-.34,1.18,1.18,0,0,0,.46-1,1.28,1.28,0,0,0-.15-.61,1.37,1.37,0,0,0-.46-.51,6.1,6.1,0,0,0-.59-.37l-.78-.38c-.34-.16-.59-.28-.75-.37-1.15-.59-1.72-1.28-1.72-2.09a2,2,0,0,1,1-1.72A3.83,3.83,0,0,1,185.83,943.08Z"/><path class="cls-13" d="M204.13,945v3.91a6,6,0,0,0,.16,1.48.41.41,0,0,0,.24.22,1.43,1.43,0,0,0,.42.09,3.17,3.17,0,0,0,.44,0l.2,0s.06.09.06.22a.62.62,0,0,1-.05.18c0,.09-.08.13-.13.13-.22,0-.46,0-.73.08s-.53.08-.76.13l-.66.16a4.43,4.43,0,0,0-.48.14l-.2,0c-.12,0-.18-.11-.18-.32v-1l0-.1a4.27,4.27,0,0,1-2.88,1.39,2.6,2.6,0,0,1-1.4-.36,2.21,2.21,0,0,1-.86-1,5.16,5.16,0,0,1-.38-1.15,5.53,5.53,0,0,1-.11-1.17v-2.46a1.45,1.45,0,0,0-.31-1,1.07,1.07,0,0,0-.54-.32,2,2,0,0,0-.53-.09c-.14,0-.21,0-.21,0,0-.31.05-.48.13-.49a29.05,29.05,0,0,0,3-.51l.11,0c.06,0,.1.06.11.17a.93.93,0,0,1,0,.24,10.84,10.84,0,0,0-.13,1.45v2.64a3.9,3.9,0,0,0,.5,2.21,1.88,1.88,0,0,0,1.65.72,2.08,2.08,0,0,0,1.26-.46c.39-.31.59-.57.59-.79v-3.66a1.4,1.4,0,0,0-.31-1,1,1,0,0,0-.54-.32,2,2,0,0,0-.52-.09c-.14,0-.21,0-.21,0,0-.31,0-.48.13-.49a28.69,28.69,0,0,0,3-.51l.12,0c.05,0,.09.06.1.17a.47.47,0,0,1,0,.24A12.91,12.91,0,0,0,204.13,945Z"/><path class="cls-13" d="M211.85,943.09a4.31,4.31,0,0,1,3.3,1.26,3.85,3.85,0,0,1,1.19,2.69,4.46,4.46,0,0,1-1.47,3.3,4.71,4.71,0,0,1-3.35,1.43l-.58,0-.45-.07-.31-.09-.28-.11-.22-.08a.33.33,0,0,0-.09.25v1.68a7,7,0,0,0,.17,1.74c0,.09.22.18.58.26a3.43,3.43,0,0,0,.74.13s.08.08.09.24a.57.57,0,0,1,0,.32l-2.35-.09-2.4.09c-.06,0-.09-.15-.09-.32s0-.24.09-.24a3.34,3.34,0,0,0,.78-.13c.34-.08.53-.17.56-.26a5.46,5.46,0,0,0,.15-1.37v-8.07a1.45,1.45,0,0,0-.3-1,1.15,1.15,0,0,0-.54-.32,2,2,0,0,0-.53-.09c-.14,0-.21,0-.21,0,0-.31,0-.48.13-.49a29.05,29.05,0,0,0,3-.51l.11,0s.06,0,.06.11a1.42,1.42,0,0,1,0,.27c0,.1,0,.16,0,.17v.12a5.31,5.31,0,0,1,1-.44A4.06,4.06,0,0,1,211.85,943.09Zm-.7,1a1.88,1.88,0,0,0-1.12.32,1.08,1.08,0,0,0-.44.93v4.4a1,1,0,0,0,.64.88,2.64,2.64,0,0,0,1.38.37,2.44,2.44,0,0,0,2.07-1,3.81,3.81,0,0,0,.77-2.32,3.44,3.44,0,0,0-1-2.59A3.23,3.23,0,0,0,211.15,944.05Z"/><path class="cls-13" d="M222.92,943a3.86,3.86,0,0,1,1.65.33c.1,0,.15-.12.15-.35v-2.11a5.57,5.57,0,0,0-.13-1.25c-.07-.21-.45-.31-1.12-.31h-.2c-.09,0-.13-.08-.13-.22s0-.31.13-.31c.44,0,.85-.09,1.22-.16a7.87,7.87,0,0,0,.88-.19l.54-.19.33-.15.09-.05h0a.24.24,0,0,1,.18.1.53.53,0,0,1,.11.21,4.83,4.83,0,0,0-.24,1.7v8.79a6.46,6.46,0,0,0,.13,1.48.41.41,0,0,0,.24.22,1.43,1.43,0,0,0,.41.09,2.75,2.75,0,0,0,.4,0l.2,0s.07.09.07.24-.05.29-.13.29a7.23,7.23,0,0,0-.74.08l-.77.12-.67.14-.51.13-.2,0c-.08,0-.13-.11-.13-.33v-.24c0-.08,0-.1-.09-.08a5.19,5.19,0,0,1-2.33.61,4.37,4.37,0,0,1-3.06-1.15,3.66,3.66,0,0,1-1.23-2.76,4.46,4.46,0,0,1,1.51-3.33A4.78,4.78,0,0,1,222.92,943Zm-.29.82a2.33,2.33,0,0,0-2,1,4,4,0,0,0-.73,2.37,3.79,3.79,0,0,0,.86,2.47,2.93,2.93,0,0,0,2.38,1,2,2,0,0,0,1.16-.3,1,1,0,0,0,.42-.81V945a1,1,0,0,0-.49-.77A2.76,2.76,0,0,0,222.63,943.84Z"/><path class="cls-13" d="M233.26,943.09a2.43,2.43,0,0,1,1.73.52,2.23,2.23,0,0,1,.53,1.67v4.51a1,1,0,0,0,.24.69.84.84,0,0,0,.66.27,1.62,1.62,0,0,0,.77-.27q.09,0,.09.15a.71.71,0,0,1-.11.41,2.72,2.72,0,0,1-1.54.69,1.57,1.57,0,0,1-1-.37,2.11,2.11,0,0,1-.63-.78s-.07,0-.17.12a3.69,3.69,0,0,1-.38.29c-.17.12-.35.23-.56.35a4.35,4.35,0,0,1-.75.29,3.26,3.26,0,0,1-.87.12,2.75,2.75,0,0,1-1.67-.48,1.66,1.66,0,0,1-.66-1.44,1.52,1.52,0,0,1,.24-.81,2.27,2.27,0,0,1,.57-.62,4.51,4.51,0,0,1,.9-.5,8.27,8.27,0,0,1,1-.38l1.07-.32c.44-.13.75-.23.92-.3a.27.27,0,0,0,.2-.29v-1.46a1.17,1.17,0,0,0-.44-1,1.66,1.66,0,0,0-1.06-.34,1.57,1.57,0,0,0-1.1.4,1.34,1.34,0,0,0-.44,1q0,.69-.9.69a1,1,0,0,1-.86-.38c0-.56.47-1.11,1.39-1.67A5.44,5.44,0,0,1,233.26,943.09Zm-2.07,7.26a1.55,1.55,0,0,0,1,.28,2.19,2.19,0,0,0,1.14-.32c.37-.21.55-.43.55-.65v-2c-.12.05-.4.14-.86.27s-.81.24-1.07.34a2.32,2.32,0,0,0-.74.49,1,1,0,0,0-.37.79A1,1,0,0,0,231.19,950.35Z"/><path class="cls-13" d="M239.17,944.31H237.9c-.08,0-.11-.14-.11-.41,0-.08,0-.13,0-.14a4.18,4.18,0,0,0,1.38-1,5.54,5.54,0,0,0,.48-.57c.15-.22.28-.4.38-.56a2,2,0,0,0,.16-.25q.66,0,.66.09v1.94h3a.15.15,0,0,1,.17.17,1.52,1.52,0,0,1-.22.75h-2.92v4.78a1.73,1.73,0,0,0,.45,1.25,1.56,1.56,0,0,0,1.17.47,2.91,2.91,0,0,0,1.37-.37s.11,0,.2.16.12.22.11.23a3.54,3.54,0,0,1-1,.61,3.28,3.28,0,0,1-1.4.31,2.69,2.69,0,0,1-1.84-.65,2.31,2.31,0,0,1-.74-1.83Z"/><path class="cls-13" d="M249.49,943.09a4.31,4.31,0,0,1,1.78.35,2.86,2.86,0,0,1,1.18.88,3.64,3.64,0,0,1,.59,1.09,3.31,3.31,0,0,1,.19,1.1c0,.26,0,.42-.13.48a1,1,0,0,1-.51.09h-5.54c-.12,0-.18,0-.18.1a3.5,3.5,0,0,0,.84,2.26,2.92,2.92,0,0,0,2.42,1,5,5,0,0,0,.88-.08,4.48,4.48,0,0,0,.71-.19,4.42,4.42,0,0,0,.51-.21,2.87,2.87,0,0,0,.36-.21l.16-.09c.08,0,.13.08.13.25a.72.72,0,0,1-.13.35,4.27,4.27,0,0,1-3.17,1.43,4.47,4.47,0,0,1-3.14-1.22,3.94,3.94,0,0,1-1.31-3,4.2,4.2,0,0,1,4.36-4.44Zm-.22.73a2,2,0,0,0-1.75.87,2.73,2.73,0,0,0-.6,1.43c0,.09,0,.14.13.14h4.29c.07,0,.11-.07.11-.2a2.53,2.53,0,0,0-.6-1.43A1.85,1.85,0,0,0,249.27,943.82Z"/><path class="cls-13" d="M259.52,943a3.86,3.86,0,0,1,1.65.33c.1,0,.15-.12.15-.35v-2.11a5.57,5.57,0,0,0-.13-1.25c-.07-.21-.45-.31-1.12-.31h-.2c-.09,0-.13-.08-.13-.22s0-.31.13-.31c.44,0,.85-.09,1.22-.16a7.39,7.39,0,0,0,.88-.19l.54-.19.33-.15.09-.05h0a.24.24,0,0,1,.18.1.53.53,0,0,1,.11.21,4.83,4.83,0,0,0-.24,1.7v8.79a6.46,6.46,0,0,0,.13,1.48.41.41,0,0,0,.24.22,1.43,1.43,0,0,0,.41.09,2.82,2.82,0,0,0,.41,0l.19,0c.05,0,.07.09.07.24s-.05.29-.13.29-.47,0-.74.08l-.77.12-.67.14-.51.13-.19,0c-.09,0-.14-.11-.14-.33v-.24c0-.08,0-.1-.08-.08a5.26,5.26,0,0,1-2.34.61,4.33,4.33,0,0,1-3-1.15,3.63,3.63,0,0,1-1.24-2.76,4.5,4.5,0,0,1,1.51-3.33A4.8,4.8,0,0,1,259.52,943Zm-.29.82a2.34,2.34,0,0,0-2,1,4,4,0,0,0-.72,2.37,3.78,3.78,0,0,0,.85,2.47,2.94,2.94,0,0,0,2.38,1,2,2,0,0,0,1.17-.3,1,1,0,0,0,.41-.81V945a1,1,0,0,0-.49-.77A2.76,2.76,0,0,0,259.23,943.84Z"/><path class="cls-13" d="M266.39,951.54a1.07,1.07,0,0,1-.38-.81,1,1,0,0,1,.38-.79,1.41,1.41,0,0,1,.92-.32,1.31,1.31,0,0,1,.89.32,1,1,0,0,1,.36.79,1.09,1.09,0,0,1-.36.81,1.24,1.24,0,0,1-.89.34A1.33,1.33,0,0,1,266.39,951.54Z"/><path class="cls-13" d="M142.63,972a11,11,0,0,1-.31,1.49,3.7,3.7,0,0,1-.44,1.34,11.84,11.84,0,0,1-5.25.86,6.94,6.94,0,0,1-4.94-1.9,5.94,5.94,0,0,1-2-4.51,6.32,6.32,0,0,1,2.09-4.75,7.13,7.13,0,0,1,5.13-2,31,31,0,0,1,5.34.49c0,1.75,0,2.68,0,2.81s-.16.3-.46.3a.34.34,0,0,1-.29-.1c0-.17-.1-.34-.16-.52a3.4,3.4,0,0,0-.42-.68,3.11,3.11,0,0,0-.77-.72,4.21,4.21,0,0,0-1.28-.53,7.07,7.07,0,0,0-1.86-.23,4.78,4.78,0,0,0-3.67,1.69,5.58,5.58,0,0,0-1.52,3.82,6.81,6.81,0,0,0,.62,2.91,5.25,5.25,0,0,0,1.94,2.2,5.65,5.65,0,0,0,3.16.87,4.68,4.68,0,0,0,3.37-1.14,2.75,2.75,0,0,0,.54-.77c.15-.32.27-.58.35-.8s.14-.32.18-.32a1.33,1.33,0,0,1,.32,0,2,2,0,0,1,.3.08Z"/><path class="cls-13" d="M148.26,967.09a2.44,2.44,0,0,1,1.74.52,2.28,2.28,0,0,1,.53,1.67v4.51a1,1,0,0,0,.24.69.84.84,0,0,0,.66.27,1.65,1.65,0,0,0,.77-.27q.09,0,.09.15a.71.71,0,0,1-.11.41,2.74,2.74,0,0,1-1.54.69,1.57,1.57,0,0,1-1-.37,2.14,2.14,0,0,1-.64-.78.69.69,0,0,0-.16.12,4,4,0,0,1-.39.29,5.48,5.48,0,0,1-.56.35,3.79,3.79,0,0,1-.75.29,3.15,3.15,0,0,1-.87.12,2.77,2.77,0,0,1-1.67-.48,1.66,1.66,0,0,1-.66-1.44,1.52,1.52,0,0,1,.24-.81,2.47,2.47,0,0,1,.58-.62,4.51,4.51,0,0,1,.9-.5,8.27,8.27,0,0,1,1-.38l1.06-.32q.66-.19.93-.3a.27.27,0,0,0,.2-.29v-1.46a1.17,1.17,0,0,0-.44-1,1.68,1.68,0,0,0-1.06-.34,1.55,1.55,0,0,0-1.1.4,1.34,1.34,0,0,0-.44,1q0,.69-.9.69a1,1,0,0,1-.86-.38c0-.56.46-1.11,1.39-1.67A5.43,5.43,0,0,1,148.26,967.09Zm-2.07,7.26a1.57,1.57,0,0,0,1,.28,2.2,2.2,0,0,0,1.15-.32c.36-.21.55-.43.55-.65v-2c-.12.05-.41.14-.86.27s-.81.24-1.07.34a2.25,2.25,0,0,0-.75.49,1.06,1.06,0,0,0-.36.79A1,1,0,0,0,146.19,974.35Z"/><path class="cls-13" d="M159.5,967.06a2.35,2.35,0,0,1,2.16,1,6.19,6.19,0,0,1,.61,3.17V973a6.41,6.41,0,0,0,.18,1.74q0,.13.57.27a3.89,3.89,0,0,0,.75.12s.07.08.09.24a1,1,0,0,1,0,.33l-2.36-.1-2.31.1a.42.42,0,0,1-.09-.32c0-.17,0-.25.09-.25a3.25,3.25,0,0,0,.74-.12c.31-.09.49-.18.52-.27a5.41,5.41,0,0,0,.15-1.37v-2a4.19,4.19,0,0,0-.53-2.48,2.06,2.06,0,0,0-1.71-.66,2.32,2.32,0,0,0-1.36.46c-.43.3-.65.58-.65.83V973a6.41,6.41,0,0,0,.18,1.74q0,.13.57.27a3.89,3.89,0,0,0,.75.12s.07.08.09.24a1,1,0,0,1,0,.33l-2.36-.1-2.4.1a.48.48,0,0,1-.08-.32c0-.17,0-.25.08-.25a3.87,3.87,0,0,0,.79-.12c.34-.09.53-.18.56-.27a5.41,5.41,0,0,0,.15-1.37v-3.69a1.4,1.4,0,0,0-.31-1,1,1,0,0,0-.54-.32,2,2,0,0,0-.52-.09c-.14,0-.21,0-.21,0,0-.31,0-.48.13-.49a29.2,29.2,0,0,0,3-.51.28.28,0,0,0,.11,0c.06,0,.1.06.11.17a.47.47,0,0,1,0,.24,7.06,7.06,0,0,0-.08.79s0,.07,0,.07,0,0,.07,0a5.5,5.5,0,0,1,1.37-.88A3.81,3.81,0,0,1,159.5,967.06Z"/><path class="cls-13" d="M171.45,967.06a2.34,2.34,0,0,1,2.15,1,6.17,6.17,0,0,1,.62,3.17V973a6.92,6.92,0,0,0,.17,1.74c0,.09.22.18.58.27a3.94,3.94,0,0,0,.74.12s.08.08.09.24a.66.66,0,0,1,0,.33l-2.35-.1-2.31.1a.42.42,0,0,1-.09-.32c0-.17,0-.25.09-.25a3.18,3.18,0,0,0,.73-.12c.32-.09.49-.18.52-.27a5.41,5.41,0,0,0,.15-1.37v-2a4.2,4.2,0,0,0-.52-2.48,2.09,2.09,0,0,0-1.72-.66,2.27,2.27,0,0,0-1.35.46c-.43.3-.65.58-.65.83V973a6.41,6.41,0,0,0,.18,1.74q0,.13.57.27a3.94,3.94,0,0,0,.74.12s.08.08.09.24a.66.66,0,0,1,0,.33l-2.35-.1-2.4.1a.42.42,0,0,1-.09-.32c0-.17,0-.25.09-.25a3.7,3.7,0,0,0,.78-.12c.34-.09.53-.18.56-.27a5.37,5.37,0,0,0,.16-1.37v-3.69a1.45,1.45,0,0,0-.31-1,1.07,1.07,0,0,0-.54-.32,2,2,0,0,0-.53-.09c-.14,0-.21,0-.21,0,0-.31,0-.48.13-.49a29.05,29.05,0,0,0,3-.51l.11,0c.06,0,.09.06.11.17a.93.93,0,0,1,0,.24,5.64,5.64,0,0,0-.09.79s0,.07,0,.07,0,0,.07,0a5.77,5.77,0,0,1,1.38-.88A3.78,3.78,0,0,1,171.45,967.06Z"/><path class="cls-13" d="M181.89,967.08a4.91,4.91,0,0,1,3.39,1.26,4,4,0,0,1,1.41,3,4,4,0,0,1-1.38,3.08,4.77,4.77,0,0,1-3.37,1.28,4.9,4.9,0,0,1-3.41-1.28,4.1,4.1,0,0,1-.05-6.14A4.83,4.83,0,0,1,181.89,967.08Zm-.24.76a2.29,2.29,0,0,0-1.9.94,3.7,3.7,0,0,0-.74,2.32,4.14,4.14,0,0,0,.94,2.74,2.77,2.77,0,0,0,2.19,1.15,2.32,2.32,0,0,0,1.91-1,3.73,3.73,0,0,0,.75-2.35,4.06,4.06,0,0,0-1-2.7A2.8,2.8,0,0,0,181.65,967.84Z"/><path class="cls-13" d="M189.29,968.31H188c-.07,0-.11-.14-.11-.41a.3.3,0,0,1,0-.14,4.21,4.21,0,0,0,1.39-1,5.49,5.49,0,0,0,.47-.57l.39-.56.15-.25q.66,0,.66.09v1.94h3a.15.15,0,0,1,.17.17,1.52,1.52,0,0,1-.22.75H191v4.78a1.73,1.73,0,0,0,.45,1.25,1.57,1.57,0,0,0,1.18.47,2.87,2.87,0,0,0,1.36-.37s.11,0,.2.16.12.22.11.23a3.61,3.61,0,0,1-1,.61,3.36,3.36,0,0,1-1.41.31,2.7,2.7,0,0,1-1.84-.65,2.3,2.3,0,0,1-.73-1.83Z"/><path class="cls-13" d="M205.1,967.06a4.32,4.32,0,0,1,3.31,1.27,4,4,0,0,1,1.2,2.73,4.3,4.3,0,0,1-1.55,3.26,5,5,0,0,1-3.42,1.41,8.61,8.61,0,0,1-1.55-.13c-.49-.08-.78-.13-.85-.13a1.52,1.52,0,0,0-.49.11l-.35.11a1,1,0,0,1-.27-.06c-.13,0-.19-.09-.19-.14s0-.12.07-.32.09-.5.13-.89a12.8,12.8,0,0,0,.07-1.31v-8.08a5.57,5.57,0,0,0-.14-1.25c-.07-.21-.44-.31-1.12-.31h-.2c-.08,0-.13-.08-.13-.22s0-.31.13-.31c.44,0,.85-.09,1.23-.16a8.41,8.41,0,0,0,.88-.19l.53-.19.33-.15.09-.05h.05a.22.22,0,0,1,.17.1.43.43,0,0,1,.11.21,4.83,4.83,0,0,0-.24,1.7v3.42c0,.14,0,.21.07.21l.06,0a4.49,4.49,0,0,1,.95-.41A3.63,3.63,0,0,1,205.1,967.06Zm-.7,1a1.77,1.77,0,0,0-1.06.31,1,1,0,0,0-.44.86v4.56a.92.92,0,0,0,.65.88,3.7,3.7,0,0,0,1.51.29,2.21,2.21,0,0,0,1.95-1.06,4.17,4.17,0,0,0,.71-2.38,3.47,3.47,0,0,0-.92-2.5A3.15,3.15,0,0,0,204.4,968Z"/><path class="cls-13" d="M215.61,967.09a4.36,4.36,0,0,1,1.79.35,2.83,2.83,0,0,1,1.17.88,3.92,3.92,0,0,1,.6,1.09,3.57,3.57,0,0,1,.18,1.1c0,.26,0,.42-.13.48a1,1,0,0,1-.5.09h-5.55c-.11,0-.17,0-.17.1a3.55,3.55,0,0,0,.83,2.26,2.94,2.94,0,0,0,2.42,1,5,5,0,0,0,.88-.08,4.63,4.63,0,0,0,.72-.19,5,5,0,0,0,.5-.21l.37-.21.15-.09c.09,0,.13.08.13.25a.63.63,0,0,1-.13.35,4,4,0,0,1-1.3,1,4.06,4.06,0,0,1-1.87.44,4.45,4.45,0,0,1-3.13-1.22,3.94,3.94,0,0,1-1.31-3,4.26,4.26,0,0,1,1.24-3.24A4.31,4.31,0,0,1,215.61,967.09Zm-.22.73a2,2,0,0,0-1.74.87,2.68,2.68,0,0,0-.61,1.43.12.12,0,0,0,.13.14h4.29c.08,0,.11-.07.11-.2a2.58,2.58,0,0,0-.59-1.43A1.88,1.88,0,0,0,215.39,967.82Z"/><path class="cls-13" d="M232,967.06a2.43,2.43,0,0,1,1.46.42,2.28,2.28,0,0,1,.81,1,5.26,5.26,0,0,1,3.41-1.38c1.84,0,2.77,1.25,2.77,3.75V973a6.92,6.92,0,0,0,.17,1.74q0,.13.57.27a4.13,4.13,0,0,0,.75.12q.08,0,.09.24a.66.66,0,0,1,0,.33l-2.36-.1-2.39.1a.42.42,0,0,1-.09-.32c0-.17,0-.25.09-.25A3.89,3.89,0,0,0,238,975c.34-.09.53-.18.56-.27a4.87,4.87,0,0,0,.15-1.25v-2.21q0-3-2.22-3a2.4,2.4,0,0,0-1.41.42c-.39.28-.59.51-.59.69l0,.08v.1a8.18,8.18,0,0,1,.09,1.4v2.21a5.57,5.57,0,0,0,.18,1.56q0,.13.57.27a3.89,3.89,0,0,0,.75.12s.07.08.08.24a.66.66,0,0,1,0,.33l-2.35-.1-2.4.1a.42.42,0,0,1-.09-.32c0-.17,0-.25.09-.25a3.7,3.7,0,0,0,.78-.12c.35-.09.53-.18.56-.27a5,5,0,0,0,.16-1.37v-2c0-2.07-.71-3.1-2.12-3.1a2.39,2.39,0,0,0-1.33.44c-.44.29-.67.57-.67.85V973a6.41,6.41,0,0,0,.18,1.74q0,.13.57.27a3.89,3.89,0,0,0,.75.12s.07.08.09.24a1,1,0,0,1,0,.33l-2.36-.1-2.4.1c-.06,0-.08-.16-.08-.32s0-.25.08-.25a3.7,3.7,0,0,0,.78-.12c.35-.09.54-.18.56-.27a5,5,0,0,0,.16-1.37v-3.69a1.4,1.4,0,0,0-.31-1,1.07,1.07,0,0,0-.54-.32,2,2,0,0,0-.53-.09c-.14,0-.2,0-.2,0,0-.31,0-.48.13-.49a29.2,29.2,0,0,0,3-.51l.11,0c.06,0,.1.06.11.17a.47.47,0,0,1,0,.24,5.24,5.24,0,0,0-.08.79s0,.07,0,.07a.09.09,0,0,0,.06,0,5.77,5.77,0,0,1,1.38-.88A3.81,3.81,0,0,1,232,967.06Z"/><path class="cls-13" d="M247.69,967.09a2.43,2.43,0,0,1,1.73.52,2.23,2.23,0,0,1,.53,1.67v4.51a1,1,0,0,0,.24.69.84.84,0,0,0,.66.27,1.62,1.62,0,0,0,.77-.27q.09,0,.09.15a.71.71,0,0,1-.11.41,2.72,2.72,0,0,1-1.54.69,1.57,1.57,0,0,1-1-.37,2.11,2.11,0,0,1-.63-.78s-.07,0-.17.12a3.69,3.69,0,0,1-.38.29,5.69,5.69,0,0,1-.57.35,3.94,3.94,0,0,1-.74.29,3.26,3.26,0,0,1-.87.12,2.75,2.75,0,0,1-1.67-.48,1.66,1.66,0,0,1-.66-1.44,1.52,1.52,0,0,1,.24-.81,2.27,2.27,0,0,1,.57-.62,4.51,4.51,0,0,1,.9-.5,8.27,8.27,0,0,1,1-.38l1.07-.32c.44-.13.75-.23.92-.3a.27.27,0,0,0,.2-.29v-1.46a1.17,1.17,0,0,0-.44-1,1.66,1.66,0,0,0-1.06-.34,1.57,1.57,0,0,0-1.1.4,1.34,1.34,0,0,0-.44,1q0,.69-.9.69a1,1,0,0,1-.86-.38c0-.56.47-1.11,1.39-1.67A5.44,5.44,0,0,1,247.69,967.09Zm-2.07,7.26a1.55,1.55,0,0,0,1,.28,2.19,2.19,0,0,0,1.14-.32c.37-.21.55-.43.55-.65v-2c-.12.05-.4.14-.86.27s-.81.24-1.07.34a2.32,2.32,0,0,0-.74.49,1,1,0,0,0-.37.79A1,1,0,0,0,245.62,974.35Z"/><path class="cls-13" d="M258.93,967.06a2.34,2.34,0,0,1,2.15,1,6.17,6.17,0,0,1,.62,3.17V973a6.92,6.92,0,0,0,.17,1.74c0,.09.22.18.58.27a3.94,3.94,0,0,0,.74.12q.07,0,.09.24a.8.8,0,0,1,0,.33l-2.35-.1-2.31.1a.42.42,0,0,1-.09-.32c0-.17,0-.25.09-.25a3.18,3.18,0,0,0,.73-.12c.32-.09.49-.18.52-.27a5.41,5.41,0,0,0,.15-1.37v-2a4.2,4.2,0,0,0-.52-2.48,2.09,2.09,0,0,0-1.72-.66,2.27,2.27,0,0,0-1.35.46c-.44.3-.65.58-.65.83V973a6.92,6.92,0,0,0,.17,1.74c0,.09.22.18.58.27a3.94,3.94,0,0,0,.74.12q.08,0,.09.24a.66.66,0,0,1,0,.33l-2.35-.1-2.4.1a.42.42,0,0,1-.09-.32c0-.17,0-.25.09-.25a3.8,3.8,0,0,0,.78-.12c.34-.09.53-.18.56-.27a5.41,5.41,0,0,0,.15-1.37v-3.69a1.45,1.45,0,0,0-.3-1,1.07,1.07,0,0,0-.54-.32,2.08,2.08,0,0,0-.53-.09c-.14,0-.21,0-.21,0,0-.31,0-.48.13-.49a29.05,29.05,0,0,0,3-.51l.11,0c.06,0,.09.06.11.17a.93.93,0,0,1,0,.24,5.64,5.64,0,0,0-.09.79s0,.07,0,.07,0,0,.07,0a5.9,5.9,0,0,1,1.37-.88A3.85,3.85,0,0,1,258.93,967.06Z"/><path class="cls-13" d="M267.77,973a6.92,6.92,0,0,0,.17,1.74c0,.09.22.18.58.27a3.94,3.94,0,0,0,.74.12q.08,0,.09.24a.66.66,0,0,1,0,.33l-2.35-.1-2.4.1a.42.42,0,0,1-.09-.32c0-.17,0-.25.09-.25a3.89,3.89,0,0,0,.78-.12c.34-.09.53-.18.56-.27a5.37,5.37,0,0,0,.16-1.37v-3.69a1.45,1.45,0,0,0-.31-1,1.07,1.07,0,0,0-.54-.32,2.08,2.08,0,0,0-.53-.09c-.14,0-.21,0-.21,0,0-.31.05-.48.13-.49a29.05,29.05,0,0,0,3-.51l0,0h.07c.06,0,.09.06.11.17a.93.93,0,0,1,0,.24,9.25,9.25,0,0,0-.11,1.41ZM266,964.72a.91.91,0,0,1,0-1.39,1.16,1.16,0,0,1,.78-.28,1.18,1.18,0,0,1,.78.28.91.91,0,0,1,0,1.39,1.13,1.13,0,0,1-.78.28A1.12,1.12,0,0,1,266,964.72Z"/><path class="cls-13" d="M275.62,967.09a4.31,4.31,0,0,1,3.3,1.26,3.89,3.89,0,0,1,1.19,2.69,4.44,4.44,0,0,1-1.48,3.3,4.67,4.67,0,0,1-3.34,1.43l-.58,0-.45-.07-.31-.09-.29-.11-.22-.08a.33.33,0,0,0-.08.25v1.68a6.58,6.58,0,0,0,.17,1.74c0,.09.22.18.57.26a3.49,3.49,0,0,0,.75.13s.07.08.09.24a.68.68,0,0,1,0,.32l-2.36-.09-2.39.09c-.06,0-.09-.15-.09-.32s0-.24.09-.24a3.42,3.42,0,0,0,.78-.13c.34-.08.53-.17.56-.26a5.46,5.46,0,0,0,.15-1.37v-8.07a1.4,1.4,0,0,0-.31-1,1.06,1.06,0,0,0-.54-.32,2,2,0,0,0-.52-.09c-.14,0-.21,0-.21,0,0-.31,0-.48.13-.49a29.58,29.58,0,0,0,3-.51l.11,0s.06,0,.06.11,0,.16,0,.27a.88.88,0,0,0,0,.17v.12a4.79,4.79,0,0,1,1-.44A4,4,0,0,1,275.62,967.09Zm-.7,1a1.86,1.86,0,0,0-1.12.32,1.08,1.08,0,0,0-.44.93v4.4a1,1,0,0,0,.63.88,2.71,2.71,0,0,0,1.39.37,2.47,2.47,0,0,0,2.07-1,3.81,3.81,0,0,0,.77-2.32,3.44,3.44,0,0,0-1-2.59A3.23,3.23,0,0,0,274.92,968.05Z"/><path class="cls-13" d="M290.51,969v3.91a6,6,0,0,0,.16,1.48.41.41,0,0,0,.24.22,1.43,1.43,0,0,0,.42.09,3.17,3.17,0,0,0,.44,0l.19,0c.05,0,.07.09.07.22a.62.62,0,0,1,0,.18c0,.09-.08.13-.13.13-.22,0-.46,0-.73.08s-.53.08-.76.13l-.66.16-.49.14-.19,0c-.12,0-.18-.11-.18-.32v-1l0-.1a4.27,4.27,0,0,1-2.88,1.39,2.6,2.6,0,0,1-1.4-.36,2.21,2.21,0,0,1-.86-1,5.16,5.16,0,0,1-.38-1.15,5.53,5.53,0,0,1-.11-1.17v-2.46a1.45,1.45,0,0,0-.31-1,1.07,1.07,0,0,0-.54-.32,2,2,0,0,0-.53-.09c-.14,0-.21,0-.21,0,0-.31.05-.48.13-.49a29.05,29.05,0,0,0,3-.51l.11,0c.06,0,.1.06.11.17a.93.93,0,0,1,0,.24,10.84,10.84,0,0,0-.13,1.45v2.64a3.9,3.9,0,0,0,.5,2.21,1.88,1.88,0,0,0,1.65.72,2.08,2.08,0,0,0,1.26-.46c.39-.31.59-.57.59-.79v-3.66a1.4,1.4,0,0,0-.31-1,1,1,0,0,0-.54-.32,2,2,0,0,0-.52-.09c-.14,0-.21,0-.21,0,0-.31,0-.48.13-.49a28.69,28.69,0,0,0,3-.51l.12,0s.09.06.1.17a.47.47,0,0,1,0,.24A12.91,12.91,0,0,0,290.51,969Z"/><path class="cls-13" d="M294.23,973.34v-8.45a5.57,5.57,0,0,0-.13-1.25c-.08-.21-.45-.31-1.12-.31h-.2c-.09,0-.13-.08-.13-.22s0-.31.13-.31c.44,0,.85-.09,1.22-.16a7.87,7.87,0,0,0,.88-.19l.54-.19.33-.15.09-.05h0a.24.24,0,0,1,.18.1.71.71,0,0,1,.11.21,4.59,4.59,0,0,0-.25,1.7V973a6.41,6.41,0,0,0,.18,1.74q0,.13.57.27a3.89,3.89,0,0,0,.75.12s.07.08.09.24a1,1,0,0,1,0,.33l-2.36-.1-2.4.1a.48.48,0,0,1-.08-.32c0-.17,0-.25.08-.25a3.87,3.87,0,0,0,.79-.12c.34-.09.53-.18.56-.27A5.41,5.41,0,0,0,294.23,973.34Z"/><path class="cls-13" d="M303,967.09a2.44,2.44,0,0,1,1.74.52,2.28,2.28,0,0,1,.53,1.67v4.51a1,1,0,0,0,.24.69.84.84,0,0,0,.66.27,1.62,1.62,0,0,0,.77-.27q.09,0,.09.15a.71.71,0,0,1-.11.41,2.72,2.72,0,0,1-1.54.69,1.57,1.57,0,0,1-1-.37,2.14,2.14,0,0,1-.64-.78.69.69,0,0,0-.16.12,3,3,0,0,1-.39.29,4.56,4.56,0,0,1-.56.35,3.94,3.94,0,0,1-.74.29,3.26,3.26,0,0,1-.87.12,2.78,2.78,0,0,1-1.68-.48,1.69,1.69,0,0,1-.66-1.44,1.54,1.54,0,0,1,.25-.81,2.27,2.27,0,0,1,.57-.62,4.51,4.51,0,0,1,.9-.5,8.27,8.27,0,0,1,1-.38l1.07-.32c.44-.13.74-.23.92-.3a.27.27,0,0,0,.2-.29v-1.46a1.17,1.17,0,0,0-.44-1,1.68,1.68,0,0,0-1.06-.34,1.57,1.57,0,0,0-1.1.4,1.34,1.34,0,0,0-.44,1q0,.69-.9.69a1,1,0,0,1-.86-.38c0-.56.47-1.11,1.39-1.67A5.43,5.43,0,0,1,303,967.09Zm-2.06,7.26a1.54,1.54,0,0,0,1,.28,2.2,2.2,0,0,0,1.15-.32c.36-.21.55-.43.55-.65v-2c-.12.05-.41.14-.86.27s-.81.24-1.07.34a2.32,2.32,0,0,0-.74.49,1,1,0,0,0-.37.79A1,1,0,0,0,300.92,974.35Z"/><path class="cls-13" d="M308.9,968.31h-1.27c-.08,0-.11-.14-.11-.41,0-.08,0-.13,0-.14a4.29,4.29,0,0,0,1.38-1,5.54,5.54,0,0,0,.48-.57c.15-.22.28-.4.38-.56l.16-.25c.44,0,.65,0,.65.09v1.94h3c.12,0,.18.06.18.17a1.52,1.52,0,0,1-.22.75h-2.93v4.78a1.73,1.73,0,0,0,.46,1.25,1.56,1.56,0,0,0,1.17.47,2.91,2.91,0,0,0,1.37-.37s.11,0,.19.16.13.22.11.23a3.47,3.47,0,0,1-1,.61,3.29,3.29,0,0,1-1.41.31,2.68,2.68,0,0,1-1.83-.65,2.31,2.31,0,0,1-.74-1.83Z"/><path class="cls-13" d="M319.22,967.09a4.31,4.31,0,0,1,1.78.35,2.86,2.86,0,0,1,1.18.88,3.64,3.64,0,0,1,.59,1.09,3.58,3.58,0,0,1,.19,1.1c0,.26,0,.42-.13.48a1,1,0,0,1-.51.09h-5.54c-.12,0-.18,0-.18.1a3.5,3.5,0,0,0,.84,2.26,2.92,2.92,0,0,0,2.42,1,5.05,5.05,0,0,0,.88-.08,4.8,4.8,0,0,0,.71-.19A4.42,4.42,0,0,0,322,974a2.87,2.87,0,0,0,.36-.21l.15-.09c.09,0,.14.08.14.25a.66.66,0,0,1-.14.35,3.92,3.92,0,0,1-1.29,1,4.12,4.12,0,0,1-1.87.44,4.45,4.45,0,0,1-3.14-1.22,3.94,3.94,0,0,1-1.31-3,4.2,4.2,0,0,1,4.36-4.44Zm-.22.73a2,2,0,0,0-1.75.87,2.77,2.77,0,0,0-.61,1.43.13.13,0,0,0,.14.14h4.29c.07,0,.11-.07.11-.2a2.53,2.53,0,0,0-.6-1.43A1.85,1.85,0,0,0,319,967.82Z"/><path class="cls-13" d="M329.25,967a3.86,3.86,0,0,1,1.65.33c.1,0,.15-.12.15-.35v-2.11a5.57,5.57,0,0,0-.13-1.25c-.07-.21-.45-.31-1.12-.31h-.2c-.09,0-.13-.08-.13-.22s0-.31.13-.31c.44,0,.85-.09,1.22-.16a7.87,7.87,0,0,0,.88-.19l.54-.19.33-.15.09-.05h0a.24.24,0,0,1,.18.1.53.53,0,0,1,.11.21,4.83,4.83,0,0,0-.24,1.7v8.79a6.46,6.46,0,0,0,.13,1.48.41.41,0,0,0,.24.22,1.43,1.43,0,0,0,.41.09,2.75,2.75,0,0,0,.4,0l.2,0s.07.09.07.24-.05.29-.13.29a7.23,7.23,0,0,0-.74.08l-.77.12-.67.14-.51.13-.2,0c-.08,0-.13-.11-.13-.33v-.24c0-.08,0-.1-.09-.08a5.19,5.19,0,0,1-2.33.61,4.37,4.37,0,0,1-3.06-1.15,3.66,3.66,0,0,1-1.23-2.76,4.46,4.46,0,0,1,1.51-3.33A4.78,4.78,0,0,1,329.25,967Zm-.29.82a2.33,2.33,0,0,0-2,1,4,4,0,0,0-.73,2.37,3.79,3.79,0,0,0,.86,2.47,2.93,2.93,0,0,0,2.38,1,2,2,0,0,0,1.16-.3,1,1,0,0,0,.42-.81V969a1,1,0,0,0-.49-.77A2.76,2.76,0,0,0,329,967.84Z"/><path class="cls-13" d="M336.12,975.54a1.07,1.07,0,0,1-.38-.81,1,1,0,0,1,.38-.79,1.41,1.41,0,0,1,.92-.32,1.33,1.33,0,0,1,.89.32,1,1,0,0,1,.36.79,1.09,1.09,0,0,1-.36.81,1.25,1.25,0,0,1-.89.34A1.33,1.33,0,0,1,336.12,975.54Z"/><path class="cls-13" d="M136.71,986.72l4.4,10.31c.27.61.48,1.08.64,1.41a1.14,1.14,0,0,0,.68.48,3,3,0,0,0,.82.18c.05,0,.08.13.08.37a.54.54,0,0,1,0,.2l-2.42-.1-2.55.1a.39.39,0,0,1-.08-.32c0-.17,0-.25.1-.25a2.58,2.58,0,0,0,.66-.1c.26-.06.42-.14.46-.25a1.12,1.12,0,0,0,0-.31,2.92,2.92,0,0,0-.08-.6c-.05-.22-.1-.4-.14-.53l-.09-.22-.9-2.21a.19.19,0,0,0-.13-.07c-.58,0-1.13-.06-1.68-.06q-1.14,0-2.79.09l-.11.06-1,2.15a4.57,4.57,0,0,0-.37,1.35.43.43,0,0,0,.18.39,1.62,1.62,0,0,0,.63.22,3.74,3.74,0,0,0,.64.09c.05,0,.07.08.08.24a1,1,0,0,1,0,.33l-2.27-.1-.77,0-.74,0-.78,0a.37.37,0,0,1-.09-.29c0-.19,0-.28.09-.28a2.78,2.78,0,0,0,.68-.1,1.08,1.08,0,0,0,.58-.27,7.72,7.72,0,0,0,1-1.83l3.83-8.74a2.55,2.55,0,0,0,.12-.31l.12-.32c0-.07.07-.16.13-.27a1.43,1.43,0,0,1,.32-.42.59.59,0,0,1,.22-.14.79.79,0,0,1,.28,0Zm-2.55,7c.76,0,1.28,0,1.56,0q1,0,2-.06l.06-.1L136,989.34l-1.89,4.35S134.13,993.77,134.16,993.77Z"/><path class="cls-13" d="M150.81,991.06a2.35,2.35,0,0,1,2.16,1,6.17,6.17,0,0,1,.62,3.17V997a6.48,6.48,0,0,0,.17,1.74q0,.13.57.27a3.89,3.89,0,0,0,.75.12s.07.08.09.24a.8.8,0,0,1,0,.33l-2.36-.1-2.31.1c-.06,0-.08-.16-.08-.32s0-.25.08-.25a3.25,3.25,0,0,0,.74-.12c.32-.09.49-.18.52-.27a5.41,5.41,0,0,0,.15-1.37v-2a4.19,4.19,0,0,0-.53-2.48,2.06,2.06,0,0,0-1.71-.66,2.32,2.32,0,0,0-1.36.46c-.43.3-.64.58-.64.83V997a6.48,6.48,0,0,0,.17,1.74q0,.13.57.27a4.13,4.13,0,0,0,.75.12c.05,0,.07.08.09.24a.8.8,0,0,1,0,.33l-2.36-.1-2.39.1a.42.42,0,0,1-.09-.32c0-.17,0-.25.09-.25a3.89,3.89,0,0,0,.78-.12c.34-.09.53-.18.56-.27a5.41,5.41,0,0,0,.15-1.37v-3.69a1.4,1.4,0,0,0-.31-1,1,1,0,0,0-.53-.32,2.08,2.08,0,0,0-.53-.09c-.14,0-.21,0-.21,0,0-.31,0-.48.13-.49a29.58,29.58,0,0,0,3-.51l.11,0s.09.06.11.17a.93.93,0,0,1,0,.24,5.64,5.64,0,0,0-.09.79s0,.07,0,.07,0,0,.07,0a5.69,5.69,0,0,1,1.37-.88A3.84,3.84,0,0,1,150.81,991.06Z"/><path class="cls-13" d="M158.18,991.23l.69,0,.73,0,.72,0a1.21,1.21,0,0,1,0,.3q0,.27-.09.27a2.18,2.18,0,0,0-.58.14q-.41.13-.45.27v0a43.19,43.19,0,0,0,2.35,5.1l1.67-4.28a1.81,1.81,0,0,0,.16-.61.55.55,0,0,0-.34-.47,1.88,1.88,0,0,0-.92-.19c-.06,0-.08-.08-.08-.25a.44.44,0,0,1,.08-.32l.86.06c.38,0,.75,0,1.1,0s.67,0,1.06,0l.85-.06a.85.85,0,0,1,.05.3q0,.27-.09.27a2.46,2.46,0,0,0-.78.18,1,1,0,0,0-.65.56l-3.94,9.44a4,4,0,0,1-1.14,1.69,2.05,2.05,0,0,1-1.17.47.86.86,0,0,1-.68-.25.77.77,0,0,1-.22-.51.68.68,0,0,1,.31-.62,2.34,2.34,0,0,0,2.42-1.68l.26-.71c.11-.27.19-.49.25-.66l-3.15-6.84a2.75,2.75,0,0,0-.44-.66,1.52,1.52,0,0,0-.6-.29,2.51,2.51,0,0,0-.65-.12c-.06,0-.09-.08-.09-.25a.44.44,0,0,1,.09-.32Z"/><path class="cls-13" d="M171.25,991.08a4.87,4.87,0,0,1,3.38,1.26,4,4,0,0,1,1.41,3,4.07,4.07,0,0,1-1.37,3.08,4.79,4.79,0,0,1-3.38,1.28,4.91,4.91,0,0,1-3.41-1.28,4.09,4.09,0,0,1,0-6.14A4.82,4.82,0,0,1,171.25,991.08Zm-.25.76a2.3,2.3,0,0,0-1.9.94,3.69,3.69,0,0,0-.73,2.32,4.19,4.19,0,0,0,.93,2.74,2.77,2.77,0,0,0,2.19,1.15,2.31,2.31,0,0,0,1.91-1,3.73,3.73,0,0,0,.75-2.35,4.06,4.06,0,0,0-.94-2.7A2.83,2.83,0,0,0,171,991.84Z"/><path class="cls-13" d="M184,991.06a2.35,2.35,0,0,1,2.16,1,6.19,6.19,0,0,1,.61,3.17V997a6.41,6.41,0,0,0,.18,1.74q0,.13.57.27a3.89,3.89,0,0,0,.75.12s.07.08.09.24a.76.76,0,0,1,0,.33l-2.35-.1-2.31.1a.42.42,0,0,1-.09-.32c0-.17,0-.25.09-.25a3.25,3.25,0,0,0,.74-.12c.31-.09.49-.18.52-.27a5.41,5.41,0,0,0,.15-1.37v-2a4.19,4.19,0,0,0-.53-2.48,2.06,2.06,0,0,0-1.71-.66,2.32,2.32,0,0,0-1.36.46c-.43.3-.65.58-.65.83V997a6.41,6.41,0,0,0,.18,1.74q0,.13.57.27a3.89,3.89,0,0,0,.75.12s.07.08.09.24a1,1,0,0,1,0,.33l-2.36-.1-2.4.1a.48.48,0,0,1-.08-.32c0-.17,0-.25.08-.25a3.87,3.87,0,0,0,.79-.12c.34-.09.53-.18.56-.27a5.41,5.41,0,0,0,.15-1.37v-3.69a1.4,1.4,0,0,0-.31-1,1,1,0,0,0-.54-.32,2,2,0,0,0-.52-.09c-.14,0-.21,0-.21,0,0-.31,0-.48.13-.49a29.2,29.2,0,0,0,3-.51.28.28,0,0,0,.11,0c.06,0,.1.06.11.17a.47.47,0,0,1,0,.24,7.06,7.06,0,0,0-.08.79s0,.07,0,.07,0,0,.07,0a5.5,5.5,0,0,1,1.37-.88A3.81,3.81,0,0,1,184,991.06Z"/><path class="cls-13" d="M194,991.09a4.28,4.28,0,0,1,1.78.35,2.8,2.8,0,0,1,1.18.88,3.64,3.64,0,0,1,.59,1.09,3.31,3.31,0,0,1,.19,1.1c0,.26,0,.42-.13.48a1,1,0,0,1-.51.09h-5.54c-.12,0-.17,0-.17.1a3.49,3.49,0,0,0,.83,2.26,2.93,2.93,0,0,0,2.42,1,5,5,0,0,0,.88-.08,4.21,4.21,0,0,0,.71-.19,4.42,4.42,0,0,0,.51-.21,2.87,2.87,0,0,0,.36-.21l.16-.09c.09,0,.13.08.13.25a.63.63,0,0,1-.13.35,4.27,4.27,0,0,1-3.17,1.43,4.43,4.43,0,0,1-3.13-1.22,3.91,3.91,0,0,1-1.31-3,4.26,4.26,0,0,1,1.24-3.24A4.31,4.31,0,0,1,194,991.09Zm-.22.73a2,2,0,0,0-1.75.87,2.73,2.73,0,0,0-.6,1.43c0,.09,0,.14.13.14h4.29c.07,0,.11-.07.11-.2a2.58,2.58,0,0,0-.59-1.43A1.88,1.88,0,0,0,193.77,991.82Z"/><path class="cls-13" d="M208.4,991.09a4.47,4.47,0,0,1,3.34,1c0,.87-.27,1.31-.81,1.31a.92.92,0,0,1-.57-.15,2.91,2.91,0,0,1-.51-.53,2,2,0,0,0-1.63-.9,2.21,2.21,0,0,0-1.63.76,3.09,3.09,0,0,0-.74,2.26,3.89,3.89,0,0,0,.87,2.6,3,3,0,0,0,2.41,1,4.85,4.85,0,0,0,.87-.08,4.63,4.63,0,0,0,.72-.19,4.42,4.42,0,0,0,.51-.21,2.87,2.87,0,0,0,.36-.21l.15-.09c.09,0,.14.08.14.25a.66.66,0,0,1-.14.35,3.92,3.92,0,0,1-1.29,1,4.12,4.12,0,0,1-1.87.44,4.45,4.45,0,0,1-3.14-1.22,3.94,3.94,0,0,1-1.31-3,4.74,4.74,0,0,1,1.1-3.12A3.89,3.89,0,0,1,208.4,991.09Z"/><path class="cls-13" d="M217.38,991.09a2.43,2.43,0,0,1,1.73.52,2.28,2.28,0,0,1,.53,1.67v4.51a1,1,0,0,0,.24.69.84.84,0,0,0,.66.27,1.62,1.62,0,0,0,.77-.27q.09,0,.09.15a.71.71,0,0,1-.11.41,2.72,2.72,0,0,1-1.54.69,1.57,1.57,0,0,1-1-.37,2.14,2.14,0,0,1-.64-.78l-.16.12a3,3,0,0,1-.39.29,4.56,4.56,0,0,1-.56.35,3.94,3.94,0,0,1-.74.29,3.26,3.26,0,0,1-.87.12,2.75,2.75,0,0,1-1.67-.48,1.66,1.66,0,0,1-.66-1.44,1.52,1.52,0,0,1,.24-.81,2.27,2.27,0,0,1,.57-.62,4.51,4.51,0,0,1,.9-.5,8.27,8.27,0,0,1,1-.38l1.07-.32c.44-.13.74-.23.92-.3a.27.27,0,0,0,.2-.29v-1.46a1.17,1.17,0,0,0-.44-1,1.66,1.66,0,0,0-1.06-.34,1.57,1.57,0,0,0-1.1.4,1.34,1.34,0,0,0-.44,1q0,.69-.9.69a1,1,0,0,1-.86-.38c0-.56.47-1.11,1.39-1.67A5.44,5.44,0,0,1,217.38,991.09Zm-2.07,7.26a1.54,1.54,0,0,0,1,.28,2.2,2.2,0,0,0,1.15-.32c.37-.21.55-.43.55-.65v-2c-.12.05-.4.14-.86.27s-.81.24-1.07.34a2.32,2.32,0,0,0-.74.49,1,1,0,0,0-.37.79A1,1,0,0,0,215.31,998.35Z"/><path class="cls-13" d="M228.61,991.06a2.35,2.35,0,0,1,2.16,1,6.17,6.17,0,0,1,.62,3.17V997a6.48,6.48,0,0,0,.17,1.74q0,.13.57.27a4,4,0,0,0,.75.12q.08,0,.09.24a.8.8,0,0,1,0,.33l-2.36-.1-2.31.1a.48.48,0,0,1-.08-.32c0-.17,0-.25.08-.25A3.17,3.17,0,0,0,229,999c.32-.09.49-.18.52-.27a5.41,5.41,0,0,0,.15-1.37v-2a4.12,4.12,0,0,0-.53-2.48,2.06,2.06,0,0,0-1.71-.66,2.27,2.27,0,0,0-1.35.46c-.44.3-.65.58-.65.83V997a6.48,6.48,0,0,0,.17,1.74q0,.13.57.27a4.13,4.13,0,0,0,.75.12q.08,0,.09.24a.8.8,0,0,1,0,.33l-2.36-.1-2.39.1a.42.42,0,0,1-.09-.32c0-.17,0-.25.09-.25A3.89,3.89,0,0,0,223,999c.34-.09.53-.18.56-.27a5.41,5.41,0,0,0,.15-1.37v-3.69a1.45,1.45,0,0,0-.3-1,1.07,1.07,0,0,0-.54-.32,2.08,2.08,0,0,0-.53-.09c-.14,0-.21,0-.21,0,0-.31,0-.48.13-.49a29.05,29.05,0,0,0,3-.51l.11,0c.05,0,.09.06.11.17a.93.93,0,0,1,0,.24,5.64,5.64,0,0,0-.09.79s0,.07,0,.07,0,0,.07,0a5.69,5.69,0,0,1,1.37-.88A3.84,3.84,0,0,1,228.61,991.06Z"/><path class="cls-13" d="M243.59,991.09a4.5,4.5,0,0,1,3.35,1c0,.87-.27,1.31-.82,1.31a.92.92,0,0,1-.57-.15,2.62,2.62,0,0,1-.5-.53,2,2,0,0,0-1.63-.9,2.23,2.23,0,0,0-1.64.76,3.14,3.14,0,0,0-.74,2.26,3.89,3.89,0,0,0,.87,2.6,3,3,0,0,0,2.41,1,5,5,0,0,0,.88-.08,4.21,4.21,0,0,0,.71-.19,4.42,4.42,0,0,0,.51-.21,2.87,2.87,0,0,0,.36-.21l.16-.09c.09,0,.13.08.13.25a.63.63,0,0,1-.13.35,4.27,4.27,0,0,1-3.17,1.43,4.43,4.43,0,0,1-3.13-1.22,3.91,3.91,0,0,1-1.31-3,4.69,4.69,0,0,1,1.1-3.12A3.87,3.87,0,0,1,243.59,991.09Z"/><path class="cls-13" d="M253,991.08a4.91,4.91,0,0,1,3.39,1.26,4,4,0,0,1,1.4,3,4,4,0,0,1-1.37,3.08,4.79,4.79,0,0,1-3.38,1.28,4.91,4.91,0,0,1-3.41-1.28,4,4,0,0,1-1.4-3.08,4,4,0,0,1,1.36-3.06A4.83,4.83,0,0,1,253,991.08Zm-.24.76a2.32,2.32,0,0,0-1.91.94,3.69,3.69,0,0,0-.73,2.32,4.19,4.19,0,0,0,.93,2.74,2.8,2.8,0,0,0,2.19,1.15,2.33,2.33,0,0,0,1.92-1,3.79,3.79,0,0,0,.74-2.35A4.06,4.06,0,0,0,255,993,2.81,2.81,0,0,0,252.77,991.84Z"/><path class="cls-13" d="M265.72,991.06a2.35,2.35,0,0,1,2.16,1,6.19,6.19,0,0,1,.61,3.17V997a6.41,6.41,0,0,0,.18,1.74q0,.13.57.27a3.89,3.89,0,0,0,.75.12s.07.08.09.24a.8.8,0,0,1,0,.33l-2.36-.1-2.31.1a.42.42,0,0,1-.09-.32c0-.17,0-.25.09-.25a3.25,3.25,0,0,0,.74-.12c.31-.09.49-.18.52-.27a5.41,5.41,0,0,0,.15-1.37v-2a4.19,4.19,0,0,0-.53-2.48,2.06,2.06,0,0,0-1.71-.66,2.32,2.32,0,0,0-1.36.46c-.43.3-.65.58-.65.83V997a6.41,6.41,0,0,0,.18,1.74q0,.13.57.27a4,4,0,0,0,.75.12s.07.08.09.24a.8.8,0,0,1,0,.33l-2.36-.1-2.39.1a.42.42,0,0,1-.09-.32c0-.17,0-.25.09-.25a3.89,3.89,0,0,0,.78-.12c.34-.09.53-.18.56-.27a5.41,5.41,0,0,0,.15-1.37v-3.69a1.4,1.4,0,0,0-.31-1,1,1,0,0,0-.54-.32,2,2,0,0,0-.52-.09c-.14,0-.21,0-.21,0,0-.31,0-.48.13-.49a29.58,29.58,0,0,0,3-.51l.1,0c.06,0,.1.06.12.17a.93.93,0,0,1,0,.24,5.64,5.64,0,0,0-.09.79s0,.07,0,.07,0,0,.07,0a5.5,5.5,0,0,1,1.37-.88A3.81,3.81,0,0,1,265.72,991.06Z"/><path class="cls-13" d="M277.12,986a2.36,2.36,0,0,1,2.09.76c0,.82-.27,1.23-.79,1.23a.72.72,0,0,1-.55-.3,7.08,7.08,0,0,0-.61-.62,1.17,1.17,0,0,0-.83-.31,1.63,1.63,0,0,0-1.49,1.05,5.52,5.52,0,0,0-.53,2.48v1a.1.1,0,0,0,.11.1H277c.08,0,.11,0,.11.13a1.62,1.62,0,0,1-.26.78h-2.27c-.08,0-.13,0-.13.12V997a6.4,6.4,0,0,0,.2,1.74q0,.13.54.27a3.49,3.49,0,0,0,.69.12s.07.08.09.24a.8.8,0,0,1,0,.33l-2.36-.1-2.31.1a.32.32,0,0,1-.06-.19.57.57,0,0,1,0-.26q0-.12.06-.12A3.32,3.32,0,0,0,272,999c.32-.09.5-.18.53-.27a6.18,6.18,0,0,0,.22-1.74v-4.49c0-.09,0-.14-.11-.14h-1.17s-.06,0-.06-.11.11-.28.35-.49a1.09,1.09,0,0,1,.75-.31h.13c.07,0,.11,0,.11-.12v-.25a5.06,5.06,0,0,1,1.37-3.54A4.06,4.06,0,0,1,277.12,986Z"/><path class="cls-13" d="M281.19,997a6.92,6.92,0,0,0,.17,1.74q0,.13.57.27a4.13,4.13,0,0,0,.75.12q.07,0,.09.24a.8.8,0,0,1,0,.33l-2.36-.1-2.39.1a.42.42,0,0,1-.09-.32c0-.17,0-.25.09-.25a3.89,3.89,0,0,0,.78-.12c.34-.09.53-.18.56-.27a5.41,5.41,0,0,0,.15-1.37v-3.69a1.4,1.4,0,0,0-.31-1,1,1,0,0,0-.53-.32,2.08,2.08,0,0,0-.53-.09c-.14,0-.21,0-.21,0,0-.31,0-.48.13-.49a29.58,29.58,0,0,0,3-.51l0,0h.07c.06,0,.09.06.11.17a.93.93,0,0,1,0,.24,9.25,9.25,0,0,0-.11,1.41Zm-1.8-8.25a.93.93,0,0,1,0-1.39,1.24,1.24,0,0,1,1.57,0,.93.93,0,0,1,0,1.39,1.24,1.24,0,0,1-1.57,0Z"/><path class="cls-13" d="M289.57,991.08a2,2,0,0,1,1.71.56,1.65,1.65,0,0,1-.24,1,.72.72,0,0,1-.59.31,1,1,0,0,1-.73-.33,1.22,1.22,0,0,0-.9-.33,1.53,1.53,0,0,0-1.19.56,1.76,1.76,0,0,0-.5,1.19V997a6.48,6.48,0,0,0,.17,1.74c0,.09.22.18.58.27a4.2,4.2,0,0,0,.76.12q.08,0,.09.24a.66.66,0,0,1,0,.33l-2.38-.1-2.39.1a.42.42,0,0,1-.09-.32c0-.17,0-.25.09-.25a3.89,3.89,0,0,0,.78-.12c.34-.09.53-.18.56-.27a5.41,5.41,0,0,0,.15-1.37v-3.69a1.4,1.4,0,0,0-.31-1,1,1,0,0,0-.53-.32,2.08,2.08,0,0,0-.53-.09c-.14,0-.21,0-.21,0,0-.31,0-.48.13-.49a29.58,29.58,0,0,0,3-.51l.11,0c.05,0,.09.06.11.17a.93.93,0,0,1,0,.24l-.14,1a4.61,4.61,0,0,1,1.09-1A2.51,2.51,0,0,1,289.57,991.08Z"/><path class="cls-13" d="M298.52,991.06a2.43,2.43,0,0,1,1.46.42,2.28,2.28,0,0,1,.81,1,5.24,5.24,0,0,1,3.4-1.38q2.78,0,2.78,3.75V997a6.48,6.48,0,0,0,.17,1.74q0,.13.57.27a4.13,4.13,0,0,0,.75.12q.07,0,.09.24a.8.8,0,0,1,0,.33l-2.36-.1-2.39.1a.42.42,0,0,1-.09-.32c0-.17,0-.25.09-.25a3.89,3.89,0,0,0,.78-.12c.34-.09.53-.18.56-.27a4.87,4.87,0,0,0,.15-1.25v-2.21q0-3-2.22-3a2.4,2.4,0,0,0-1.41.42c-.39.28-.59.51-.59.69l0,.08v.1a8.18,8.18,0,0,1,.09,1.4v2.21a5.57,5.57,0,0,0,.18,1.56q0,.13.57.27a3.94,3.94,0,0,0,.74.12q.08,0,.09.24a.66.66,0,0,1,0,.33l-2.35-.1-2.4.1a.42.42,0,0,1-.09-.32c0-.17,0-.25.09-.25a3.7,3.7,0,0,0,.78-.12c.34-.09.53-.18.56-.27a5.41,5.41,0,0,0,.15-1.37v-2c0-2.07-.7-3.1-2.11-3.1a2.37,2.37,0,0,0-1.33.44c-.44.29-.67.57-.67.85V997a6.41,6.41,0,0,0,.18,1.74q0,.13.57.27a3.89,3.89,0,0,0,.75.12s.07.08.09.24a.76.76,0,0,1,0,.33l-2.35-.1-2.4.1a.42.42,0,0,1-.09-.32c0-.17,0-.25.09-.25a3.7,3.7,0,0,0,.78-.12c.35-.09.53-.18.56-.27a5,5,0,0,0,.16-1.37v-3.69a1.4,1.4,0,0,0-.31-1,1.07,1.07,0,0,0-.54-.32,2,2,0,0,0-.53-.09c-.14,0-.21,0-.21,0,0-.31.05-.48.14-.49a29.2,29.2,0,0,0,3-.51l.11,0c.06,0,.1.06.11.17a.47.47,0,0,1,0,.24,5.64,5.64,0,0,0-.09.79s0,.07.05.07l.06,0a5.77,5.77,0,0,1,1.38-.88A3.81,3.81,0,0,1,298.52,991.06Z"/><path class="cls-13" d="M135.77,1015.06a2.34,2.34,0,0,1,2.15,1,6.17,6.17,0,0,1,.62,3.17V1021a6.92,6.92,0,0,0,.17,1.74c0,.09.22.18.58.27a3.89,3.89,0,0,0,.75.12s.07.08.08.24a.66.66,0,0,1,0,.33l-2.35-.1-2.31.1a.42.42,0,0,1-.09-.32c0-.17,0-.25.09-.25a3.18,3.18,0,0,0,.73-.12c.32-.09.49-.18.52-.27a5.37,5.37,0,0,0,.16-1.37v-2a4.19,4.19,0,0,0-.53-2.48,2.08,2.08,0,0,0-1.72-.66,2.27,2.27,0,0,0-1.35.46c-.43.3-.65.58-.65.83V1021a6.41,6.41,0,0,0,.18,1.74c0,.09.22.18.57.27a3.89,3.89,0,0,0,.75.12s.07.08.08.24a.66.66,0,0,1,0,.33l-2.35-.1-2.4.1a.42.42,0,0,1-.09-.32c0-.17,0-.25.09-.25a3.7,3.7,0,0,0,.78-.12c.35-.09.53-.18.56-.27a5.37,5.37,0,0,0,.16-1.37v-3.69a1.45,1.45,0,0,0-.31-1,1.07,1.07,0,0,0-.54-.32,2,2,0,0,0-.53-.09c-.14,0-.21,0-.21,0,0-.31.05-.48.13-.49a29.05,29.05,0,0,0,3-.51l.11,0c.06,0,.1.06.11.17a.93.93,0,0,1,0,.24,5.64,5.64,0,0,0-.09.79s0,.07,0,.07l.06,0a5.77,5.77,0,0,1,1.38-.88A3.81,3.81,0,0,1,135.77,1015.06Z"/><path class="cls-13" d="M145.8,1015.09a4.31,4.31,0,0,1,1.78.35,2.86,2.86,0,0,1,1.18.88,3.64,3.64,0,0,1,.59,1.09,3.58,3.58,0,0,1,.19,1.1c0,.26,0,.42-.13.48a1,1,0,0,1-.51.09h-5.54c-.12,0-.18,0-.18.1a3.5,3.5,0,0,0,.84,2.26,2.92,2.92,0,0,0,2.42,1,5.05,5.05,0,0,0,.88-.08,4.8,4.8,0,0,0,.71-.19,4.42,4.42,0,0,0,.51-.21,2.87,2.87,0,0,0,.36-.21l.15-.09c.09,0,.14.08.14.25a.66.66,0,0,1-.14.35,3.92,3.92,0,0,1-1.29,1,4.12,4.12,0,0,1-1.87.44,4.45,4.45,0,0,1-3.14-1.22,3.94,3.94,0,0,1-1.31-3,4.2,4.2,0,0,1,4.36-4.44Zm-.22.73a2,2,0,0,0-1.75.87,2.77,2.77,0,0,0-.61,1.43.13.13,0,0,0,.14.14h4.29c.07,0,.11-.07.11-.2a2.53,2.53,0,0,0-.6-1.43A1.85,1.85,0,0,0,145.58,1015.82Z"/><path class="cls-13" d="M163.79,1016.38c0-.45-.48-.68-1.45-.68h-.09q-.09,0-.09-.24a.45.45,0,0,1,.09-.33l.74,0,.75,0,.73,0,.65,0,.63,0,.68,0a.87.87,0,0,1,0,.3c0,.18,0,.27-.11.27a2.64,2.64,0,0,0-.77.17,1,1,0,0,0-.63.53l-2.88,7a.64.64,0,0,1-.62.43c-.15,0-.24,0-.26-.08l-2.71-5.75-2.22,5.4-.09.14a.81.81,0,0,1-.21.19.54.54,0,0,1-.3.1c-.14,0-.23,0-.26-.08-.35-.71-.75-1.55-1.2-2.53s-.87-1.87-1.26-2.66-.86-1.6-1.39-2.43a1.34,1.34,0,0,0-1.19-.43c-.06,0-.08-.08-.08-.25a.44.44,0,0,1,.08-.32l.73,0,.72,0,.73,0,2.2-.1a.7.7,0,0,1,0,.33c0,.16,0,.24-.07.24-.74,0-1.1.15-1.1.45a3.78,3.78,0,0,0,.27.59c.18.35.5,1,1,1.82s.91,1.77,1.38,2.71c.25-.64.53-1.34.84-2.11s.52-1.32.65-1.64a4.08,4.08,0,0,0,.19-.57,1,1,0,0,0-.1-.31,2.43,2.43,0,0,0-.21-.37l-.11-.18a1,1,0,0,0-.42-.29,1.75,1.75,0,0,0-.7-.1q-.09,0-.09-.24a.45.45,0,0,1,.09-.33l.71,0,.7,0,.72,0,.69,0,.74,0,.73,0a1.37,1.37,0,0,1,0,.34c0,.14,0,.22-.07.23-.7,0-1.05.25-1.05.76a30.79,30.79,0,0,0,2.42,4.81c.22-.6.5-1.32.83-2.17s.59-1.48.74-1.89A3.1,3.1,0,0,0,163.79,1016.38Z"/><path class="cls-13" d="M175.47,1015.08a8.85,8.85,0,0,1,1.22.1l1,.15a9.86,9.86,0,0,1,.27,2c0,.07-.1.1-.29.1s-.31,0-.33-.14a2,2,0,0,0-.62-1,1.67,1.67,0,0,0-1.18-.49c-1.06,0-1.58.38-1.58,1.15a1.39,1.39,0,0,0,.08.52,1.19,1.19,0,0,0,.34.43l.39.29c.09.06.28.16.58.31l.56.29.52.26.6.32.52.33a3,3,0,0,1,.5.42,2.92,2.92,0,0,1,.29.47,1.22,1.22,0,0,1,.15.58,2.31,2.31,0,0,1-1,1.92,3.75,3.75,0,0,1-2.37.78,7.34,7.34,0,0,1-.85-.05c-.25,0-.56-.09-.91-.17s-.62-.13-.82-.16a5.43,5.43,0,0,1-.25-1,6.41,6.41,0,0,1-.12-1.06.53.53,0,0,1,.27-.11c.22,0,.33,0,.35.11a2.2,2.2,0,0,0,.82,1.15,2.36,2.36,0,0,0,1.51.55,1.83,1.83,0,0,0,1.15-.34,1.17,1.17,0,0,0,.45-1,1.27,1.27,0,0,0-.14-.61,1.37,1.37,0,0,0-.46-.51,6.1,6.1,0,0,0-.59-.37l-.78-.38c-.34-.16-.59-.28-.75-.37-1.15-.59-1.72-1.28-1.72-2.09a2,2,0,0,1,1-1.72A3.83,3.83,0,0,1,175.47,1015.08Z"/><path class="cls-13" d="M180.93,1016.31h-1.28c-.07,0-.11-.14-.11-.41a.3.3,0,0,1,0-.14,4.21,4.21,0,0,0,1.39-1,5.49,5.49,0,0,0,.47-.57l.39-.56.15-.25q.66,0,.66.09v1.94h3a.15.15,0,0,1,.17.17,1.52,1.52,0,0,1-.22.75h-2.92v4.78a1.73,1.73,0,0,0,.45,1.25,1.57,1.57,0,0,0,1.18.47,2.87,2.87,0,0,0,1.36-.37s.11,0,.2.16.12.22.11.23a3.61,3.61,0,0,1-1,.61,3.36,3.36,0,0,1-1.41.31,2.7,2.7,0,0,1-1.84-.65,2.3,2.3,0,0,1-.73-1.83Z"/><path class="cls-13" d="M191.22,1015.09a2.44,2.44,0,0,1,1.74.52,2.28,2.28,0,0,1,.53,1.67v4.51a1,1,0,0,0,.24.69.84.84,0,0,0,.66.27,1.65,1.65,0,0,0,.77-.27q.09,0,.09.15a.71.71,0,0,1-.11.41,2.77,2.77,0,0,1-1.54.69,1.57,1.57,0,0,1-1-.37,2.14,2.14,0,0,1-.64-.78.69.69,0,0,0-.16.12,4,4,0,0,1-.39.29,5.48,5.48,0,0,1-.56.35,3.79,3.79,0,0,1-.75.29,3.15,3.15,0,0,1-.87.12,2.77,2.77,0,0,1-1.67-.48,1.66,1.66,0,0,1-.66-1.44,1.52,1.52,0,0,1,.24-.81,2.3,2.3,0,0,1,.58-.62,4.25,4.25,0,0,1,.9-.5,7.66,7.66,0,0,1,1-.38l1.06-.32q.66-.19.93-.3a.26.26,0,0,0,.19-.29v-1.46a1.14,1.14,0,0,0-.44-1,1.63,1.63,0,0,0-1.05-.34,1.55,1.55,0,0,0-1.1.4,1.3,1.3,0,0,0-.44,1q0,.69-.9.69a1,1,0,0,1-.86-.38c0-.56.46-1.11,1.39-1.67A5.43,5.43,0,0,1,191.22,1015.09Zm-2.07,7.26a1.55,1.55,0,0,0,1,.28,2.14,2.14,0,0,0,1.14-.32c.37-.21.55-.43.55-.65v-2c-.11.05-.4.14-.85.27s-.81.24-1.07.34a2.25,2.25,0,0,0-.75.49,1.06,1.06,0,0,0-.36.79A1,1,0,0,0,189.15,1022.35Z"/><path class="cls-13" d="M197.14,1016.31h-1.28c-.07,0-.11-.14-.11-.41a.3.3,0,0,1,0-.14,4.21,4.21,0,0,0,1.39-1,5.49,5.49,0,0,0,.47-.57c.16-.22.29-.4.39-.56l.15-.25q.66,0,.66.09v1.94h3c.12,0,.18.06.18.17a1.63,1.63,0,0,1-.22.75h-2.93v4.78a1.73,1.73,0,0,0,.45,1.25,1.58,1.58,0,0,0,1.18.47,2.87,2.87,0,0,0,1.36-.37c.05,0,.11,0,.2.16s.13.22.11.23a3.61,3.61,0,0,1-1,.61,3.32,3.32,0,0,1-1.41.31,2.68,2.68,0,0,1-1.83-.65,2.28,2.28,0,0,1-.74-1.83Z"/><path class="cls-13" d="M207.45,1015.09a4.36,4.36,0,0,1,1.79.35,2.83,2.83,0,0,1,1.17.88,3.92,3.92,0,0,1,.6,1.09,3.57,3.57,0,0,1,.18,1.1c0,.26,0,.42-.13.48a1,1,0,0,1-.5.09H205c-.11,0-.17,0-.17.1a3.55,3.55,0,0,0,.83,2.26,2.94,2.94,0,0,0,2.42,1,5,5,0,0,0,.88-.08,4.63,4.63,0,0,0,.72-.19,5,5,0,0,0,.5-.21l.37-.21.15-.09c.09,0,.13.08.13.25a.63.63,0,0,1-.13.35,4,4,0,0,1-1.3,1,4.06,4.06,0,0,1-1.87.44,4.45,4.45,0,0,1-3.13-1.22,3.94,3.94,0,0,1-1.31-3,4.26,4.26,0,0,1,1.24-3.24A4.31,4.31,0,0,1,207.45,1015.09Zm-.22.73a2,2,0,0,0-1.74.87,2.68,2.68,0,0,0-.61,1.43c0,.09,0,.14.13.14h4.29c.08,0,.11-.07.11-.2a2.58,2.58,0,0,0-.59-1.43A1.88,1.88,0,0,0,207.23,1015.82Z"/><path class="cls-13" d="M213.43,1023.54a1.05,1.05,0,0,1-.39-.81,1,1,0,0,1,.39-.79,1.38,1.38,0,0,1,.91-.32,1.31,1.31,0,0,1,.89.32,1,1,0,0,1,.36.79,1.09,1.09,0,0,1-.36.81,1.24,1.24,0,0,1-.89.34A1.3,1.3,0,0,1,213.43,1023.54Z"/><text class="cls-19" transform="translate(33.07 611.35) scale(1.13 1)">2</text><text class="cls-20" transform="translate(42.24 611.35) scale(1.13 1)">2</text><text class="cls-22" transform="translate(128.59 555.07) scale(1.13 1)">Confirmation <tspan x="0" y="24">from 2/3 of</tspan><tspan x="0" y="48">the stake.</tspan></text><text class="cls-23" transform="translate(223.11 323.38) scale(1.13 1)">BEFORE</text><rect class="cls-13" x="199.59" y="686.53" width="87.26" height="32.94"/><text class="cls-24" transform="translate(210.5 709.44) scale(1.13 1)">SIGNERS</text><line class="cls-14" x1="-47.87" y1="800.72" x2="131.93" y2="907.08"/><polygon class="cls-16" points="211.12 1195.16 164.31 1219.04 164.31 1228.45 211.12 1252.4 257.94 1228.45 257.94 1219.04 211.12 1195.16"/><polyline class="cls-25" points="211.46 1242.48 164.64 1218.54 211.46 1194.66 258.28 1218.54"/><polygon class="cls-16" points="211.46 1251.9 258.28 1227.95 258.28 1218.54 211.46 1242.48 211.46 1251.9"/><polygon class="cls-25" points="211.46 1252.67 164.64 1228.72 164.64 1218.54 211.46 1242.48 211.46 1252.67"/><polygon class="cls-25" points="211.46 1251.9 258.28 1227.95 258.28 1218.54 211.46 1242.48 211.46 1251.9"/><polygon class="cls-26" points="211.07 1251.61 257.89 1227.66 257.89 1218.25 211.07 1242.2 211.07 1251.61"/><polygon class="cls-27" points="255.17 1249.57 213.76 1270.69 213.76 1279.02 255.17 1300.2 296.58 1279.02 296.58 1270.69 255.17 1249.57"/><polyline class="cls-25" points="255.47 1291.43 214.06 1270.25 255.47 1249.13 296.88 1270.25"/><polygon class="cls-27" points="255.47 1299.76 296.88 1278.58 296.88 1270.25 255.47 1291.43 255.47 1299.76"/><polygon class="cls-25" points="255.47 1300.45 214.06 1279.26 214.06 1270.25 255.47 1291.43 255.47 1300.45"/><polygon class="cls-25" points="255.47 1299.76 296.88 1278.58 296.88 1270.25 255.47 1291.43 255.47 1299.76"/><polygon class="cls-28" points="255.56 1299.86 296.98 1278.68 296.98 1270.35 255.56 1291.53 255.56 1299.86"/><polygon class="cls-27" points="311.72 1218.6 270.31 1239.72 270.31 1248.05 311.72 1269.23 353.13 1248.05 353.13 1239.72 311.72 1218.6"/><polyline class="cls-25" points="312.02 1260.46 270.61 1239.28 312.02 1218.16 353.43 1239.28"/><polygon class="cls-27" points="312.02 1268.79 353.43 1247.61 353.43 1239.28 312.02 1260.46 312.02 1268.79"/><polygon class="cls-25" points="312.02 1269.47 270.61 1248.29 270.61 1239.28 312.02 1260.46 312.02 1269.47"/><polygon class="cls-25" points="312.02 1268.79 353.43 1247.61 353.43 1239.28 312.02 1260.46 312.02 1268.79"/><polygon class="cls-29" points="312.02 1268.79 353.43 1247.61 353.43 1239.28 312.02 1260.46 312.02 1268.79"/><polygon class="cls-27" points="368.16 1189.2 326.75 1210.32 326.75 1218.65 368.16 1239.83 409.57 1218.65 409.57 1210.32 368.16 1189.2"/><polyline class="cls-25" points="368.46 1231.07 327.05 1209.88 368.46 1188.76 409.87 1209.88"/><polygon class="cls-27" points="368.46 1239.39 409.87 1218.21 409.87 1209.88 368.46 1231.07 368.46 1239.39"/><polygon class="cls-25" points="368.46 1240.08 327.05 1218.89 327.05 1209.88 368.46 1231.07 368.46 1240.08"/><polygon class="cls-25" points="368.46 1239.39 409.87 1218.21 409.87 1209.88 368.46 1231.07 368.46 1239.39"/><polygon class="cls-30" points="368.12 1239.73 409.53 1218.55 409.53 1210.22 368.12 1231.41 368.12 1239.73"/><polygon class="cls-16" points="275.06 1160.14 228.24 1184.02 228.24 1193.43 275.06 1217.38 321.88 1193.43 321.88 1184.02 275.06 1160.14"/><polyline class="cls-25" points="275.4 1207.47 228.58 1183.52 275.4 1159.64 322.21 1183.52"/><polygon class="cls-16" points="275.4 1216.88 322.21 1192.93 322.21 1183.52 275.4 1207.47 275.4 1216.88"/><polygon class="cls-25" points="275.4 1217.66 228.58 1193.71 228.58 1183.52 275.4 1207.47 275.4 1217.66"/><polygon class="cls-25" points="275.4 1216.88 322.21 1192.93 322.21 1183.52 275.4 1207.47 275.4 1216.88"/><polygon class="cls-31" points="275.01 1216.6 321.83 1192.65 321.83 1183.23 275.01 1207.18 275.01 1216.6"/><line class="cls-14" x1="366.86" y1="1144.81" x2="366.86" y2="1211.74"/><polygon class="cls-16" points="338.87 1126.91 292.05 1150.79 292.05 1160.2 338.87 1184.15 385.69 1160.2 385.69 1150.79 338.87 1126.91"/><polyline class="cls-25" points="339.21 1174.23 292.39 1150.29 339.21 1126.41 386.02 1150.29"/><polygon class="cls-16" points="339.21 1183.65 386.02 1159.7 386.02 1150.29 339.21 1174.23 339.21 1183.65"/><polygon class="cls-25" points="339.21 1184.42 292.39 1160.47 292.39 1150.29 339.21 1174.23 339.21 1184.42"/><polygon class="cls-25" points="339.21 1183.65 386.02 1159.7 386.02 1150.29 339.21 1174.23 339.21 1183.65"/><polygon class="cls-32" points="338.82 1183.36 385.63 1159.41 385.63 1150 338.82 1173.95 338.82 1183.36"/><line class="cls-14" x1="273.94" y1="1111.5" x2="273.94" y2="1184.42"/><polygon class="cls-33" points="273.99 1089.58 227.17 1113.46 227.17 1122.87 273.99 1146.82 320.8 1122.87 320.8 1113.46 273.99 1089.58"/><polyline class="cls-25" points="274.32 1136.91 227.51 1112.96 274.32 1089.08 321.14 1112.96"/><polygon class="cls-16" points="274.32 1146.32 321.14 1122.37 321.14 1112.96 274.32 1136.91 274.32 1146.32"/><polygon class="cls-25" points="274.32 1147.1 227.51 1123.15 227.51 1112.96 274.32 1136.91 274.32 1147.1"/><polygon class="cls-25" points="274.32 1146.32 321.14 1122.37 321.14 1112.96 274.32 1136.91 274.32 1146.32"/><polygon class="cls-34" points="273.94 1146.04 320.75 1122.09 320.75 1112.67 273.94 1136.63 273.94 1146.04"/><line class="cls-14" x1="237.43" y1="1206.73" x2="252.95" y2="1198.87"/><line class="cls-14" x1="303.14" y1="1173.1" x2="318.66" y2="1165.24"/><line class="cls-14" x1="279.17" y1="1260.63" x2="291.69" y2="1253.77"/><line class="cls-14" x1="337.73" y1="1231.18" x2="349.25" y2="1224.32"/><text class="cls-35" transform="translate(117.57 1160.14) scale(1.13 1)">AFTER </text><line class="cls-14" x1="375.97" y1="555.07" x2="-47.87" y2="800.72"/><line class="cls-14" x1="296.75" y1="1013.45" x2="375.97" y2="1060.32"/><line class="cls-14" x1="296.58" y1="1100.43" x2="375.97" y2="1060.32"/><polygon class="cls-13" points="42.51 862.4 58.8 851.88 67.09 867.22 42.51 862.4"/></svg>