<svg width="119" height="22" viewBox="0 0 119 22" fill="none" xmlns="http://www.w3.org/2000/svg">
<path d="M7.08411 13.5142C7.08524 13.717 7.24586 13.8754 7.45311 13.878C7.67586 13.8807 7.84074 13.7262 7.84324 13.5124C7.84574 13.3029 7.67586 13.1331 7.46211 13.1314C7.25436 13.1297 7.08311 13.3032 7.08411 13.5142Z" fill="white"/>
<path d="M13.3185 12.4503C13.5223 12.4538 13.7123 12.2744 13.7156 12.0753C13.7191 11.8689 13.5434 11.6871 13.3364 11.6829C13.1279 11.6788 12.945 11.8528 12.9415 12.0584C12.938 12.2674 13.1105 12.4468 13.3185 12.4503Z" fill="white"/>
<path d="M11.1635 14.7233C11.0934 14.7952 11.0404 14.918 11.0394 15.0178C11.0302 15.9617 11.0337 16.9057 11.0344 17.8495C11.0344 17.9124 11.042 17.9753 11.0463 18.0419C11.1027 18.0419 11.145 18.0459 11.1863 18.0413C12.9474 17.844 14.3049 16.9889 15.2344 15.4895C15.916 14.39 16.218 13.1868 15.9644 11.8945C15.7843 10.9768 15.3884 10.1324 14.9564 9.30978C13.896 7.29078 12.6213 5.4084 11.2693 3.5764C11.0827 3.32365 10.8903 3.07515 10.6905 2.81128C10.6177 2.90003 10.56 2.9634 10.5102 3.03228C9.9574 3.79628 9.3899 4.55028 8.85715 5.32803C7.73815 6.96178 6.66428 8.62403 5.88015 10.4529C5.6129 11.0762 5.36965 11.713 5.33328 12.3962C5.2144 14.6279 6.52353 16.73 8.57415 17.6278C9.13053 17.8713 9.7104 18.0225 10.3495 18.0498C10.3495 17.6969 10.3572 17.3602 10.3444 17.0242C10.341 16.9357 10.2963 16.8285 10.2342 16.7657C9.4904 16.0117 8.73853 15.2657 7.99253 14.5138C7.9079 14.4285 7.83565 14.4 7.71165 14.432C7.2664 14.5474 6.83878 14.3619 6.6234 13.9779C6.4109 13.5989 6.47503 13.1303 6.78165 12.8228C7.08928 12.5143 7.55703 12.4483 7.9359 12.6599C8.31978 12.8743 8.50878 13.3018 8.39503 13.7468C8.36128 13.8785 8.38715 13.9547 8.47978 14.0458C9.04953 14.6067 9.6129 15.174 10.1794 15.7383C10.2213 15.7799 10.2709 15.8138 10.3495 15.8778C10.3495 15.7552 10.3495 15.6777 10.3495 15.6003C10.3487 14.3107 10.3442 13.021 10.3513 11.7314C10.3523 11.553 10.3058 11.4504 10.1479 11.354C9.78115 11.1304 9.63128 10.6947 9.7454 10.281C9.85703 9.87665 10.2195 9.5919 10.6512 9.56965C11.0447 9.5494 11.4424 9.80528 11.591 10.1744C11.749 10.5667 11.6582 11.0507 11.3037 11.2822C11.0529 11.4459 11.0217 11.6304 11.03 11.8853C11.044 12.3172 11.0339 12.7498 11.0339 13.1822C11.0339 13.3889 11.0339 13.5955 11.0339 13.8379C11.0847 13.8028 11.0979 13.7963 11.1078 13.7864C11.475 13.42 11.8375 13.0488 12.2113 12.6892C12.3543 12.5515 12.465 12.4302 12.3645 12.2129C12.3289 12.1357 12.3427 12.027 12.3569 11.9364C12.4492 11.3518 12.96 10.9969 13.5373 11.1105C14.0518 11.2118 14.3835 11.7345 14.2769 12.2762C14.1719 12.8097 13.6328 13.1405 13.0714 12.9995C12.9447 12.9677 12.8765 12.9984 12.7934 13.0825C12.2515 13.6308 11.7017 14.1713 11.1635 14.7233Z" fill="white"/>
<path d="M10.6905 0.0571289C4.84052 0.0571289 0.0980225 4.7995 0.0980225 10.6496C0.0980225 16.3865 4.6589 21.0576 10.3525 21.2361C10.3525 20.4069 10.3525 19.5861 10.3525 18.7738C9.9474 18.699 9.56015 18.6523 9.18615 18.5546C6.7354 17.9144 4.94627 15.7954 4.67415 13.2755C4.56752 12.2885 4.79227 11.3753 5.14252 10.4741C5.57165 9.37013 6.14665 8.34063 6.75202 7.327C7.9009 5.40338 9.20102 3.58438 10.5795 1.82013C10.6099 1.78125 10.6319 1.736 10.6785 1.66025C11.1644 2.30525 11.6191 2.897 12.0613 3.49825C13.294 5.17438 14.4408 6.90675 15.4244 8.74238C15.9183 9.664 16.3673 10.61 16.5996 11.6353C16.9371 13.125 16.6185 14.5196 15.8393 15.7991C14.7878 17.5253 13.2398 18.5088 11.2169 18.7193C11.1608 18.7251 11.1055 18.7398 11.0321 18.7536C11.0321 19.5824 11.0321 20.4038 11.0321 21.2361C16.724 21.0558 21.283 16.3855 21.283 10.6498C21.2829 4.7995 16.5405 0.0571289 10.6905 0.0571289Z" fill="white"/>
<path d="M10.6865 10.9317C10.8925 10.9337 11.0739 10.7561 11.0762 10.5499C11.0786 10.3438 10.9009 10.1627 10.6935 10.1602C10.4884 10.1577 10.3065 10.3363 10.3041 10.5426C10.3017 10.7459 10.4824 10.9298 10.6865 10.9317Z" fill="white"/>
<path d="M36.117 19.1189H31.5918V5.54282H27.8515V1.71045H39.8574V5.54282H36.1171V19.1189H36.117Z" fill="white"/>
<path d="M57.4091 1.71045V11.4997C57.4091 13.7393 57.3167 15.9558 55.5851 17.6412C54.1305 19.0726 51.8447 19.5805 49.8131 19.5805C47.7812 19.5805 45.4955 19.0726 44.041 17.6412C42.3092 15.9558 42.217 13.7393 42.217 11.4997V1.71045H46.7422V10.8763C46.7422 13.1391 46.904 15.6094 49.8131 15.6094C52.7222 15.6094 52.8837 13.1391 52.8837 10.8763V1.71045H57.4091Z" fill="white"/>
<path fill-rule="evenodd" clip-rule="evenodd" d="M66.966 1.71045H60.0396V19.1189H64.5649V13.3468H67.1276C71.0756 13.3468 73.2922 11.5458 73.2922 7.43607C73.2922 3.44195 70.7062 1.71045 66.966 1.71045ZM65.3267 9.69882H64.5649V5.35807H65.3267C67.0814 5.35807 68.5821 5.38132 68.5821 7.5747C68.5821 9.69882 66.966 9.69882 65.3267 9.69882Z" fill="white"/>
<path d="M79.8258 5.54282V8.45195H84.9283V12.2847H79.8258V15.2863H85.2054V19.1189H75.3009V1.71045H85.2054V5.54282H79.8258Z" fill="white"/>
<path d="M92.5241 15.2863H97.9497V19.1189H87.9989V1.71045H92.5241V15.2863Z" fill="white"/>
<path fill-rule="evenodd" clip-rule="evenodd" d="M108.178 19.6961C113.765 19.6961 117.805 15.7248 117.805 10.0912C117.805 4.82731 113.188 1.13318 108.178 1.13306C103.167 1.13306 98.55 4.82718 98.55 10.0912C98.55 15.7248 102.59 19.6961 108.178 19.6961ZM108.178 15.3092C105.476 15.3092 103.26 13.1158 103.26 10.1142C103.26 7.71343 105.476 5.51981 108.178 5.51981C110.879 5.51981 113.095 7.71331 113.095 10.1142C113.095 13.1158 110.879 15.3092 108.178 15.3092Z" fill="white"/>
</svg>
