<svg xmlns="http://www.w3.org/2000/svg" xmlns:xlink="http://www.w3.org/1999/xlink" viewBox="0 0 940 1080"><defs><style>.cls-1,.cls-11,.cls-20,.cls-22,.cls-29,.cls-3,.cls-30,.cls-31,.cls-33,.cls-34,.cls-36,.cls-4,.cls-5,.cls-6,.cls-9{fill:none;}.cls-2{fill:#293579;}.cls-20,.cls-3,.cls-4,.cls-5,.cls-6{stroke:#eeb330;}.cls-11,.cls-23,.cls-25,.cls-26,.cls-29,.cls-3,.cls-30,.cls-31,.cls-33,.cls-34,.cls-36,.cls-4,.cls-5,.cls-6,.cls-7,.cls-9{stroke-linecap:round;stroke-linejoin:round;}.cls-11,.cls-25,.cls-29,.cls-3,.cls-30,.cls-31,.cls-33,.cls-4,.cls-5,.cls-6{stroke-width:2px;}.cls-3,.cls-33,.cls-34{stroke-dasharray:6;}.cls-30,.cls-5{stroke-dasharray:5.99 5.99;}.cls-6{stroke-dasharray:5.99 5.99;}.cls-19,.cls-7{fill:#eeb330;}.cls-23,.cls-26,.cls-39,.cls-7,.cls-9{stroke:#293579;}.cls-25,.cls-26,.cls-35,.cls-8{fill:#fff;}.cls-8{stroke:#e5cbef;}.cls-20,.cls-22,.cls-39,.cls-8{stroke-miterlimit:10;}.cls-10{fill:url(#New_Pattern);}.cls-11,.cls-25,.cls-36{stroke:#fff;}.cls-12{fill:url(#New_Pattern-3);}.cls-13{fill:url(#New_Pattern-5);}.cls-14{fill:url(#New_Pattern-7);}.cls-15{fill:url(#New_Pattern-9);}.cls-16{fill:url(#New_Pattern-11);}.cls-17{fill:url(#New_Pattern-13);}.cls-18{fill:url(#New_Pattern-15);}.cls-19,.cls-21,.cls-35{font-size:27px;font-family:Slabo27px-Regular, "Slabo 27px";}.cls-21,.cls-23{fill:#da5534;}.cls-22,.cls-29,.cls-30,.cls-31,.cls-33,.cls-34{stroke:#da5534;}.cls-24{fill:url(#New_Pattern-17);}.cls-27{fill:url(#New_Pattern-19);}.cls-28{fill:url(#New_Pattern-21);}.cls-31{stroke-dasharray:5.84 5.84;}.cls-32{fill:url(#New_Pattern-23);}.cls-37{fill:#97feb6;}.cls-38{fill:#19b686;}.cls-39{fill:url(#New_Pattern-25);}.cls-40{fill:url(#New_Pattern-27);}</style><pattern id="New_Pattern" data-name="New Pattern" width="43.43" height="32.75" patternTransform="translate(891.69 406.07) scale(0.64 0.61)" patternUnits="userSpaceOnUse" viewBox="0 0 43.43 32.75"><rect class="cls-1" width="43.43" height="32.75"/><circle class="cls-2" cx="37.23" cy="3.07" r="0.84"/><circle class="cls-2" cx="30.03" cy="3.07" r="0.84"/><circle class="cls-2" cx="22.84" cy="3.07" r="0.84"/><circle class="cls-2" cx="15.64" cy="3.07" r="0.84"/><circle class="cls-2" cx="8.44" cy="3.07" r="0.84"/><circle class="cls-2" cx="1.24" cy="3.07" r="0.84"/><circle class="cls-2" cx="40.83" cy="8.58" r="0.84"/><circle class="cls-2" cx="33.63" cy="8.58" r="0.84"/><circle class="cls-2" cx="26.43" cy="8.58" r="0.84"/><circle class="cls-2" cx="19.24" cy="8.58" r="0.84"/><circle class="cls-2" cx="12.04" cy="8.58" r="0.84"/><circle class="cls-2" cx="4.84" cy="8.58" r="0.84"/><circle class="cls-2" cx="37.23" cy="14.16" r="0.84"/><circle class="cls-2" cx="30.03" cy="14.16" r="0.84"/><circle class="cls-2" cx="22.84" cy="14.16" r="0.84"/><circle class="cls-2" cx="15.64" cy="14.16" r="0.84"/><circle class="cls-2" cx="8.44" cy="14.16" r="0.84"/><circle class="cls-2" cx="1.24" cy="14.16" r="0.84"/><circle class="cls-2" cx="40.83" cy="19.68" r="0.84"/><circle class="cls-2" cx="33.63" cy="19.68" r="0.84"/><circle class="cls-2" cx="26.43" cy="19.68" r="0.84"/><circle class="cls-2" cx="19.24" cy="19.68" r="0.84"/><circle class="cls-2" cx="12.04" cy="19.68" r="0.84"/><circle class="cls-2" cx="4.84" cy="19.68" r="0.84"/><circle class="cls-2" cx="37.52" cy="25.24" r="0.84"/><circle class="cls-2" cx="30.33" cy="25.24" r="0.84"/><circle class="cls-2" cx="23.13" cy="25.24" r="0.84"/><circle class="cls-2" cx="15.93" cy="25.24" r="0.84"/><circle class="cls-2" cx="8.73" cy="25.24" r="0.84"/><circle class="cls-2" cx="1.53" cy="25.24" r="0.84"/><circle class="cls-2" cx="41.12" cy="30.76" r="0.84"/><circle class="cls-2" cx="33.92" cy="30.76" r="0.84"/><circle class="cls-2" cx="26.73" cy="30.76" r="0.84"/><circle class="cls-2" cx="19.53" cy="30.76" r="0.84"/><circle class="cls-2" cx="12.33" cy="30.76" r="0.84"/><circle class="cls-2" cx="5.13" cy="30.76" r="0.84"/></pattern><pattern id="New_Pattern-3" data-name="New Pattern" width="43.43" height="32.75" patternTransform="translate(836.14 345.92) scale(0.64 0.61)" patternUnits="userSpaceOnUse" viewBox="0 0 43.43 32.75"><rect class="cls-1" width="43.43" height="32.75"/><circle class="cls-2" cx="37.23" cy="3.07" r="0.84"/><circle class="cls-2" cx="30.03" cy="3.07" r="0.84"/><circle class="cls-2" cx="22.84" cy="3.07" r="0.84"/><circle class="cls-2" cx="15.64" cy="3.07" r="0.84"/><circle class="cls-2" cx="8.44" cy="3.07" r="0.84"/><circle class="cls-2" cx="1.24" cy="3.07" r="0.84"/><circle class="cls-2" cx="40.83" cy="8.58" r="0.84"/><circle class="cls-2" cx="33.63" cy="8.58" r="0.84"/><circle class="cls-2" cx="26.43" cy="8.58" r="0.84"/><circle class="cls-2" cx="19.24" cy="8.58" r="0.84"/><circle class="cls-2" cx="12.04" cy="8.58" r="0.84"/><circle class="cls-2" cx="4.84" cy="8.58" r="0.84"/><circle class="cls-2" cx="37.23" cy="14.16" r="0.84"/><circle class="cls-2" cx="30.03" cy="14.16" r="0.84"/><circle class="cls-2" cx="22.84" cy="14.16" r="0.84"/><circle class="cls-2" cx="15.64" cy="14.16" r="0.84"/><circle class="cls-2" cx="8.44" cy="14.16" r="0.84"/><circle class="cls-2" cx="1.24" cy="14.16" r="0.84"/><circle class="cls-2" cx="40.83" cy="19.68" r="0.84"/><circle class="cls-2" cx="33.63" cy="19.68" r="0.84"/><circle class="cls-2" cx="26.43" cy="19.68" r="0.84"/><circle class="cls-2" cx="19.24" cy="19.68" r="0.84"/><circle class="cls-2" cx="12.04" cy="19.68" r="0.84"/><circle class="cls-2" cx="4.84" cy="19.68" r="0.84"/><circle class="cls-2" cx="37.52" cy="25.24" r="0.84"/><circle class="cls-2" cx="30.33" cy="25.24" r="0.84"/><circle class="cls-2" cx="23.13" cy="25.24" r="0.84"/><circle class="cls-2" cx="15.93" cy="25.24" r="0.84"/><circle class="cls-2" cx="8.73" cy="25.24" r="0.84"/><circle class="cls-2" cx="1.53" cy="25.24" r="0.84"/><circle class="cls-2" cx="41.12" cy="30.76" r="0.84"/><circle class="cls-2" cx="33.92" cy="30.76" r="0.84"/><circle class="cls-2" cx="26.73" cy="30.76" r="0.84"/><circle class="cls-2" cx="19.53" cy="30.76" r="0.84"/><circle class="cls-2" cx="12.33" cy="30.76" r="0.84"/><circle class="cls-2" cx="5.13" cy="30.76" r="0.84"/></pattern><pattern id="New_Pattern-5" data-name="New Pattern" width="43.43" height="32.75" patternTransform="translate(787.29 365.97) scale(0.64 0.61)" patternUnits="userSpaceOnUse" viewBox="0 0 43.43 32.75"><rect class="cls-1" width="43.43" height="32.75"/><circle class="cls-2" cx="37.23" cy="3.07" r="0.84"/><circle class="cls-2" cx="30.03" cy="3.07" r="0.84"/><circle class="cls-2" cx="22.84" cy="3.07" r="0.84"/><circle class="cls-2" cx="15.64" cy="3.07" r="0.84"/><circle class="cls-2" cx="8.44" cy="3.07" r="0.84"/><circle class="cls-2" cx="1.24" cy="3.07" r="0.84"/><circle class="cls-2" cx="40.83" cy="8.58" r="0.84"/><circle class="cls-2" cx="33.63" cy="8.58" r="0.84"/><circle class="cls-2" cx="26.43" cy="8.58" r="0.84"/><circle class="cls-2" cx="19.24" cy="8.58" r="0.84"/><circle class="cls-2" cx="12.04" cy="8.58" r="0.84"/><circle class="cls-2" cx="4.84" cy="8.58" r="0.84"/><circle class="cls-2" cx="37.23" cy="14.16" r="0.84"/><circle class="cls-2" cx="30.03" cy="14.16" r="0.84"/><circle class="cls-2" cx="22.84" cy="14.16" r="0.84"/><circle class="cls-2" cx="15.64" cy="14.16" r="0.84"/><circle class="cls-2" cx="8.44" cy="14.16" r="0.84"/><circle class="cls-2" cx="1.24" cy="14.16" r="0.84"/><circle class="cls-2" cx="40.83" cy="19.68" r="0.84"/><circle class="cls-2" cx="33.63" cy="19.68" r="0.84"/><circle class="cls-2" cx="26.43" cy="19.68" r="0.84"/><circle class="cls-2" cx="19.24" cy="19.68" r="0.84"/><circle class="cls-2" cx="12.04" cy="19.68" r="0.84"/><circle class="cls-2" cx="4.84" cy="19.68" r="0.84"/><circle class="cls-2" cx="37.52" cy="25.24" r="0.84"/><circle class="cls-2" cx="30.33" cy="25.24" r="0.84"/><circle class="cls-2" cx="23.13" cy="25.24" r="0.84"/><circle class="cls-2" cx="15.93" cy="25.24" r="0.84"/><circle class="cls-2" cx="8.73" cy="25.24" r="0.84"/><circle class="cls-2" cx="1.53" cy="25.24" r="0.84"/><circle class="cls-2" cx="41.12" cy="30.76" r="0.84"/><circle class="cls-2" cx="33.92" cy="30.76" r="0.84"/><circle class="cls-2" cx="26.73" cy="30.76" r="0.84"/><circle class="cls-2" cx="19.53" cy="30.76" r="0.84"/><circle class="cls-2" cx="12.33" cy="30.76" r="0.84"/><circle class="cls-2" cx="5.13" cy="30.76" r="0.84"/></pattern><pattern id="New_Pattern-7" data-name="New Pattern" width="43.43" height="32.75" patternTransform="translate(762.9 382.3) scale(0.64 0.61)" patternUnits="userSpaceOnUse" viewBox="0 0 43.43 32.75"><rect class="cls-1" width="43.43" height="32.75"/><circle class="cls-2" cx="37.23" cy="3.07" r="0.84"/><circle class="cls-2" cx="30.03" cy="3.07" r="0.84"/><circle class="cls-2" cx="22.84" cy="3.07" r="0.84"/><circle class="cls-2" cx="15.64" cy="3.07" r="0.84"/><circle class="cls-2" cx="8.44" cy="3.07" r="0.84"/><circle class="cls-2" cx="1.24" cy="3.07" r="0.84"/><circle class="cls-2" cx="40.83" cy="8.58" r="0.84"/><circle class="cls-2" cx="33.63" cy="8.58" r="0.84"/><circle class="cls-2" cx="26.43" cy="8.58" r="0.84"/><circle class="cls-2" cx="19.24" cy="8.58" r="0.84"/><circle class="cls-2" cx="12.04" cy="8.58" r="0.84"/><circle class="cls-2" cx="4.84" cy="8.58" r="0.84"/><circle class="cls-2" cx="37.23" cy="14.16" r="0.84"/><circle class="cls-2" cx="30.03" cy="14.16" r="0.84"/><circle class="cls-2" cx="22.84" cy="14.16" r="0.84"/><circle class="cls-2" cx="15.64" cy="14.16" r="0.84"/><circle class="cls-2" cx="8.44" cy="14.16" r="0.84"/><circle class="cls-2" cx="1.24" cy="14.16" r="0.84"/><circle class="cls-2" cx="40.83" cy="19.68" r="0.84"/><circle class="cls-2" cx="33.63" cy="19.68" r="0.84"/><circle class="cls-2" cx="26.43" cy="19.68" r="0.84"/><circle class="cls-2" cx="19.24" cy="19.68" r="0.84"/><circle class="cls-2" cx="12.04" cy="19.68" r="0.84"/><circle class="cls-2" cx="4.84" cy="19.68" r="0.84"/><circle class="cls-2" cx="37.52" cy="25.24" r="0.84"/><circle class="cls-2" cx="30.33" cy="25.24" r="0.84"/><circle class="cls-2" cx="23.13" cy="25.24" r="0.84"/><circle class="cls-2" cx="15.93" cy="25.24" r="0.84"/><circle class="cls-2" cx="8.73" cy="25.24" r="0.84"/><circle class="cls-2" cx="1.53" cy="25.24" r="0.84"/><circle class="cls-2" cx="41.12" cy="30.76" r="0.84"/><circle class="cls-2" cx="33.92" cy="30.76" r="0.84"/><circle class="cls-2" cx="26.73" cy="30.76" r="0.84"/><circle class="cls-2" cx="19.53" cy="30.76" r="0.84"/><circle class="cls-2" cx="12.33" cy="30.76" r="0.84"/><circle class="cls-2" cx="5.13" cy="30.76" r="0.84"/></pattern><pattern id="New_Pattern-9" data-name="New Pattern" width="43.43" height="32.75" patternTransform="translate(714.49 378.72) scale(0.64 0.61)" patternUnits="userSpaceOnUse" viewBox="0 0 43.43 32.75"><rect class="cls-1" width="43.43" height="32.75"/><circle class="cls-2" cx="37.23" cy="3.07" r="0.84"/><circle class="cls-2" cx="30.03" cy="3.07" r="0.84"/><circle class="cls-2" cx="22.84" cy="3.07" r="0.84"/><circle class="cls-2" cx="15.64" cy="3.07" r="0.84"/><circle class="cls-2" cx="8.44" cy="3.07" r="0.84"/><circle class="cls-2" cx="1.24" cy="3.07" r="0.84"/><circle class="cls-2" cx="40.83" cy="8.58" r="0.84"/><circle class="cls-2" cx="33.63" cy="8.58" r="0.84"/><circle class="cls-2" cx="26.43" cy="8.58" r="0.84"/><circle class="cls-2" cx="19.24" cy="8.58" r="0.84"/><circle class="cls-2" cx="12.04" cy="8.58" r="0.84"/><circle class="cls-2" cx="4.84" cy="8.58" r="0.84"/><circle class="cls-2" cx="37.23" cy="14.16" r="0.84"/><circle class="cls-2" cx="30.03" cy="14.16" r="0.84"/><circle class="cls-2" cx="22.84" cy="14.16" r="0.84"/><circle class="cls-2" cx="15.64" cy="14.16" r="0.84"/><circle class="cls-2" cx="8.44" cy="14.16" r="0.84"/><circle class="cls-2" cx="1.24" cy="14.16" r="0.84"/><circle class="cls-2" cx="40.83" cy="19.68" r="0.84"/><circle class="cls-2" cx="33.63" cy="19.68" r="0.84"/><circle class="cls-2" cx="26.43" cy="19.68" r="0.84"/><circle class="cls-2" cx="19.24" cy="19.68" r="0.84"/><circle class="cls-2" cx="12.04" cy="19.68" r="0.84"/><circle class="cls-2" cx="4.84" cy="19.68" r="0.84"/><circle class="cls-2" cx="37.52" cy="25.24" r="0.84"/><circle class="cls-2" cx="30.33" cy="25.24" r="0.84"/><circle class="cls-2" cx="23.13" cy="25.24" r="0.84"/><circle class="cls-2" cx="15.93" cy="25.24" r="0.84"/><circle class="cls-2" cx="8.73" cy="25.24" r="0.84"/><circle class="cls-2" cx="1.53" cy="25.24" r="0.84"/><circle class="cls-2" cx="41.12" cy="30.76" r="0.84"/><circle class="cls-2" cx="33.92" cy="30.76" r="0.84"/><circle class="cls-2" cx="26.73" cy="30.76" r="0.84"/><circle class="cls-2" cx="19.53" cy="30.76" r="0.84"/><circle class="cls-2" cx="12.33" cy="30.76" r="0.84"/><circle class="cls-2" cx="5.13" cy="30.76" r="0.84"/></pattern><pattern id="New_Pattern-11" data-name="New Pattern" width="43.43" height="32.75" patternTransform="translate(695.38 327.22) scale(0.64 0.61)" patternUnits="userSpaceOnUse" viewBox="0 0 43.43 32.75"><rect class="cls-1" width="43.43" height="32.75"/><circle class="cls-2" cx="37.23" cy="3.07" r="0.84"/><circle class="cls-2" cx="30.03" cy="3.07" r="0.84"/><circle class="cls-2" cx="22.84" cy="3.07" r="0.84"/><circle class="cls-2" cx="15.64" cy="3.07" r="0.84"/><circle class="cls-2" cx="8.44" cy="3.07" r="0.84"/><circle class="cls-2" cx="1.24" cy="3.07" r="0.84"/><circle class="cls-2" cx="40.83" cy="8.58" r="0.84"/><circle class="cls-2" cx="33.63" cy="8.58" r="0.84"/><circle class="cls-2" cx="26.43" cy="8.58" r="0.84"/><circle class="cls-2" cx="19.24" cy="8.58" r="0.84"/><circle class="cls-2" cx="12.04" cy="8.58" r="0.84"/><circle class="cls-2" cx="4.84" cy="8.58" r="0.84"/><circle class="cls-2" cx="37.23" cy="14.16" r="0.84"/><circle class="cls-2" cx="30.03" cy="14.16" r="0.84"/><circle class="cls-2" cx="22.84" cy="14.16" r="0.84"/><circle class="cls-2" cx="15.64" cy="14.16" r="0.84"/><circle class="cls-2" cx="8.44" cy="14.16" r="0.84"/><circle class="cls-2" cx="1.24" cy="14.16" r="0.84"/><circle class="cls-2" cx="40.83" cy="19.68" r="0.84"/><circle class="cls-2" cx="33.63" cy="19.68" r="0.84"/><circle class="cls-2" cx="26.43" cy="19.68" r="0.84"/><circle class="cls-2" cx="19.24" cy="19.68" r="0.84"/><circle class="cls-2" cx="12.04" cy="19.68" r="0.84"/><circle class="cls-2" cx="4.84" cy="19.68" r="0.84"/><circle class="cls-2" cx="37.52" cy="25.24" r="0.84"/><circle class="cls-2" cx="30.33" cy="25.24" r="0.84"/><circle class="cls-2" cx="23.13" cy="25.24" r="0.84"/><circle class="cls-2" cx="15.93" cy="25.24" r="0.84"/><circle class="cls-2" cx="8.73" cy="25.24" r="0.84"/><circle class="cls-2" cx="1.53" cy="25.24" r="0.84"/><circle class="cls-2" cx="41.12" cy="30.76" r="0.84"/><circle class="cls-2" cx="33.92" cy="30.76" r="0.84"/><circle class="cls-2" cx="26.73" cy="30.76" r="0.84"/><circle class="cls-2" cx="19.53" cy="30.76" r="0.84"/><circle class="cls-2" cx="12.33" cy="30.76" r="0.84"/><circle class="cls-2" cx="5.13" cy="30.76" r="0.84"/></pattern><pattern id="New_Pattern-13" data-name="New Pattern" width="43.43" height="32.75" patternTransform="translate(741.87 289.77) scale(0.64 0.61)" patternUnits="userSpaceOnUse" viewBox="0 0 43.43 32.75"><rect class="cls-1" width="43.43" height="32.75"/><circle class="cls-2" cx="37.23" cy="3.07" r="0.84"/><circle class="cls-2" cx="30.03" cy="3.07" r="0.84"/><circle class="cls-2" cx="22.84" cy="3.07" r="0.84"/><circle class="cls-2" cx="15.64" cy="3.07" r="0.84"/><circle class="cls-2" cx="8.44" cy="3.07" r="0.84"/><circle class="cls-2" cx="1.24" cy="3.07" r="0.84"/><circle class="cls-2" cx="40.83" cy="8.58" r="0.84"/><circle class="cls-2" cx="33.63" cy="8.58" r="0.84"/><circle class="cls-2" cx="26.43" cy="8.58" r="0.84"/><circle class="cls-2" cx="19.24" cy="8.58" r="0.84"/><circle class="cls-2" cx="12.04" cy="8.58" r="0.84"/><circle class="cls-2" cx="4.84" cy="8.58" r="0.84"/><circle class="cls-2" cx="37.23" cy="14.16" r="0.84"/><circle class="cls-2" cx="30.03" cy="14.16" r="0.84"/><circle class="cls-2" cx="22.84" cy="14.16" r="0.84"/><circle class="cls-2" cx="15.64" cy="14.16" r="0.84"/><circle class="cls-2" cx="8.44" cy="14.16" r="0.84"/><circle class="cls-2" cx="1.24" cy="14.16" r="0.84"/><circle class="cls-2" cx="40.83" cy="19.68" r="0.84"/><circle class="cls-2" cx="33.63" cy="19.68" r="0.84"/><circle class="cls-2" cx="26.43" cy="19.68" r="0.84"/><circle class="cls-2" cx="19.24" cy="19.68" r="0.84"/><circle class="cls-2" cx="12.04" cy="19.68" r="0.84"/><circle class="cls-2" cx="4.84" cy="19.68" r="0.84"/><circle class="cls-2" cx="37.52" cy="25.24" r="0.84"/><circle class="cls-2" cx="30.33" cy="25.24" r="0.84"/><circle class="cls-2" cx="23.13" cy="25.24" r="0.84"/><circle class="cls-2" cx="15.93" cy="25.24" r="0.84"/><circle class="cls-2" cx="8.73" cy="25.24" r="0.84"/><circle class="cls-2" cx="1.53" cy="25.24" r="0.84"/><circle class="cls-2" cx="41.12" cy="30.76" r="0.84"/><circle class="cls-2" cx="33.92" cy="30.76" r="0.84"/><circle class="cls-2" cx="26.73" cy="30.76" r="0.84"/><circle class="cls-2" cx="19.53" cy="30.76" r="0.84"/><circle class="cls-2" cx="12.33" cy="30.76" r="0.84"/><circle class="cls-2" cx="5.13" cy="30.76" r="0.84"/></pattern><pattern id="New_Pattern-15" data-name="New Pattern" width="43.43" height="32.75" patternTransform="translate(788.35 298.99) scale(0.64 0.61)" patternUnits="userSpaceOnUse" viewBox="0 0 43.43 32.75"><rect class="cls-1" width="43.43" height="32.75"/><circle class="cls-2" cx="37.23" cy="3.07" r="0.84"/><circle class="cls-2" cx="30.03" cy="3.07" r="0.84"/><circle class="cls-2" cx="22.84" cy="3.07" r="0.84"/><circle class="cls-2" cx="15.64" cy="3.07" r="0.84"/><circle class="cls-2" cx="8.44" cy="3.07" r="0.84"/><circle class="cls-2" cx="1.24" cy="3.07" r="0.84"/><circle class="cls-2" cx="40.83" cy="8.58" r="0.84"/><circle class="cls-2" cx="33.63" cy="8.58" r="0.84"/><circle class="cls-2" cx="26.43" cy="8.58" r="0.84"/><circle class="cls-2" cx="19.24" cy="8.58" r="0.84"/><circle class="cls-2" cx="12.04" cy="8.58" r="0.84"/><circle class="cls-2" cx="4.84" cy="8.58" r="0.84"/><circle class="cls-2" cx="37.23" cy="14.16" r="0.84"/><circle class="cls-2" cx="30.03" cy="14.16" r="0.84"/><circle class="cls-2" cx="22.84" cy="14.16" r="0.84"/><circle class="cls-2" cx="15.64" cy="14.16" r="0.84"/><circle class="cls-2" cx="8.44" cy="14.16" r="0.84"/><circle class="cls-2" cx="1.24" cy="14.16" r="0.84"/><circle class="cls-2" cx="40.83" cy="19.68" r="0.84"/><circle class="cls-2" cx="33.63" cy="19.68" r="0.84"/><circle class="cls-2" cx="26.43" cy="19.68" r="0.84"/><circle class="cls-2" cx="19.24" cy="19.68" r="0.84"/><circle class="cls-2" cx="12.04" cy="19.68" r="0.84"/><circle class="cls-2" cx="4.84" cy="19.68" r="0.84"/><circle class="cls-2" cx="37.52" cy="25.24" r="0.84"/><circle class="cls-2" cx="30.33" cy="25.24" r="0.84"/><circle class="cls-2" cx="23.13" cy="25.24" r="0.84"/><circle class="cls-2" cx="15.93" cy="25.24" r="0.84"/><circle class="cls-2" cx="8.73" cy="25.24" r="0.84"/><circle class="cls-2" cx="1.53" cy="25.24" r="0.84"/><circle class="cls-2" cx="41.12" cy="30.76" r="0.84"/><circle class="cls-2" cx="33.92" cy="30.76" r="0.84"/><circle class="cls-2" cx="26.73" cy="30.76" r="0.84"/><circle class="cls-2" cx="19.53" cy="30.76" r="0.84"/><circle class="cls-2" cx="12.33" cy="30.76" r="0.84"/><circle class="cls-2" cx="5.13" cy="30.76" r="0.84"/></pattern><pattern id="New_Pattern-17" data-name="New Pattern" width="43.43" height="32.75" patternTransform="translate(729.72 431.42) scale(0.64 0.61)" patternUnits="userSpaceOnUse" viewBox="0 0 43.43 32.75"><rect class="cls-1" width="43.43" height="32.75"/><circle class="cls-2" cx="37.23" cy="3.07" r="0.84"/><circle class="cls-2" cx="30.03" cy="3.07" r="0.84"/><circle class="cls-2" cx="22.84" cy="3.07" r="0.84"/><circle class="cls-2" cx="15.64" cy="3.07" r="0.84"/><circle class="cls-2" cx="8.44" cy="3.07" r="0.84"/><circle class="cls-2" cx="1.24" cy="3.07" r="0.84"/><circle class="cls-2" cx="40.83" cy="8.58" r="0.84"/><circle class="cls-2" cx="33.63" cy="8.58" r="0.84"/><circle class="cls-2" cx="26.43" cy="8.58" r="0.84"/><circle class="cls-2" cx="19.24" cy="8.58" r="0.84"/><circle class="cls-2" cx="12.04" cy="8.58" r="0.84"/><circle class="cls-2" cx="4.84" cy="8.58" r="0.84"/><circle class="cls-2" cx="37.23" cy="14.16" r="0.84"/><circle class="cls-2" cx="30.03" cy="14.16" r="0.84"/><circle class="cls-2" cx="22.84" cy="14.16" r="0.84"/><circle class="cls-2" cx="15.64" cy="14.16" r="0.84"/><circle class="cls-2" cx="8.44" cy="14.16" r="0.84"/><circle class="cls-2" cx="1.24" cy="14.16" r="0.84"/><circle class="cls-2" cx="40.83" cy="19.68" r="0.84"/><circle class="cls-2" cx="33.63" cy="19.68" r="0.84"/><circle class="cls-2" cx="26.43" cy="19.68" r="0.84"/><circle class="cls-2" cx="19.24" cy="19.68" r="0.84"/><circle class="cls-2" cx="12.04" cy="19.68" r="0.84"/><circle class="cls-2" cx="4.84" cy="19.68" r="0.84"/><circle class="cls-2" cx="37.52" cy="25.24" r="0.84"/><circle class="cls-2" cx="30.33" cy="25.24" r="0.84"/><circle class="cls-2" cx="23.13" cy="25.24" r="0.84"/><circle class="cls-2" cx="15.93" cy="25.24" r="0.84"/><circle class="cls-2" cx="8.73" cy="25.24" r="0.84"/><circle class="cls-2" cx="1.53" cy="25.24" r="0.84"/><circle class="cls-2" cx="41.12" cy="30.76" r="0.84"/><circle class="cls-2" cx="33.92" cy="30.76" r="0.84"/><circle class="cls-2" cx="26.73" cy="30.76" r="0.84"/><circle class="cls-2" cx="19.53" cy="30.76" r="0.84"/><circle class="cls-2" cx="12.33" cy="30.76" r="0.84"/><circle class="cls-2" cx="5.13" cy="30.76" r="0.84"/></pattern><pattern id="New_Pattern-19" data-name="New Pattern" width="43.43" height="32.75" patternTransform="translate(722.05 390.64) scale(0.64 0.61)" patternUnits="userSpaceOnUse" viewBox="0 0 43.43 32.75"><rect class="cls-1" width="43.43" height="32.75"/><circle class="cls-2" cx="37.23" cy="3.07" r="0.84"/><circle class="cls-2" cx="30.03" cy="3.07" r="0.84"/><circle class="cls-2" cx="22.84" cy="3.07" r="0.84"/><circle class="cls-2" cx="15.64" cy="3.07" r="0.84"/><circle class="cls-2" cx="8.44" cy="3.07" r="0.84"/><circle class="cls-2" cx="1.24" cy="3.07" r="0.84"/><circle class="cls-2" cx="40.83" cy="8.58" r="0.84"/><circle class="cls-2" cx="33.63" cy="8.58" r="0.84"/><circle class="cls-2" cx="26.43" cy="8.58" r="0.84"/><circle class="cls-2" cx="19.24" cy="8.58" r="0.84"/><circle class="cls-2" cx="12.04" cy="8.58" r="0.84"/><circle class="cls-2" cx="4.84" cy="8.58" r="0.84"/><circle class="cls-2" cx="37.23" cy="14.16" r="0.84"/><circle class="cls-2" cx="30.03" cy="14.16" r="0.84"/><circle class="cls-2" cx="22.84" cy="14.16" r="0.84"/><circle class="cls-2" cx="15.64" cy="14.16" r="0.84"/><circle class="cls-2" cx="8.44" cy="14.16" r="0.84"/><circle class="cls-2" cx="1.24" cy="14.16" r="0.84"/><circle class="cls-2" cx="40.83" cy="19.68" r="0.84"/><circle class="cls-2" cx="33.63" cy="19.68" r="0.84"/><circle class="cls-2" cx="26.43" cy="19.68" r="0.84"/><circle class="cls-2" cx="19.24" cy="19.68" r="0.84"/><circle class="cls-2" cx="12.04" cy="19.68" r="0.84"/><circle class="cls-2" cx="4.84" cy="19.68" r="0.84"/><circle class="cls-2" cx="37.52" cy="25.24" r="0.84"/><circle class="cls-2" cx="30.33" cy="25.24" r="0.84"/><circle class="cls-2" cx="23.13" cy="25.24" r="0.84"/><circle class="cls-2" cx="15.93" cy="25.24" r="0.84"/><circle class="cls-2" cx="8.73" cy="25.24" r="0.84"/><circle class="cls-2" cx="1.53" cy="25.24" r="0.84"/><circle class="cls-2" cx="41.12" cy="30.76" r="0.84"/><circle class="cls-2" cx="33.92" cy="30.76" r="0.84"/><circle class="cls-2" cx="26.73" cy="30.76" r="0.84"/><circle class="cls-2" cx="19.53" cy="30.76" r="0.84"/><circle class="cls-2" cx="12.33" cy="30.76" r="0.84"/><circle class="cls-2" cx="5.13" cy="30.76" r="0.84"/></pattern><pattern id="New_Pattern-21" data-name="New Pattern" width="43.43" height="32.75" patternTransform="matrix(0.64, -0.01, 0.01, 0.61, 695.22, 474.81)" patternUnits="userSpaceOnUse" viewBox="0 0 43.43 32.75"><rect class="cls-1" width="43.43" height="32.75"/><circle class="cls-2" cx="37.23" cy="3.07" r="0.84"/><circle class="cls-2" cx="30.03" cy="3.07" r="0.84"/><circle class="cls-2" cx="22.84" cy="3.07" r="0.84"/><circle class="cls-2" cx="15.64" cy="3.07" r="0.84"/><circle class="cls-2" cx="8.44" cy="3.07" r="0.84"/><circle class="cls-2" cx="1.24" cy="3.07" r="0.84"/><circle class="cls-2" cx="40.83" cy="8.58" r="0.84"/><circle class="cls-2" cx="33.63" cy="8.58" r="0.84"/><circle class="cls-2" cx="26.43" cy="8.58" r="0.84"/><circle class="cls-2" cx="19.24" cy="8.58" r="0.84"/><circle class="cls-2" cx="12.04" cy="8.58" r="0.84"/><circle class="cls-2" cx="4.84" cy="8.58" r="0.84"/><circle class="cls-2" cx="37.23" cy="14.16" r="0.84"/><circle class="cls-2" cx="30.03" cy="14.16" r="0.84"/><circle class="cls-2" cx="22.84" cy="14.16" r="0.84"/><circle class="cls-2" cx="15.64" cy="14.16" r="0.84"/><circle class="cls-2" cx="8.44" cy="14.16" r="0.84"/><circle class="cls-2" cx="1.24" cy="14.16" r="0.84"/><circle class="cls-2" cx="40.83" cy="19.68" r="0.84"/><circle class="cls-2" cx="33.63" cy="19.68" r="0.84"/><circle class="cls-2" cx="26.43" cy="19.68" r="0.84"/><circle class="cls-2" cx="19.24" cy="19.68" r="0.84"/><circle class="cls-2" cx="12.04" cy="19.68" r="0.84"/><circle class="cls-2" cx="4.84" cy="19.68" r="0.84"/><circle class="cls-2" cx="37.52" cy="25.24" r="0.84"/><circle class="cls-2" cx="30.33" cy="25.24" r="0.84"/><circle class="cls-2" cx="23.13" cy="25.24" r="0.84"/><circle class="cls-2" cx="15.93" cy="25.24" r="0.84"/><circle class="cls-2" cx="8.73" cy="25.24" r="0.84"/><circle class="cls-2" cx="1.53" cy="25.24" r="0.84"/><circle class="cls-2" cx="41.12" cy="30.76" r="0.84"/><circle class="cls-2" cx="33.92" cy="30.76" r="0.84"/><circle class="cls-2" cx="26.73" cy="30.76" r="0.84"/><circle class="cls-2" cx="19.53" cy="30.76" r="0.84"/><circle class="cls-2" cx="12.33" cy="30.76" r="0.84"/><circle class="cls-2" cx="5.13" cy="30.76" r="0.84"/></pattern><pattern id="New_Pattern-23" data-name="New Pattern" width="43.43" height="32.75" patternTransform="translate(722.05 391.64) scale(0.64 0.61)" patternUnits="userSpaceOnUse" viewBox="0 0 43.43 32.75"><rect class="cls-1" width="43.43" height="32.75"/><circle class="cls-2" cx="37.23" cy="3.07" r="0.84"/><circle class="cls-2" cx="30.03" cy="3.07" r="0.84"/><circle class="cls-2" cx="22.84" cy="3.07" r="0.84"/><circle class="cls-2" cx="15.64" cy="3.07" r="0.84"/><circle class="cls-2" cx="8.44" cy="3.07" r="0.84"/><circle class="cls-2" cx="1.24" cy="3.07" r="0.84"/><circle class="cls-2" cx="40.83" cy="8.58" r="0.84"/><circle class="cls-2" cx="33.63" cy="8.58" r="0.84"/><circle class="cls-2" cx="26.43" cy="8.58" r="0.84"/><circle class="cls-2" cx="19.24" cy="8.58" r="0.84"/><circle class="cls-2" cx="12.04" cy="8.58" r="0.84"/><circle class="cls-2" cx="4.84" cy="8.58" r="0.84"/><circle class="cls-2" cx="37.23" cy="14.16" r="0.84"/><circle class="cls-2" cx="30.03" cy="14.16" r="0.84"/><circle class="cls-2" cx="22.84" cy="14.16" r="0.84"/><circle class="cls-2" cx="15.64" cy="14.16" r="0.84"/><circle class="cls-2" cx="8.44" cy="14.16" r="0.84"/><circle class="cls-2" cx="1.24" cy="14.16" r="0.84"/><circle class="cls-2" cx="40.83" cy="19.68" r="0.84"/><circle class="cls-2" cx="33.63" cy="19.68" r="0.84"/><circle class="cls-2" cx="26.43" cy="19.68" r="0.84"/><circle class="cls-2" cx="19.24" cy="19.68" r="0.84"/><circle class="cls-2" cx="12.04" cy="19.68" r="0.84"/><circle class="cls-2" cx="4.84" cy="19.68" r="0.84"/><circle class="cls-2" cx="37.52" cy="25.24" r="0.84"/><circle class="cls-2" cx="30.33" cy="25.24" r="0.84"/><circle class="cls-2" cx="23.13" cy="25.24" r="0.84"/><circle class="cls-2" cx="15.93" cy="25.24" r="0.84"/><circle class="cls-2" cx="8.73" cy="25.24" r="0.84"/><circle class="cls-2" cx="1.53" cy="25.24" r="0.84"/><circle class="cls-2" cx="41.12" cy="30.76" r="0.84"/><circle class="cls-2" cx="33.92" cy="30.76" r="0.84"/><circle class="cls-2" cx="26.73" cy="30.76" r="0.84"/><circle class="cls-2" cx="19.53" cy="30.76" r="0.84"/><circle class="cls-2" cx="12.33" cy="30.76" r="0.84"/><circle class="cls-2" cx="5.13" cy="30.76" r="0.84"/></pattern><pattern id="New_Pattern-25" data-name="New Pattern" width="43.43" height="32.75" patternTransform="translate(797.4 337.65) scale(0.95 0.91)" patternUnits="userSpaceOnUse" viewBox="0 0 43.43 32.75"><rect class="cls-1" width="43.43" height="32.75"/><circle class="cls-2" cx="37.23" cy="3.07" r="0.84"/><circle class="cls-2" cx="30.03" cy="3.07" r="0.84"/><circle class="cls-2" cx="22.84" cy="3.07" r="0.84"/><circle class="cls-2" cx="15.64" cy="3.07" r="0.84"/><circle class="cls-2" cx="8.44" cy="3.07" r="0.84"/><circle class="cls-2" cx="1.24" cy="3.07" r="0.84"/><circle class="cls-2" cx="40.83" cy="8.58" r="0.84"/><circle class="cls-2" cx="33.63" cy="8.58" r="0.84"/><circle class="cls-2" cx="26.43" cy="8.58" r="0.84"/><circle class="cls-2" cx="19.24" cy="8.58" r="0.84"/><circle class="cls-2" cx="12.04" cy="8.58" r="0.84"/><circle class="cls-2" cx="4.84" cy="8.58" r="0.84"/><circle class="cls-2" cx="37.23" cy="14.16" r="0.84"/><circle class="cls-2" cx="30.03" cy="14.16" r="0.84"/><circle class="cls-2" cx="22.84" cy="14.16" r="0.84"/><circle class="cls-2" cx="15.64" cy="14.16" r="0.84"/><circle class="cls-2" cx="8.44" cy="14.16" r="0.84"/><circle class="cls-2" cx="1.24" cy="14.16" r="0.84"/><circle class="cls-2" cx="40.83" cy="19.68" r="0.84"/><circle class="cls-2" cx="33.63" cy="19.68" r="0.84"/><circle class="cls-2" cx="26.43" cy="19.68" r="0.84"/><circle class="cls-2" cx="19.24" cy="19.68" r="0.84"/><circle class="cls-2" cx="12.04" cy="19.68" r="0.84"/><circle class="cls-2" cx="4.84" cy="19.68" r="0.84"/><circle class="cls-2" cx="37.52" cy="25.24" r="0.84"/><circle class="cls-2" cx="30.33" cy="25.24" r="0.84"/><circle class="cls-2" cx="23.13" cy="25.24" r="0.84"/><circle class="cls-2" cx="15.93" cy="25.24" r="0.84"/><circle class="cls-2" cx="8.73" cy="25.24" r="0.84"/><circle class="cls-2" cx="1.53" cy="25.24" r="0.84"/><circle class="cls-2" cx="41.12" cy="30.76" r="0.84"/><circle class="cls-2" cx="33.92" cy="30.76" r="0.84"/><circle class="cls-2" cx="26.73" cy="30.76" r="0.84"/><circle class="cls-2" cx="19.53" cy="30.76" r="0.84"/><circle class="cls-2" cx="12.33" cy="30.76" r="0.84"/><circle class="cls-2" cx="5.13" cy="30.76" r="0.84"/></pattern><pattern id="New_Pattern-27" data-name="New Pattern" width="43.43" height="32.75" patternTransform="translate(729.72 388.65) scale(0.64 0.61)" patternUnits="userSpaceOnUse" viewBox="0 0 43.43 32.75"><rect class="cls-1" width="43.43" height="32.75"/><circle class="cls-2" cx="37.23" cy="3.07" r="0.84"/><circle class="cls-2" cx="30.03" cy="3.07" r="0.84"/><circle class="cls-2" cx="22.84" cy="3.07" r="0.84"/><circle class="cls-2" cx="15.64" cy="3.07" r="0.84"/><circle class="cls-2" cx="8.44" cy="3.07" r="0.84"/><circle class="cls-2" cx="1.24" cy="3.07" r="0.84"/><circle class="cls-2" cx="40.83" cy="8.58" r="0.84"/><circle class="cls-2" cx="33.63" cy="8.58" r="0.84"/><circle class="cls-2" cx="26.43" cy="8.58" r="0.84"/><circle class="cls-2" cx="19.24" cy="8.58" r="0.84"/><circle class="cls-2" cx="12.04" cy="8.58" r="0.84"/><circle class="cls-2" cx="4.84" cy="8.58" r="0.84"/><circle class="cls-2" cx="37.23" cy="14.16" r="0.84"/><circle class="cls-2" cx="30.03" cy="14.16" r="0.84"/><circle class="cls-2" cx="22.84" cy="14.16" r="0.84"/><circle class="cls-2" cx="15.64" cy="14.16" r="0.84"/><circle class="cls-2" cx="8.44" cy="14.16" r="0.84"/><circle class="cls-2" cx="1.24" cy="14.16" r="0.84"/><circle class="cls-2" cx="40.83" cy="19.68" r="0.84"/><circle class="cls-2" cx="33.63" cy="19.68" r="0.84"/><circle class="cls-2" cx="26.43" cy="19.68" r="0.84"/><circle class="cls-2" cx="19.24" cy="19.68" r="0.84"/><circle class="cls-2" cx="12.04" cy="19.68" r="0.84"/><circle class="cls-2" cx="4.84" cy="19.68" r="0.84"/><circle class="cls-2" cx="37.52" cy="25.24" r="0.84"/><circle class="cls-2" cx="30.33" cy="25.24" r="0.84"/><circle class="cls-2" cx="23.13" cy="25.24" r="0.84"/><circle class="cls-2" cx="15.93" cy="25.24" r="0.84"/><circle class="cls-2" cx="8.73" cy="25.24" r="0.84"/><circle class="cls-2" cx="1.53" cy="25.24" r="0.84"/><circle class="cls-2" cx="41.12" cy="30.76" r="0.84"/><circle class="cls-2" cx="33.92" cy="30.76" r="0.84"/><circle class="cls-2" cx="26.73" cy="30.76" r="0.84"/><circle class="cls-2" cx="19.53" cy="30.76" r="0.84"/><circle class="cls-2" cx="12.33" cy="30.76" r="0.84"/><circle class="cls-2" cx="5.13" cy="30.76" r="0.84"/></pattern></defs><title>Artboard 3 copy 2</title><g id="Layer_5" data-name="Layer 5"><polyline class="cls-3" points="395.04 313.01 670.92 172.4 831.13 254.11"/><line class="cls-3" x1="395.04" y1="394.5" x2="395.04" y2="313.01"/><line class="cls-3" x1="555.24" y1="829.14" x2="468.5" y2="784.5"/><polyline class="cls-3" points="555.25 829.14 831.33 689.99 831.13 254.11"/><line class="cls-4" x1="670.83" y1="608.45" x2="673.5" y2="609.81"/><line class="cls-5" x1="678.84" y1="612.54" x2="825.69" y2="687.44"/><line class="cls-4" x1="828.36" y1="688.8" x2="831.03" y2="690.16"/><line class="cls-4" x1="468.5" y1="712.5" x2="471.17" y2="711.13"/><line class="cls-6" x1="476.5" y1="708.4" x2="665.69" y2="611.3"/><line class="cls-4" x1="668.36" y1="609.93" x2="671.03" y2="608.56"/><polyline class="cls-7" points="759.35 659.59 718.87 638.88 759.35 618.24 799.83 638.88"/><polygon class="cls-8" points="759.35 706.03 799.83 685.32 799.83 638.88 759.35 659.59 759.35 706.03"/><polygon class="cls-7" points="759.35 706.03 718.87 685.32 718.87 638.88 759.35 659.59 759.35 706.03"/><polygon class="cls-9" points="759.35 706.03 799.83 685.32 799.83 638.88 759.35 659.59 759.35 706.03"/><polygon class="cls-10" points="759.35 706.03 799.83 685.32 799.83 638.88 759.35 659.59 759.35 706.03"/><line class="cls-11" x1="758.85" y1="629.49" x2="758.85" y2="503.11"/><polyline class="cls-2" points="753.83 629.49 764.22 629.49 759.08 636.58 753.83 629.49"/><polyline class="cls-7" points="759.35 479.67 718.87 458.96 759.35 438.32 799.83 458.96"/><polygon class="cls-8" points="759.35 526.11 799.83 505.4 799.83 458.96 759.35 479.67 759.35 526.11"/><polygon class="cls-7" points="759.35 526.11 718.87 505.4 718.87 458.96 759.35 479.67 759.35 526.11"/><polygon class="cls-9" points="759.35 526.11 799.83 505.4 799.83 458.96 759.35 479.67 759.35 526.11"/><polygon class="cls-12" points="759.35 526.11 799.83 505.4 799.83 458.96 759.35 479.67 759.35 526.11"/><polyline class="cls-7" points="682.72 519.68 642.24 498.97 682.72 478.33 723.2 498.97"/><polygon class="cls-8" points="682.72 566.12 723.2 545.41 723.2 498.97 682.72 519.68 682.72 566.12"/><polygon class="cls-7" points="682.72 566.12 642.24 545.41 642.24 498.97 682.72 519.68 682.72 566.12"/><polygon class="cls-9" points="682.72 566.12 723.2 545.41 723.2 498.97 682.72 519.68 682.72 566.12"/><polygon class="cls-13" points="682.72 566.12 723.2 545.41 723.2 498.97 682.72 519.68 682.72 566.12"/><polyline class="cls-7" points="602.78 555.97 562.3 535.26 602.78 514.62 643.26 535.26"/><polygon class="cls-8" points="602.78 602.41 643.26 581.7 643.26 535.26 602.78 555.97 602.78 602.41"/><polygon class="cls-7" points="602.78 602.41 562.3 581.7 562.3 535.26 602.78 555.97 602.78 602.41"/><polygon class="cls-9" points="602.78 602.41 643.26 581.7 643.26 535.26 602.78 555.97 602.78 602.41"/><polygon class="cls-14" points="602.78 602.41 643.26 581.7 643.26 535.26 602.78 555.97 602.78 602.41"/><polyline class="cls-11" points="720.49 394.59 720.49 434.47 759.11 414.97 759.11 459.54"/><polyline class="cls-11" points="720.49 434.47 683.11 454.37 683.11 497.86"/><polyline class="cls-2" points="678.11 494.24 688.49 494.24 683.35 501.32 678.11 494.24"/><polyline class="cls-2" points="754.11 457.24 764.49 457.24 759.35 464.32 754.11 457.24"/><polyline class="cls-7" points="526.59 592.32 486.11 571.61 526.59 550.97 567.08 571.61"/><polygon class="cls-8" points="526.59 638.76 567.08 618.05 567.08 571.61 526.59 592.32 526.59 638.76"/><polygon class="cls-7" points="526.59 638.76 486.11 618.05 486.11 571.61 526.59 592.32 526.59 638.76"/><polygon class="cls-9" points="526.59 638.76 567.08 618.05 567.08 571.61 526.59 592.32 526.59 638.76"/><polygon class="cls-15" points="526.59 638.76 567.08 618.05 567.08 571.61 526.59 592.32 526.59 638.76"/><polyline class="cls-11" points="563.22 468.84 563.22 508.73 601.83 489.23 601.83 533.79"/><polyline class="cls-11" points="563.22 508.73 525.83 528.62 525.83 572.11"/><polyline class="cls-2" points="520.83 568.49 531.22 568.49 526.08 575.58 520.83 568.49"/><polyline class="cls-2" points="596.83 531.49 607.22 531.49 602.08 538.58 596.83 531.49"/><polyline class="cls-7" points="535.26 441.01 494.78 420.3 569.78 383.34 610.26 403.98"/><polygon class="cls-8" points="535.26 487.45 610.26 450.42 610.26 403.98 535.26 441.01 535.26 487.45"/><polygon class="cls-7" points="535.26 487.45 494.78 466.74 494.78 420.3 535.26 441.01 535.26 487.45"/><polygon class="cls-9" points="535.26 487.45 610.26 450.42 610.26 403.98 535.26 441.01 535.26 487.45"/><polygon class="cls-16" points="535.26 487.45 610.26 450.42 610.26 403.98 535.26 441.01 535.26 487.45"/><polyline class="cls-7" points="692.86 363.63 652.38 342.92 727.38 305.95 767.86 326.6"/><polygon class="cls-8" points="692.86 410.06 767.86 373.04 767.86 326.6 692.86 363.63 692.86 410.06"/><polygon class="cls-7" points="692.86 410.06 652.38 389.36 652.38 342.92 692.86 363.63 692.86 410.06"/><polygon class="cls-9" points="692.86 410.06 767.86 373.04 767.86 326.6 692.86 363.63 692.86 410.06"/><polygon class="cls-17" points="692.86 410.06 767.86 373.04 767.86 326.6 692.86 363.63 692.86 410.06"/><polyline class="cls-7" points="628.23 273.03 587.75 252.32 628.23 231.68 668.72 252.32"/><polygon class="cls-8" points="628.23 319.47 668.72 298.76 668.72 252.32 628.23 273.03 628.23 319.47"/><polygon class="cls-7" points="628.23 319.47 587.75 298.76 587.75 252.32 628.23 273.03 628.23 319.47"/><polygon class="cls-9" points="628.23 319.47 668.72 298.76 668.72 252.32 628.23 273.03 628.23 319.47"/><polygon class="cls-18" points="628.23 319.47 668.72 298.76 668.72 252.32 628.23 273.03 628.23 319.47"/><polyline class="cls-11" points="666.07 257.96 712.09 235.03 710.87 333.63"/><text class="cls-19" transform="translate(764.76 197.4) scale(1.13 1)">tree</text><polyline class="cls-20" points="814 202.5 759.08 202.5 749.08 212.5"/><polyline class="cls-11" points="608.66 284.98 546.83 316.67 546.83 399.49"/><polyline class="cls-2" points="705.83 329.49 716.22 329.49 711.08 336.58 705.83 329.49"/><polyline class="cls-2" points="541.83 398.49 552.22 398.49 547.08 405.58 541.83 398.49"/><text class="cls-21" transform="translate(127.83 387.56) scale(1.13 1)">chain</text><polyline class="cls-22" points="129.83 391.99 194.75 391.99 204.75 402"/><line class="cls-11" x1="374.83" y1="701.49" x2="374.83" y2="721.49"/><polyline class="cls-23" points="375.17 664.98 334.69 644.27 375.17 623.63 415.65 644.27"/><polygon class="cls-8" points="375.17 711.42 415.65 690.71 415.65 644.27 375.17 664.98 375.17 711.42"/><polygon class="cls-23" points="375.17 711.42 334.69 690.71 334.69 644.27 375.17 664.98 375.17 711.42"/><polygon class="cls-9" points="375.17 711.42 415.65 690.71 415.65 644.27 375.17 664.98 375.17 711.42"/><polygon class="cls-24" points="375.17 711.42 415.65 690.71 415.65 644.27 375.17 664.98 375.17 711.42"/><line class="cls-25" x1="375.17" y1="564.49" x2="375.17" y2="643.1"/><polyline class="cls-2" points="369.98 640.76 380.36 640.76 375.23 647.85 369.98 640.76"/><polyline class="cls-26" points="311.95 424.58 271.47 403.87 311.95 383.22 352.43 403.87"/><polygon class="cls-8" points="311.95 471.01 352.43 450.31 352.43 403.87 311.95 424.58 311.95 471.01"/><polygon class="cls-26" points="311.95 471.01 271.47 450.31 271.47 403.87 311.95 424.58 311.95 471.01"/><polygon class="cls-9" points="311.95 471.01 352.43 450.31 352.43 403.87 311.95 424.58 311.95 471.01"/><polygon class="cls-27" points="311.95 471.01 352.43 450.31 352.43 403.87 311.95 424.58 311.95 471.01"/><polyline class="cls-11" points="344.94 419.71 374.83 404.99 374.83 503.49"/><polyline class="cls-2" points="369.83 500.49 380.21 500.49 375.08 507.58 369.83 500.49"/><polyline class="cls-23" points="332.35 859.35 291.67 839.03 331.95 817.99 372.63 838.25"/><polygon class="cls-8" points="332.8 905.78 373.08 884.68 372.63 838.25 332.35 859.35 332.8 905.78"/><polygon class="cls-23" points="332.8 905.78 292.12 885.46 291.67 839.03 332.35 859.35 332.8 905.78"/><polygon class="cls-9" points="332.8 905.78 373.08 884.68 372.63 838.25 332.35 859.35 332.8 905.78"/><polygon class="cls-28" points="332.8 905.78 373.08 884.68 372.63 838.25 332.35 859.35 332.8 905.78"/><line class="cls-29" x1="308.1" y1="792.21" x2="310.77" y2="793.58"/><line class="cls-30" x1="316.11" y1="796.3" x2="462.96" y2="871.2"/><line class="cls-29" x1="465.63" y1="872.57" x2="468.31" y2="873.93"/><line class="cls-29" x1="162.32" y1="866.45" x2="165" y2="865.09"/><line class="cls-31" x1="170.2" y1="862.44" x2="302.82" y2="794.9"/><line class="cls-29" x1="305.42" y1="793.58" x2="308.1" y2="792.21"/><polyline class="cls-23" points="311.95 425.58 271.47 404.87 311.95 384.22 352.43 404.87"/><polygon class="cls-8" points="311.95 472.01 352.43 451.31 352.43 404.87 311.95 425.58 311.95 472.01"/><polygon class="cls-23" points="311.95 472.01 271.47 451.31 271.47 404.87 311.95 425.58 311.95 472.01"/><polygon class="cls-9" points="311.95 472.01 352.43 451.31 352.43 404.87 311.95 425.58 311.95 472.01"/><polygon class="cls-32" points="311.95 472.01 352.43 451.31 352.43 404.87 311.95 425.58 311.95 472.01"/><polyline class="cls-11" points="289.42 436.66 253.83 456.94 253.83 787.27 332.38 745.07 332.38 835.49"/><line class="cls-11" x1="332.95" y1="744.57" x2="374.83" y2="722.49"/><polyline class="cls-2" points="326.83 835.49 337.21 835.49 332.08 842.58 326.83 835.49"/><polygon class="cls-33" points="308.06 350.16 162.28 424.4 162.28 866.63 322.49 948.44 468.27 874.1 468.27 431.87 308.06 350.16"/><polyline class="cls-34" points="162.28 424.4 308.06 350.16 468.27 431.87"/><text class="cls-35" transform="translate(367.36 120.84) scale(1.13 1)">root</text><polyline class="cls-36" points="365.36 125.84 420.28 125.84 430.28 135.85"/><polyline class="cls-11" points="519.1 159.88 628.83 103.04 628.83 250.49"/><polygon class="cls-37" points="459.71 121.7 399.39 152.47 399.39 221.67 459.71 252.53 520.03 221.67 520.03 152.47 459.71 121.7"/><polyline class="cls-9" points="460.14 182.69 399.82 151.82 460.14 121.06 520.47 151.82"/><polygon class="cls-38" points="460.14 251.88 520.47 221.03 520.47 151.82 460.14 182.69 460.14 251.88"/><polygon class="cls-9" points="460.14 252.88 399.82 222.03 399.82 151.82 460.14 182.69 460.14 252.88"/><polygon class="cls-9" points="460.14 251.88 520.47 221.03 520.47 151.82 460.14 182.69 460.14 251.88"/><polygon class="cls-39" points="459.64 251.52 519.97 220.66 519.97 151.46 459.64 182.32 459.64 251.52"/><polyline class="cls-11" points="429.45 202 311.83 263.23 311.83 400.49"/><polyline class="cls-2" points="306 400 316.38 400 311.24 407.08 306 400"/><polyline class="cls-2" points="624 249 634.38 249 629.24 256.08 624 249"/><polyline class="cls-23" points="375.17 522.4 334.69 501.69 375.17 481.05 415.65 501.69"/><polygon class="cls-8" points="375.17 568.84 415.65 548.13 415.65 501.69 375.17 522.4 375.17 568.84"/><polygon class="cls-23" points="375.17 568.84 334.69 548.13 334.69 501.69 375.17 522.4 375.17 568.84"/><polygon class="cls-9" points="375.17 568.84 415.65 548.13 415.65 501.69 375.17 522.4 375.17 568.84"/><polygon class="cls-40" points="375.17 568.84 415.65 548.13 415.65 501.69 375.17 522.4 375.17 568.84"/></g></svg>