<svg width="143" height="429" viewBox="0 0 143 429" fill="none" xmlns="http://www.w3.org/2000/svg">
<path opacity="0.2" fill-rule="evenodd" clip-rule="evenodd" d="M-78.1 0.263916C-78.1 0.263916 26.2268 20.898 26.2268 105.021C26.2268 189.144 73.6528 175.09 93.1268 279.826C112.601 384.562 -58.0239 387.639 -42.5255 421.079C-27.027 454.519 -78.1 332.327 -78.1 332.327V0.263916Z" fill="#D95535"/>
<path fill-rule="evenodd" clip-rule="evenodd" d="M61.2343 148.967C52.1216 148.967 44.2343 135.627 44.2343 129C44.2343 122.373 51.6216 117 60.7343 117C69.847 117 85.8336 120.592 77.2343 129C68.6349 137.408 70.347 148.967 61.2343 148.967Z" fill="#F7DDD7"/>
<path d="M81.2343 163.5H74.1238" stroke="#EEB330" stroke-width="2" stroke-linecap="round" stroke-linejoin="round"/>
<path d="M61.2343 163.5H54.1238" stroke="#EEB330" stroke-width="2" stroke-linecap="round" stroke-linejoin="round"/>
<path d="M41.2343 163.5H34.1238" stroke="#EEB330" stroke-width="2" stroke-linecap="round" stroke-linejoin="round"/>
<path d="M21.2343 163.5H14.1238" stroke="#EEB330" stroke-width="2" stroke-linecap="round" stroke-linejoin="round"/>
<path d="M1.23425 163.5H-5.87621" stroke="#EEB330" stroke-width="2" stroke-linecap="round" stroke-linejoin="round"/>
<path d="M61.2343 100.5H54.1238" stroke="#EEB330" stroke-width="2" stroke-linecap="round" stroke-linejoin="round"/>
<path d="M41.2343 100.5H34.1238" stroke="#EEB330" stroke-width="2" stroke-linecap="round" stroke-linejoin="round"/>
<path d="M21.2343 100.5H14.1238" stroke="#EEB330" stroke-width="2" stroke-linecap="round" stroke-linejoin="round"/>
<path d="M1.23425 100.5H-5.87621" stroke="#EEB330" stroke-width="2" stroke-linecap="round" stroke-linejoin="round"/>
<path d="M1.23425 79.5H-5.87621" stroke="#EEB330" stroke-width="2" stroke-linecap="round" stroke-linejoin="round"/>
<path d="M71.2343 184.5H64.1238" stroke="#EEB330" stroke-width="2" stroke-linecap="round" stroke-linejoin="round"/>
<path d="M51.2343 184.5H44.1238" stroke="#EEB330" stroke-width="2" stroke-linecap="round" stroke-linejoin="round"/>
<path d="M31.2343 184.5H24.1238" stroke="#EEB330" stroke-width="2" stroke-linecap="round" stroke-linejoin="round"/>
<path d="M101.234 205.5H94.1238" stroke="#EEB330" stroke-width="2" stroke-linecap="round" stroke-linejoin="round"/>
<path d="M81.2343 205.5H74.1238" stroke="#EEB330" stroke-width="2" stroke-linecap="round" stroke-linejoin="round"/>
<path d="M61.2343 205.5H54.1238" stroke="#EEB330" stroke-width="2" stroke-linecap="round" stroke-linejoin="round"/>
<path d="M41.2343 205.5H34.1238" stroke="#EEB330" stroke-width="2" stroke-linecap="round" stroke-linejoin="round"/>
<path d="M41.2343 226.5H34.1238" stroke="#EEB330" stroke-width="2" stroke-linecap="round" stroke-linejoin="round"/>
<path d="M21.2343 226.5H14.1238" stroke="#EEB330" stroke-width="2" stroke-linecap="round" stroke-linejoin="round"/>
<path d="M1.23425 226.5H-5.87621" stroke="#EEB330" stroke-width="2" stroke-linecap="round" stroke-linejoin="round"/>
<path d="M101.234 247.5H94.1238" stroke="#EEB330" stroke-width="2" stroke-linecap="round" stroke-linejoin="round"/>
<path d="M41.2343 247.5H34.1238" stroke="#EEB330" stroke-width="2" stroke-linecap="round" stroke-linejoin="round"/>
<path d="M21.2343 247.5H14.1238" stroke="#EEB330" stroke-width="2" stroke-linecap="round" stroke-linejoin="round"/>
<path d="M1.23425 247.5H-5.87621" stroke="#EEB330" stroke-width="2" stroke-linecap="round" stroke-linejoin="round"/>
<path d="M51.2343 268.5H44.1238" stroke="#EEB330" stroke-width="2" stroke-linecap="round" stroke-linejoin="round"/>
<path d="M31.2343 268.5H24.1238" stroke="#EEB330" stroke-width="2" stroke-linecap="round" stroke-linejoin="round"/>
<path d="M11.2343 268.5H4.12379" stroke="#EEB330" stroke-width="2" stroke-linecap="round" stroke-linejoin="round"/>
<path d="M111.234 289.5H104.124" stroke="#EEB330" stroke-width="2" stroke-linecap="round" stroke-linejoin="round"/>
<path d="M51.2343 289.5H44.1238" stroke="#EEB330" stroke-width="2" stroke-linecap="round" stroke-linejoin="round"/>
<path d="M31.2343 289.5H24.1238" stroke="#EEB330" stroke-width="2" stroke-linecap="round" stroke-linejoin="round"/>
<path d="M11.2343 289.5H4.12379" stroke="#EEB330" stroke-width="2" stroke-linecap="round" stroke-linejoin="round"/>
<path d="M141.234 310.5H134.124" stroke="#EEB330" stroke-width="2" stroke-linecap="round" stroke-linejoin="round"/>
<path d="M121.234 310.5H114.124" stroke="#EEB330" stroke-width="2" stroke-linecap="round" stroke-linejoin="round"/>
<path d="M61.2343 310.5H54.1238" stroke="#EEB330" stroke-width="2" stroke-linecap="round" stroke-linejoin="round"/>
<path d="M41.2343 310.5H34.1238" stroke="#EEB330" stroke-width="2" stroke-linecap="round" stroke-linejoin="round"/>
<path d="M21.2343 310.5H14.1238" stroke="#EEB330" stroke-width="2" stroke-linecap="round" stroke-linejoin="round"/>
<path d="M71.2343 331.5H64.1238" stroke="#EEB330" stroke-width="2" stroke-linecap="round" stroke-linejoin="round"/>
<path d="M31.2343 331.5H24.1238" stroke="#EEB330" stroke-width="2" stroke-linecap="round" stroke-linejoin="round"/>
</svg>
