<svg width="284" height="361" viewBox="0 0 284 361" fill="none" xmlns="http://www.w3.org/2000/svg">
<path opacity="0.2" fill-rule="evenodd" clip-rule="evenodd" d="M295.916 0.760254C295.916 0.760254 175.925 24.4925 175.925 121.246C175.925 218 174.41 234.874 136.451 254.233C98.4911 273.591 113.422 308.827 98.9797 322.298C84.5373 335.77 18.4074 344.221 0.581787 382.682H295.916V0.760254Z" fill="#EEB330"/>
<path d="M137 154.5H144.11" stroke="#EEB330" stroke-width="2" stroke-linecap="round" stroke-linejoin="round"/>
<path d="M157 154.5H164.11" stroke="#EEB330" stroke-width="2" stroke-linecap="round" stroke-linejoin="round"/>
<path d="M177 154.5H184.11" stroke="#EEB330" stroke-width="2" stroke-linecap="round" stroke-linejoin="round"/>
<path d="M197 154.5H204.11" stroke="#EEB330" stroke-width="2" stroke-linecap="round" stroke-linejoin="round"/>
<path d="M217 154.5H224.11" stroke="#EEB330" stroke-width="2" stroke-linecap="round" stroke-linejoin="round"/>
<path d="M237 154.5H244.11" stroke="#EEB330" stroke-width="2" stroke-linecap="round" stroke-linejoin="round"/>
<path d="M157 91.5H164.11" stroke="#EEB330" stroke-width="2" stroke-linecap="round" stroke-linejoin="round"/>
<path d="M177 91.5H184.11" stroke="#EEB330" stroke-width="2" stroke-linecap="round" stroke-linejoin="round"/>
<path d="M197 91.5H204.11" stroke="#EEB330" stroke-width="2" stroke-linecap="round" stroke-linejoin="round"/>
<path d="M217 91.5H224.11" stroke="#EEB330" stroke-width="2" stroke-linecap="round" stroke-linejoin="round"/>
<path d="M237 91.5H244.11" stroke="#EEB330" stroke-width="2" stroke-linecap="round" stroke-linejoin="round"/>
<path d="M257 91.5H264.11" stroke="#EEB330" stroke-width="2" stroke-linecap="round" stroke-linejoin="round"/>
<path d="M217 70.5H224.11" stroke="#EEB330" stroke-width="2" stroke-linecap="round" stroke-linejoin="round"/>
<path d="M237 70.5H244.11" stroke="#EEB330" stroke-width="2" stroke-linecap="round" stroke-linejoin="round"/>
<path d="M257 70.5H264.11" stroke="#EEB330" stroke-width="2" stroke-linecap="round" stroke-linejoin="round"/>
<path d="M277 70.5H284.11" stroke="#EEB330" stroke-width="2" stroke-linecap="round" stroke-linejoin="round"/>
<path d="M147 175.5H154.11" stroke="#EEB330" stroke-width="2" stroke-linecap="round" stroke-linejoin="round"/>
<path d="M167 175.5H174.11" stroke="#EEB330" stroke-width="2" stroke-linecap="round" stroke-linejoin="round"/>
<path d="M187 175.5H194.11" stroke="#EEB330" stroke-width="2" stroke-linecap="round" stroke-linejoin="round"/>
<path d="M247 175.5H254.11" stroke="#EEB330" stroke-width="2" stroke-linecap="round" stroke-linejoin="round"/>
<path d="M267 175.5H274.11" stroke="#EEB330" stroke-width="2" stroke-linecap="round" stroke-linejoin="round"/>
<path d="M117 196.5H124.11" stroke="#EEB330" stroke-width="2" stroke-linecap="round" stroke-linejoin="round"/>
<path d="M137 196.5H144.11" stroke="#EEB330" stroke-width="2" stroke-linecap="round" stroke-linejoin="round"/>
<path d="M157 196.5H164.11" stroke="#EEB330" stroke-width="2" stroke-linecap="round" stroke-linejoin="round"/>
<path d="M177 196.5H184.11" stroke="#EEB330" stroke-width="2" stroke-linecap="round" stroke-linejoin="round"/>
<path d="M177 217.5H184.11" stroke="#EEB330" stroke-width="2" stroke-linecap="round" stroke-linejoin="round"/>
<path d="M197 217.5H204.11" stroke="#EEB330" stroke-width="2" stroke-linecap="round" stroke-linejoin="round"/>
<path d="M217 217.5H224.11" stroke="#EEB330" stroke-width="2" stroke-linecap="round" stroke-linejoin="round"/>
<path d="M237 217.5H244.11" stroke="#EEB330" stroke-width="2" stroke-linecap="round" stroke-linejoin="round"/>
<path d="M257 217.5H264.11" stroke="#EEB330" stroke-width="2" stroke-linecap="round" stroke-linejoin="round"/>
<path d="M277 217.5H284.11" stroke="#EEB330" stroke-width="2" stroke-linecap="round" stroke-linejoin="round"/>
<path d="M117 238.5H124.11" stroke="#EEB330" stroke-width="2" stroke-linecap="round" stroke-linejoin="round"/>
<path d="M177 238.5H184.11" stroke="#EEB330" stroke-width="2" stroke-linecap="round" stroke-linejoin="round"/>
<path d="M197 238.5H204.11" stroke="#EEB330" stroke-width="2" stroke-linecap="round" stroke-linejoin="round"/>
<path d="M217 238.5H224.11" stroke="#EEB330" stroke-width="2" stroke-linecap="round" stroke-linejoin="round"/>
<path d="M237 238.5H244.11" stroke="#EEB330" stroke-width="2" stroke-linecap="round" stroke-linejoin="round"/>
<path d="M257 238.5H264.11" stroke="#EEB330" stroke-width="2" stroke-linecap="round" stroke-linejoin="round"/>
<path d="M167 259.5H174.11" stroke="#EEB330" stroke-width="2" stroke-linecap="round" stroke-linejoin="round"/>
<path d="M187 259.5H194.11" stroke="#EEB330" stroke-width="2" stroke-linecap="round" stroke-linejoin="round"/>
<path d="M207 259.5H214.11" stroke="#EEB330" stroke-width="2" stroke-linecap="round" stroke-linejoin="round"/>
<path d="M227 259.5H234.11" stroke="#EEB330" stroke-width="2" stroke-linecap="round" stroke-linejoin="round"/>
<path d="M247 259.5H254.11" stroke="#EEB330" stroke-width="2" stroke-linecap="round" stroke-linejoin="round"/>
<path d="M107 280.5H114.11" stroke="#EEB330" stroke-width="2" stroke-linecap="round" stroke-linejoin="round"/>
<path d="M167 280.5H174.11" stroke="#EEB330" stroke-width="2" stroke-linecap="round" stroke-linejoin="round"/>
<path d="M187 280.5H194.11" stroke="#EEB330" stroke-width="2" stroke-linecap="round" stroke-linejoin="round"/>
<path d="M207 280.5H214.11" stroke="#EEB330" stroke-width="2" stroke-linecap="round" stroke-linejoin="round"/>
<path d="M227 280.5H234.11" stroke="#EEB330" stroke-width="2" stroke-linecap="round" stroke-linejoin="round"/>
<path d="M77 301.5H84.1105" stroke="#EEB330" stroke-width="2" stroke-linecap="round" stroke-linejoin="round"/>
<path d="M97 301.5H104.11" stroke="#EEB330" stroke-width="2" stroke-linecap="round" stroke-linejoin="round"/>
<path d="M157 301.5H164.11" stroke="#EEB330" stroke-width="2" stroke-linecap="round" stroke-linejoin="round"/>
<path d="M177 301.5H184.11" stroke="#EEB330" stroke-width="2" stroke-linecap="round" stroke-linejoin="round"/>
<path d="M197 301.5H204.11" stroke="#EEB330" stroke-width="2" stroke-linecap="round" stroke-linejoin="round"/>
<path d="M221 133.5H228.11" stroke="#EEB330" stroke-width="2" stroke-linecap="round" stroke-linejoin="round"/>
<path d="M241 133.5H248.11" stroke="#EEB330" stroke-width="2" stroke-linecap="round" stroke-linejoin="round"/>
<path d="M251 112.5H258.11" stroke="#EEB330" stroke-width="2" stroke-linecap="round" stroke-linejoin="round"/>
<path d="M271 112.5H278.11" stroke="#EEB330" stroke-width="2" stroke-linecap="round" stroke-linejoin="round"/>
<path d="M147 322.5H154.11" stroke="#EEB330" stroke-width="2" stroke-linecap="round" stroke-linejoin="round"/>
<path d="M187 322.5H194.11" stroke="#EEB330" stroke-width="2" stroke-linecap="round" stroke-linejoin="round"/>
<path d="M227 322.5H234.11" stroke="#EEB330" stroke-width="2" stroke-linecap="round" stroke-linejoin="round"/>
<path d="M247 322.5H254.11" stroke="#EEB330" stroke-width="2" stroke-linecap="round" stroke-linejoin="round"/>
<path d="M267 322.5H274.11" stroke="#EEB330" stroke-width="2" stroke-linecap="round" stroke-linejoin="round"/>
</svg>
