<svg width="225" height="57" viewBox="0 0 225 57" fill="none" xmlns="http://www.w3.org/2000/svg">
<g opacity="0.2">
<path d="M59.4741 18.5H66.7685" stroke="#D95535" stroke-width="2" stroke-linecap="round" stroke-linejoin="round"/>
<path d="M121.026 18.5H128.32" stroke="#D95535" stroke-width="2" stroke-linecap="round" stroke-linejoin="round"/>
<path d="M100.509 18.5H107.803" stroke="#D95535" stroke-width="2" stroke-linecap="round" stroke-linejoin="round"/>
<path d="M79.9914 18.5H87.2857" stroke="#D95535" stroke-width="2" stroke-linecap="round" stroke-linejoin="round"/>
<path d="M141.543 18.5H148.837" stroke="#D95535" stroke-width="2" stroke-linecap="round" stroke-linejoin="round"/>
<path d="M162.06 18.5H169.355" stroke="#D95535" stroke-width="2" stroke-linecap="round" stroke-linejoin="round"/>
<path d="M182.578 18.5H189.872" stroke="#D95535" stroke-width="2" stroke-linecap="round" stroke-linejoin="round"/>
<path d="M203.095 18.5H210.389" stroke="#D95535" stroke-width="2" stroke-linecap="round" stroke-linejoin="round"/>
</g>
<g opacity="0.6">
<path d="M46.1379 33.5H53.4323" stroke="#D95535" stroke-width="2" stroke-linecap="round" stroke-linejoin="round"/>
<path d="M107.69 33.5H114.984" stroke="#D95535" stroke-width="2" stroke-linecap="round" stroke-linejoin="round"/>
<path d="M128.207 33.5H135.501" stroke="#D95535" stroke-width="2" stroke-linecap="round" stroke-linejoin="round"/>
<path d="M148.724 33.5H156.018" stroke="#D95535" stroke-width="2" stroke-linecap="round" stroke-linejoin="round"/>
<path d="M169.241 33.5H176.536" stroke="#D95535" stroke-width="2" stroke-linecap="round" stroke-linejoin="round"/>
<path d="M189.759 33.5H197.053" stroke="#D95535" stroke-width="2" stroke-linecap="round" stroke-linejoin="round"/>
</g>
<g opacity="0.6">
<path d="M87.1724 55.5H94.4668" stroke="#D95535" stroke-width="2" stroke-linecap="round" stroke-linejoin="round"/>
<path d="M148.724 55.5H156.019" stroke="#D95535" stroke-width="2" stroke-linecap="round" stroke-linejoin="round"/>
<path d="M107.69 55.5H114.984" stroke="#D95535" stroke-width="2" stroke-linecap="round" stroke-linejoin="round"/>
<path d="M169.241 55.5H176.536" stroke="#D95535" stroke-width="2" stroke-linecap="round" stroke-linejoin="round"/>
<path d="M189.759 55.5H197.053" stroke="#D95535" stroke-width="2" stroke-linecap="round" stroke-linejoin="round"/>
<path d="M210.276 55.5H217.57" stroke="#D95535" stroke-width="2" stroke-linecap="round" stroke-linejoin="round"/>
</g>
<g opacity="0.5">
<path d="M1 1.5H8.29435" stroke="#D95535" stroke-width="2" stroke-linecap="round" stroke-linejoin="round"/>
<path d="M21.5172 1.5H28.8116" stroke="#D95535" stroke-width="2" stroke-linecap="round" stroke-linejoin="round"/>
<path d="M62.5517 1.5H69.8461" stroke="#D95535" stroke-width="2" stroke-linecap="round" stroke-linejoin="round"/>
<path d="M83.069 1.5H90.3633" stroke="#D95535" stroke-width="2" stroke-linecap="round" stroke-linejoin="round"/>
</g>
<g opacity="0.5">
<path d="M113.845 1.5H121.139" stroke="#D95535" stroke-width="2" stroke-linecap="round" stroke-linejoin="round"/>
<path d="M134.362 1.5H141.656" stroke="#D95535" stroke-width="2" stroke-linecap="round" stroke-linejoin="round"/>
<path d="M175.397 1.5H182.691" stroke="#D95535" stroke-width="2" stroke-linecap="round" stroke-linejoin="round"/>
<path d="M195.914 1.5H203.208" stroke="#D95535" stroke-width="2" stroke-linecap="round" stroke-linejoin="round"/>
</g>
</svg>
