<svg width="242" height="98" viewBox="0 0 242 98" fill="none" xmlns="http://www.w3.org/2000/svg">
<path opacity="0.1" fill-rule="evenodd" clip-rule="evenodd" d="M-2.87561 3.41957C-2.87561 3.41957 41.5123 -15.3603 63.2395 37.5492C84.9667 90.4588 96.6203 99.9583 139.815 90.4588C183.01 80.9593 150.339 103.415 194.88 132.932C239.421 162.448 241.032 207.983 241.032 207.983H-2.87561V3.41957Z" fill="#D95535"/>
<g opacity="0.2">
<path d="M-1.92188 55H5.18859" stroke="white" stroke-width="3" stroke-linecap="round" stroke-linejoin="round"/>
<path d="M18.0781 55H25.1886" stroke="white" stroke-width="3" stroke-linecap="round" stroke-linejoin="round"/>
<path d="M38.0781 55H45.1886" stroke="white" stroke-width="3" stroke-linecap="round" stroke-linejoin="round"/>
<path d="M58.0781 55H65.1886" stroke="white" stroke-width="3" stroke-linecap="round" stroke-linejoin="round"/>
<path d="M78.0781 55H85.1886" stroke="white" stroke-width="3" stroke-linecap="round" stroke-linejoin="round"/>
</g>
<g opacity="0.6">
<path d="M11.0781 84H18.1886" stroke="white" stroke-width="3" stroke-linecap="round" stroke-linejoin="round"/>
<path d="M31.0781 84H38.1886" stroke="white" stroke-width="3" stroke-linecap="round" stroke-linejoin="round"/>
<path d="M51.0781 84H58.1886" stroke="white" stroke-width="3" stroke-linecap="round" stroke-linejoin="round"/>
<path d="M71.0781 84H78.1886" stroke="white" stroke-width="3" stroke-linecap="round" stroke-linejoin="round"/>
</g>
<g opacity="0.5">
<path d="M1.07812 24H8.18859" stroke="white" stroke-width="3" stroke-linecap="round" stroke-linejoin="round"/>
<path d="M21.0781 24H28.1886" stroke="white" stroke-width="3" stroke-linecap="round" stroke-linejoin="round"/>
</g>
</svg>
