<svg id="Layer_1" data-name="Layer 1" xmlns="http://www.w3.org/2000/svg" xmlns:xlink="http://www.w3.org/1999/xlink" viewBox="0 0 431.68 1110.74"><defs><style>.cls-1,.cls-11,.cls-15,.cls-20,.cls-27,.cls-32{fill:none;}.cls-2,.cls-35{fill:#293579;}.cls-3{font-size:31.77px;font-family:FuturaBT-Medium, Futura Md BT;font-weight:500;}.cls-3,.cls-33,.cls-34,.cls-6,.cls-7,.cls-8,.cls-9{fill:#fff;}.cls-4{letter-spacing:-0.04em;}.cls-5,.cls-6{font-size:139.75px;}.cls-10,.cls-5{fill:#da5534;}.cls-34,.cls-5,.cls-6,.cls-9{font-family:Slabo27px-Regular, "Slabo 27px";}.cls-18,.cls-7,.cls-9{font-size:20px;}.cls-18,.cls-31,.cls-35,.cls-7{font-family:CrimsonText-Regular, Crimson Text;}.cls-11,.cls-12,.cls-13,.cls-14,.cls-17,.cls-20,.cls-21,.cls-23,.cls-24,.cls-25,.cls-26,.cls-28,.cls-30{stroke:#293579;}.cls-11,.cls-15,.cls-20,.cls-27,.cls-32,.cls-33{stroke-linecap:round;stroke-linejoin:round;}.cls-11,.cls-12,.cls-13,.cls-14,.cls-17{stroke-width:0.69px;}.cls-12,.cls-13,.cls-14,.cls-17,.cls-21,.cls-23,.cls-24,.cls-25,.cls-26,.cls-28,.cls-30{stroke-miterlimit:10;}.cls-12{fill:url(#New_Pattern);}.cls-13{fill:url(#New_Pattern-3);}.cls-14{fill:url(#New_Pattern-5);}.cls-15,.cls-27,.cls-32,.cls-33{stroke:#fff;}.cls-15{stroke-width:1.39px;stroke-dasharray:4.16;}.cls-16,.cls-18{fill:#eeb330;}.cls-17{fill:url(#New_Pattern-7);}.cls-19{fill:#19b686;}.cls-20,.cls-21,.cls-23,.cls-24,.cls-25,.cls-26,.cls-28,.cls-30{stroke-width:0.8px;}.cls-21{fill:url(#New_Pattern-9);}.cls-22{fill:#16875e;}.cls-23{fill:url(#New_Pattern-11);}.cls-24{fill:url(#New_Pattern-13);}.cls-25{fill:url(#New_Pattern-15);}.cls-26{fill:url(#New_Pattern-17);}.cls-27{stroke-width:1.59px;stroke-dasharray:4.78;}.cls-28{fill:url(#New_Pattern-19);}.cls-29,.cls-31{fill:#97feb6;}.cls-30{fill:url(#New_Pattern-21);}.cls-31{font-size:15.92px;}.cls-32,.cls-33{stroke-width:0.69px;stroke-dasharray:2.06;}.cls-34{font-size:25.92px;}.cls-35{font-size:15px;}</style><pattern id="New_Pattern" data-name="New Pattern" width="43.43" height="32.75" patternTransform="translate(534.38 305.97) scale(0.63 0.6)" patternUnits="userSpaceOnUse" viewBox="0 0 43.43 32.75"><rect class="cls-1" width="43.43" height="32.75"/><circle class="cls-2" cx="37.23" cy="3.07" r="0.84"/><circle class="cls-2" cx="30.03" cy="3.07" r="0.84"/><circle class="cls-2" cx="22.84" cy="3.07" r="0.84"/><circle class="cls-2" cx="15.64" cy="3.07" r="0.84"/><circle class="cls-2" cx="8.44" cy="3.07" r="0.84"/><circle class="cls-2" cx="1.24" cy="3.07" r="0.84"/><circle class="cls-2" cx="40.83" cy="8.58" r="0.84"/><circle class="cls-2" cx="33.63" cy="8.58" r="0.84"/><circle class="cls-2" cx="26.43" cy="8.58" r="0.84"/><circle class="cls-2" cx="19.24" cy="8.58" r="0.84"/><circle class="cls-2" cx="12.04" cy="8.58" r="0.84"/><circle class="cls-2" cx="4.84" cy="8.58" r="0.84"/><circle class="cls-2" cx="37.23" cy="14.16" r="0.84"/><circle class="cls-2" cx="30.03" cy="14.16" r="0.84"/><circle class="cls-2" cx="22.84" cy="14.16" r="0.84"/><circle class="cls-2" cx="15.64" cy="14.16" r="0.84"/><circle class="cls-2" cx="8.44" cy="14.16" r="0.84"/><circle class="cls-2" cx="1.24" cy="14.16" r="0.84"/><circle class="cls-2" cx="40.83" cy="19.68" r="0.84"/><circle class="cls-2" cx="33.63" cy="19.68" r="0.84"/><circle class="cls-2" cx="26.43" cy="19.68" r="0.84"/><circle class="cls-2" cx="19.24" cy="19.68" r="0.84"/><circle class="cls-2" cx="12.04" cy="19.68" r="0.84"/><circle class="cls-2" cx="4.84" cy="19.68" r="0.84"/><circle class="cls-2" cx="37.52" cy="25.24" r="0.84"/><circle class="cls-2" cx="30.33" cy="25.24" r="0.84"/><circle class="cls-2" cx="23.13" cy="25.24" r="0.84"/><circle class="cls-2" cx="15.93" cy="25.24" r="0.84"/><circle class="cls-2" cx="8.73" cy="25.24" r="0.84"/><circle class="cls-2" cx="1.53" cy="25.24" r="0.84"/><circle class="cls-2" cx="41.12" cy="30.76" r="0.84"/><circle class="cls-2" cx="33.92" cy="30.76" r="0.84"/><circle class="cls-2" cx="26.73" cy="30.76" r="0.84"/><circle class="cls-2" cx="19.53" cy="30.76" r="0.84"/><circle class="cls-2" cx="12.33" cy="30.76" r="0.84"/><circle class="cls-2" cx="5.13" cy="30.76" r="0.84"/></pattern><pattern id="New_Pattern-3" data-name="New Pattern" width="43.43" height="32.75" patternTransform="translate(561.45 295.82) scale(0.63 0.6)" patternUnits="userSpaceOnUse" viewBox="0 0 43.43 32.75"><rect class="cls-1" width="43.43" height="32.75"/><circle class="cls-2" cx="37.23" cy="3.07" r="0.84"/><circle class="cls-2" cx="30.03" cy="3.07" r="0.84"/><circle class="cls-2" cx="22.84" cy="3.07" r="0.84"/><circle class="cls-2" cx="15.64" cy="3.07" r="0.84"/><circle class="cls-2" cx="8.44" cy="3.07" r="0.84"/><circle class="cls-2" cx="1.24" cy="3.07" r="0.84"/><circle class="cls-2" cx="40.83" cy="8.58" r="0.84"/><circle class="cls-2" cx="33.63" cy="8.58" r="0.84"/><circle class="cls-2" cx="26.43" cy="8.58" r="0.84"/><circle class="cls-2" cx="19.24" cy="8.58" r="0.84"/><circle class="cls-2" cx="12.04" cy="8.58" r="0.84"/><circle class="cls-2" cx="4.84" cy="8.58" r="0.84"/><circle class="cls-2" cx="37.23" cy="14.16" r="0.84"/><circle class="cls-2" cx="30.03" cy="14.16" r="0.84"/><circle class="cls-2" cx="22.84" cy="14.16" r="0.84"/><circle class="cls-2" cx="15.64" cy="14.16" r="0.84"/><circle class="cls-2" cx="8.44" cy="14.16" r="0.84"/><circle class="cls-2" cx="1.24" cy="14.16" r="0.84"/><circle class="cls-2" cx="40.83" cy="19.68" r="0.84"/><circle class="cls-2" cx="33.63" cy="19.68" r="0.84"/><circle class="cls-2" cx="26.43" cy="19.68" r="0.84"/><circle class="cls-2" cx="19.24" cy="19.68" r="0.84"/><circle class="cls-2" cx="12.04" cy="19.68" r="0.84"/><circle class="cls-2" cx="4.84" cy="19.68" r="0.84"/><circle class="cls-2" cx="37.52" cy="25.24" r="0.84"/><circle class="cls-2" cx="30.33" cy="25.24" r="0.84"/><circle class="cls-2" cx="23.13" cy="25.24" r="0.84"/><circle class="cls-2" cx="15.93" cy="25.24" r="0.84"/><circle class="cls-2" cx="8.73" cy="25.24" r="0.84"/><circle class="cls-2" cx="1.53" cy="25.24" r="0.84"/><circle class="cls-2" cx="41.12" cy="30.76" r="0.84"/><circle class="cls-2" cx="33.92" cy="30.76" r="0.84"/><circle class="cls-2" cx="26.73" cy="30.76" r="0.84"/><circle class="cls-2" cx="19.53" cy="30.76" r="0.84"/><circle class="cls-2" cx="12.33" cy="30.76" r="0.84"/><circle class="cls-2" cx="5.13" cy="30.76" r="0.84"/></pattern><pattern id="New_Pattern-5" data-name="New Pattern" width="43.43" height="32.75" patternTransform="translate(561.08 287.19) scale(0.63 0.6)" patternUnits="userSpaceOnUse" viewBox="0 0 43.43 32.75"><rect class="cls-1" width="43.43" height="32.75"/><circle class="cls-2" cx="37.23" cy="3.07" r="0.84"/><circle class="cls-2" cx="30.03" cy="3.07" r="0.84"/><circle class="cls-2" cx="22.84" cy="3.07" r="0.84"/><circle class="cls-2" cx="15.64" cy="3.07" r="0.84"/><circle class="cls-2" cx="8.44" cy="3.07" r="0.84"/><circle class="cls-2" cx="1.24" cy="3.07" r="0.84"/><circle class="cls-2" cx="40.83" cy="8.58" r="0.84"/><circle class="cls-2" cx="33.63" cy="8.58" r="0.84"/><circle class="cls-2" cx="26.43" cy="8.58" r="0.84"/><circle class="cls-2" cx="19.24" cy="8.58" r="0.84"/><circle class="cls-2" cx="12.04" cy="8.58" r="0.84"/><circle class="cls-2" cx="4.84" cy="8.58" r="0.84"/><circle class="cls-2" cx="37.23" cy="14.16" r="0.84"/><circle class="cls-2" cx="30.03" cy="14.16" r="0.84"/><circle class="cls-2" cx="22.84" cy="14.16" r="0.84"/><circle class="cls-2" cx="15.64" cy="14.16" r="0.84"/><circle class="cls-2" cx="8.44" cy="14.16" r="0.84"/><circle class="cls-2" cx="1.24" cy="14.16" r="0.84"/><circle class="cls-2" cx="40.83" cy="19.68" r="0.84"/><circle class="cls-2" cx="33.63" cy="19.68" r="0.84"/><circle class="cls-2" cx="26.43" cy="19.68" r="0.84"/><circle class="cls-2" cx="19.24" cy="19.68" r="0.84"/><circle class="cls-2" cx="12.04" cy="19.68" r="0.84"/><circle class="cls-2" cx="4.84" cy="19.68" r="0.84"/><circle class="cls-2" cx="37.52" cy="25.24" r="0.84"/><circle class="cls-2" cx="30.33" cy="25.24" r="0.84"/><circle class="cls-2" cx="23.13" cy="25.24" r="0.84"/><circle class="cls-2" cx="15.93" cy="25.24" r="0.84"/><circle class="cls-2" cx="8.73" cy="25.24" r="0.84"/><circle class="cls-2" cx="1.53" cy="25.24" r="0.84"/><circle class="cls-2" cx="41.12" cy="30.76" r="0.84"/><circle class="cls-2" cx="33.92" cy="30.76" r="0.84"/><circle class="cls-2" cx="26.73" cy="30.76" r="0.84"/><circle class="cls-2" cx="19.53" cy="30.76" r="0.84"/><circle class="cls-2" cx="12.33" cy="30.76" r="0.84"/><circle class="cls-2" cx="5.13" cy="30.76" r="0.84"/></pattern><pattern id="New_Pattern-7" data-name="New Pattern" width="43.43" height="32.75" patternTransform="translate(560.53 294.72) scale(0.63 0.6)" patternUnits="userSpaceOnUse" viewBox="0 0 43.43 32.75"><rect class="cls-1" width="43.43" height="32.75"/><circle class="cls-2" cx="37.23" cy="3.07" r="0.84"/><circle class="cls-2" cx="30.03" cy="3.07" r="0.84"/><circle class="cls-2" cx="22.84" cy="3.07" r="0.84"/><circle class="cls-2" cx="15.64" cy="3.07" r="0.84"/><circle class="cls-2" cx="8.44" cy="3.07" r="0.84"/><circle class="cls-2" cx="1.24" cy="3.07" r="0.84"/><circle class="cls-2" cx="40.83" cy="8.58" r="0.84"/><circle class="cls-2" cx="33.63" cy="8.58" r="0.84"/><circle class="cls-2" cx="26.43" cy="8.58" r="0.84"/><circle class="cls-2" cx="19.24" cy="8.58" r="0.84"/><circle class="cls-2" cx="12.04" cy="8.58" r="0.84"/><circle class="cls-2" cx="4.84" cy="8.58" r="0.84"/><circle class="cls-2" cx="37.23" cy="14.16" r="0.84"/><circle class="cls-2" cx="30.03" cy="14.16" r="0.84"/><circle class="cls-2" cx="22.84" cy="14.16" r="0.84"/><circle class="cls-2" cx="15.64" cy="14.16" r="0.84"/><circle class="cls-2" cx="8.44" cy="14.16" r="0.84"/><circle class="cls-2" cx="1.24" cy="14.16" r="0.84"/><circle class="cls-2" cx="40.83" cy="19.68" r="0.84"/><circle class="cls-2" cx="33.63" cy="19.68" r="0.84"/><circle class="cls-2" cx="26.43" cy="19.68" r="0.84"/><circle class="cls-2" cx="19.24" cy="19.68" r="0.84"/><circle class="cls-2" cx="12.04" cy="19.68" r="0.84"/><circle class="cls-2" cx="4.84" cy="19.68" r="0.84"/><circle class="cls-2" cx="37.52" cy="25.24" r="0.84"/><circle class="cls-2" cx="30.33" cy="25.24" r="0.84"/><circle class="cls-2" cx="23.13" cy="25.24" r="0.84"/><circle class="cls-2" cx="15.93" cy="25.24" r="0.84"/><circle class="cls-2" cx="8.73" cy="25.24" r="0.84"/><circle class="cls-2" cx="1.53" cy="25.24" r="0.84"/><circle class="cls-2" cx="41.12" cy="30.76" r="0.84"/><circle class="cls-2" cx="33.92" cy="30.76" r="0.84"/><circle class="cls-2" cx="26.73" cy="30.76" r="0.84"/><circle class="cls-2" cx="19.53" cy="30.76" r="0.84"/><circle class="cls-2" cx="12.33" cy="30.76" r="0.84"/><circle class="cls-2" cx="5.13" cy="30.76" r="0.84"/></pattern><pattern id="New_Pattern-9" data-name="New Pattern" width="43.43" height="32.75" patternTransform="translate(437.13 150.71) scale(0.59 0.56)" patternUnits="userSpaceOnUse" viewBox="0 0 43.43 32.75"><rect class="cls-1" width="43.43" height="32.75"/><circle class="cls-2" cx="37.23" cy="3.07" r="0.84"/><circle class="cls-2" cx="30.03" cy="3.07" r="0.84"/><circle class="cls-2" cx="22.84" cy="3.07" r="0.84"/><circle class="cls-2" cx="15.64" cy="3.07" r="0.84"/><circle class="cls-2" cx="8.44" cy="3.07" r="0.84"/><circle class="cls-2" cx="1.24" cy="3.07" r="0.84"/><circle class="cls-2" cx="40.83" cy="8.58" r="0.84"/><circle class="cls-2" cx="33.63" cy="8.58" r="0.84"/><circle class="cls-2" cx="26.43" cy="8.58" r="0.84"/><circle class="cls-2" cx="19.24" cy="8.58" r="0.84"/><circle class="cls-2" cx="12.04" cy="8.58" r="0.84"/><circle class="cls-2" cx="4.84" cy="8.58" r="0.84"/><circle class="cls-2" cx="37.23" cy="14.16" r="0.84"/><circle class="cls-2" cx="30.03" cy="14.16" r="0.84"/><circle class="cls-2" cx="22.84" cy="14.16" r="0.84"/><circle class="cls-2" cx="15.64" cy="14.16" r="0.84"/><circle class="cls-2" cx="8.44" cy="14.16" r="0.84"/><circle class="cls-2" cx="1.24" cy="14.16" r="0.84"/><circle class="cls-2" cx="40.83" cy="19.68" r="0.84"/><circle class="cls-2" cx="33.63" cy="19.68" r="0.84"/><circle class="cls-2" cx="26.43" cy="19.68" r="0.84"/><circle class="cls-2" cx="19.24" cy="19.68" r="0.84"/><circle class="cls-2" cx="12.04" cy="19.68" r="0.84"/><circle class="cls-2" cx="4.84" cy="19.68" r="0.84"/><circle class="cls-2" cx="37.52" cy="25.24" r="0.84"/><circle class="cls-2" cx="30.33" cy="25.24" r="0.84"/><circle class="cls-2" cx="23.13" cy="25.24" r="0.84"/><circle class="cls-2" cx="15.93" cy="25.24" r="0.84"/><circle class="cls-2" cx="8.73" cy="25.24" r="0.84"/><circle class="cls-2" cx="1.53" cy="25.24" r="0.84"/><circle class="cls-2" cx="41.12" cy="30.76" r="0.84"/><circle class="cls-2" cx="33.92" cy="30.76" r="0.84"/><circle class="cls-2" cx="26.73" cy="30.76" r="0.84"/><circle class="cls-2" cx="19.53" cy="30.76" r="0.84"/><circle class="cls-2" cx="12.33" cy="30.76" r="0.84"/><circle class="cls-2" cx="5.13" cy="30.76" r="0.84"/></pattern><pattern id="New_Pattern-11" data-name="New Pattern" width="43.43" height="32.75" patternTransform="translate(462.54 163.2) scale(0.59 0.56)" patternUnits="userSpaceOnUse" viewBox="0 0 43.43 32.75"><rect class="cls-1" width="43.43" height="32.75"/><circle class="cls-2" cx="37.23" cy="3.07" r="0.84"/><circle class="cls-2" cx="30.03" cy="3.07" r="0.84"/><circle class="cls-2" cx="22.84" cy="3.07" r="0.84"/><circle class="cls-2" cx="15.64" cy="3.07" r="0.84"/><circle class="cls-2" cx="8.44" cy="3.07" r="0.84"/><circle class="cls-2" cx="1.24" cy="3.07" r="0.84"/><circle class="cls-2" cx="40.83" cy="8.58" r="0.84"/><circle class="cls-2" cx="33.63" cy="8.58" r="0.84"/><circle class="cls-2" cx="26.43" cy="8.58" r="0.84"/><circle class="cls-2" cx="19.24" cy="8.58" r="0.84"/><circle class="cls-2" cx="12.04" cy="8.58" r="0.84"/><circle class="cls-2" cx="4.84" cy="8.58" r="0.84"/><circle class="cls-2" cx="37.23" cy="14.16" r="0.84"/><circle class="cls-2" cx="30.03" cy="14.16" r="0.84"/><circle class="cls-2" cx="22.84" cy="14.16" r="0.84"/><circle class="cls-2" cx="15.64" cy="14.16" r="0.84"/><circle class="cls-2" cx="8.44" cy="14.16" r="0.84"/><circle class="cls-2" cx="1.24" cy="14.16" r="0.84"/><circle class="cls-2" cx="40.83" cy="19.68" r="0.84"/><circle class="cls-2" cx="33.63" cy="19.68" r="0.84"/><circle class="cls-2" cx="26.43" cy="19.68" r="0.84"/><circle class="cls-2" cx="19.24" cy="19.68" r="0.84"/><circle class="cls-2" cx="12.04" cy="19.68" r="0.84"/><circle class="cls-2" cx="4.84" cy="19.68" r="0.84"/><circle class="cls-2" cx="37.52" cy="25.24" r="0.84"/><circle class="cls-2" cx="30.33" cy="25.24" r="0.84"/><circle class="cls-2" cx="23.13" cy="25.24" r="0.84"/><circle class="cls-2" cx="15.93" cy="25.24" r="0.84"/><circle class="cls-2" cx="8.73" cy="25.24" r="0.84"/><circle class="cls-2" cx="1.53" cy="25.24" r="0.84"/><circle class="cls-2" cx="41.12" cy="30.76" r="0.84"/><circle class="cls-2" cx="33.92" cy="30.76" r="0.84"/><circle class="cls-2" cx="26.73" cy="30.76" r="0.84"/><circle class="cls-2" cx="19.53" cy="30.76" r="0.84"/><circle class="cls-2" cx="12.33" cy="30.76" r="0.84"/><circle class="cls-2" cx="5.13" cy="30.76" r="0.84"/></pattern><pattern id="New_Pattern-13" data-name="New Pattern" width="43.43" height="32.75" patternTransform="translate(487.86 153.71) scale(0.59 0.56)" patternUnits="userSpaceOnUse" viewBox="0 0 43.43 32.75"><rect class="cls-1" width="43.43" height="32.75"/><circle class="cls-2" cx="37.23" cy="3.07" r="0.84"/><circle class="cls-2" cx="30.03" cy="3.07" r="0.84"/><circle class="cls-2" cx="22.84" cy="3.07" r="0.84"/><circle class="cls-2" cx="15.64" cy="3.07" r="0.84"/><circle class="cls-2" cx="8.44" cy="3.07" r="0.84"/><circle class="cls-2" cx="1.24" cy="3.07" r="0.84"/><circle class="cls-2" cx="40.83" cy="8.58" r="0.84"/><circle class="cls-2" cx="33.63" cy="8.58" r="0.84"/><circle class="cls-2" cx="26.43" cy="8.58" r="0.84"/><circle class="cls-2" cx="19.24" cy="8.58" r="0.84"/><circle class="cls-2" cx="12.04" cy="8.58" r="0.84"/><circle class="cls-2" cx="4.84" cy="8.58" r="0.84"/><circle class="cls-2" cx="37.23" cy="14.16" r="0.84"/><circle class="cls-2" cx="30.03" cy="14.16" r="0.84"/><circle class="cls-2" cx="22.84" cy="14.16" r="0.84"/><circle class="cls-2" cx="15.64" cy="14.16" r="0.84"/><circle class="cls-2" cx="8.44" cy="14.16" r="0.84"/><circle class="cls-2" cx="1.24" cy="14.16" r="0.84"/><circle class="cls-2" cx="40.83" cy="19.68" r="0.84"/><circle class="cls-2" cx="33.63" cy="19.68" r="0.84"/><circle class="cls-2" cx="26.43" cy="19.68" r="0.84"/><circle class="cls-2" cx="19.24" cy="19.68" r="0.84"/><circle class="cls-2" cx="12.04" cy="19.68" r="0.84"/><circle class="cls-2" cx="4.84" cy="19.68" r="0.84"/><circle class="cls-2" cx="37.52" cy="25.24" r="0.84"/><circle class="cls-2" cx="30.33" cy="25.24" r="0.84"/><circle class="cls-2" cx="23.13" cy="25.24" r="0.84"/><circle class="cls-2" cx="15.93" cy="25.24" r="0.84"/><circle class="cls-2" cx="8.73" cy="25.24" r="0.84"/><circle class="cls-2" cx="1.53" cy="25.24" r="0.84"/><circle class="cls-2" cx="41.12" cy="30.76" r="0.84"/><circle class="cls-2" cx="33.92" cy="30.76" r="0.84"/><circle class="cls-2" cx="26.73" cy="30.76" r="0.84"/><circle class="cls-2" cx="19.53" cy="30.76" r="0.84"/><circle class="cls-2" cx="12.33" cy="30.76" r="0.84"/><circle class="cls-2" cx="5.13" cy="30.76" r="0.84"/></pattern><pattern id="New_Pattern-15" data-name="New Pattern" width="43.43" height="32.75" patternTransform="translate(487.51 145.63) scale(0.59 0.56)" patternUnits="userSpaceOnUse" viewBox="0 0 43.43 32.75"><rect class="cls-1" width="43.43" height="32.75"/><circle class="cls-2" cx="37.23" cy="3.07" r="0.84"/><circle class="cls-2" cx="30.03" cy="3.07" r="0.84"/><circle class="cls-2" cx="22.84" cy="3.07" r="0.84"/><circle class="cls-2" cx="15.64" cy="3.07" r="0.84"/><circle class="cls-2" cx="8.44" cy="3.07" r="0.84"/><circle class="cls-2" cx="1.24" cy="3.07" r="0.84"/><circle class="cls-2" cx="40.83" cy="8.58" r="0.84"/><circle class="cls-2" cx="33.63" cy="8.58" r="0.84"/><circle class="cls-2" cx="26.43" cy="8.58" r="0.84"/><circle class="cls-2" cx="19.24" cy="8.58" r="0.84"/><circle class="cls-2" cx="12.04" cy="8.58" r="0.84"/><circle class="cls-2" cx="4.84" cy="8.58" r="0.84"/><circle class="cls-2" cx="37.23" cy="14.16" r="0.84"/><circle class="cls-2" cx="30.03" cy="14.16" r="0.84"/><circle class="cls-2" cx="22.84" cy="14.16" r="0.84"/><circle class="cls-2" cx="15.64" cy="14.16" r="0.84"/><circle class="cls-2" cx="8.44" cy="14.16" r="0.84"/><circle class="cls-2" cx="1.24" cy="14.16" r="0.84"/><circle class="cls-2" cx="40.83" cy="19.68" r="0.84"/><circle class="cls-2" cx="33.63" cy="19.68" r="0.84"/><circle class="cls-2" cx="26.43" cy="19.68" r="0.84"/><circle class="cls-2" cx="19.24" cy="19.68" r="0.84"/><circle class="cls-2" cx="12.04" cy="19.68" r="0.84"/><circle class="cls-2" cx="4.84" cy="19.68" r="0.84"/><circle class="cls-2" cx="37.52" cy="25.24" r="0.84"/><circle class="cls-2" cx="30.33" cy="25.24" r="0.84"/><circle class="cls-2" cx="23.13" cy="25.24" r="0.84"/><circle class="cls-2" cx="15.93" cy="25.24" r="0.84"/><circle class="cls-2" cx="8.73" cy="25.24" r="0.84"/><circle class="cls-2" cx="1.53" cy="25.24" r="0.84"/><circle class="cls-2" cx="41.12" cy="30.76" r="0.84"/><circle class="cls-2" cx="33.92" cy="30.76" r="0.84"/><circle class="cls-2" cx="26.73" cy="30.76" r="0.84"/><circle class="cls-2" cx="19.53" cy="30.76" r="0.84"/><circle class="cls-2" cx="12.33" cy="30.76" r="0.84"/><circle class="cls-2" cx="5.13" cy="30.76" r="0.84"/></pattern><pattern id="New_Pattern-17" data-name="New Pattern" width="43.43" height="32.75" patternTransform="translate(462.45 141.21) scale(0.59 0.56)" patternUnits="userSpaceOnUse" viewBox="0 0 43.43 32.75"><rect class="cls-1" width="43.43" height="32.75"/><circle class="cls-2" cx="37.23" cy="3.07" r="0.84"/><circle class="cls-2" cx="30.03" cy="3.07" r="0.84"/><circle class="cls-2" cx="22.84" cy="3.07" r="0.84"/><circle class="cls-2" cx="15.64" cy="3.07" r="0.84"/><circle class="cls-2" cx="8.44" cy="3.07" r="0.84"/><circle class="cls-2" cx="1.24" cy="3.07" r="0.84"/><circle class="cls-2" cx="40.83" cy="8.58" r="0.84"/><circle class="cls-2" cx="33.63" cy="8.58" r="0.84"/><circle class="cls-2" cx="26.43" cy="8.58" r="0.84"/><circle class="cls-2" cx="19.24" cy="8.58" r="0.84"/><circle class="cls-2" cx="12.04" cy="8.58" r="0.84"/><circle class="cls-2" cx="4.84" cy="8.58" r="0.84"/><circle class="cls-2" cx="37.23" cy="14.16" r="0.84"/><circle class="cls-2" cx="30.03" cy="14.16" r="0.84"/><circle class="cls-2" cx="22.84" cy="14.16" r="0.84"/><circle class="cls-2" cx="15.64" cy="14.16" r="0.84"/><circle class="cls-2" cx="8.44" cy="14.16" r="0.84"/><circle class="cls-2" cx="1.24" cy="14.16" r="0.84"/><circle class="cls-2" cx="40.83" cy="19.68" r="0.84"/><circle class="cls-2" cx="33.63" cy="19.68" r="0.84"/><circle class="cls-2" cx="26.43" cy="19.68" r="0.84"/><circle class="cls-2" cx="19.24" cy="19.68" r="0.84"/><circle class="cls-2" cx="12.04" cy="19.68" r="0.84"/><circle class="cls-2" cx="4.84" cy="19.68" r="0.84"/><circle class="cls-2" cx="37.52" cy="25.24" r="0.84"/><circle class="cls-2" cx="30.33" cy="25.24" r="0.84"/><circle class="cls-2" cx="23.13" cy="25.24" r="0.84"/><circle class="cls-2" cx="15.93" cy="25.24" r="0.84"/><circle class="cls-2" cx="8.73" cy="25.24" r="0.84"/><circle class="cls-2" cx="1.53" cy="25.24" r="0.84"/><circle class="cls-2" cx="41.12" cy="30.76" r="0.84"/><circle class="cls-2" cx="33.92" cy="30.76" r="0.84"/><circle class="cls-2" cx="26.73" cy="30.76" r="0.84"/><circle class="cls-2" cx="19.53" cy="30.76" r="0.84"/><circle class="cls-2" cx="12.33" cy="30.76" r="0.84"/><circle class="cls-2" cx="5.13" cy="30.76" r="0.84"/></pattern><pattern id="New_Pattern-19" data-name="New Pattern" width="43.43" height="32.75" patternTransform="translate(462.11 133.14) scale(0.59 0.56)" patternUnits="userSpaceOnUse" viewBox="0 0 43.43 32.75"><rect class="cls-1" width="43.43" height="32.75"/><circle class="cls-2" cx="37.23" cy="3.07" r="0.84"/><circle class="cls-2" cx="30.03" cy="3.07" r="0.84"/><circle class="cls-2" cx="22.84" cy="3.07" r="0.84"/><circle class="cls-2" cx="15.64" cy="3.07" r="0.84"/><circle class="cls-2" cx="8.44" cy="3.07" r="0.84"/><circle class="cls-2" cx="1.24" cy="3.07" r="0.84"/><circle class="cls-2" cx="40.83" cy="8.58" r="0.84"/><circle class="cls-2" cx="33.63" cy="8.58" r="0.84"/><circle class="cls-2" cx="26.43" cy="8.58" r="0.84"/><circle class="cls-2" cx="19.24" cy="8.58" r="0.84"/><circle class="cls-2" cx="12.04" cy="8.58" r="0.84"/><circle class="cls-2" cx="4.84" cy="8.58" r="0.84"/><circle class="cls-2" cx="37.23" cy="14.16" r="0.84"/><circle class="cls-2" cx="30.03" cy="14.16" r="0.84"/><circle class="cls-2" cx="22.84" cy="14.16" r="0.84"/><circle class="cls-2" cx="15.64" cy="14.16" r="0.84"/><circle class="cls-2" cx="8.44" cy="14.16" r="0.84"/><circle class="cls-2" cx="1.24" cy="14.16" r="0.84"/><circle class="cls-2" cx="40.83" cy="19.68" r="0.84"/><circle class="cls-2" cx="33.63" cy="19.68" r="0.84"/><circle class="cls-2" cx="26.43" cy="19.68" r="0.84"/><circle class="cls-2" cx="19.24" cy="19.68" r="0.84"/><circle class="cls-2" cx="12.04" cy="19.68" r="0.84"/><circle class="cls-2" cx="4.84" cy="19.68" r="0.84"/><circle class="cls-2" cx="37.52" cy="25.24" r="0.84"/><circle class="cls-2" cx="30.33" cy="25.24" r="0.84"/><circle class="cls-2" cx="23.13" cy="25.24" r="0.84"/><circle class="cls-2" cx="15.93" cy="25.24" r="0.84"/><circle class="cls-2" cx="8.73" cy="25.24" r="0.84"/><circle class="cls-2" cx="1.53" cy="25.24" r="0.84"/><circle class="cls-2" cx="41.12" cy="30.76" r="0.84"/><circle class="cls-2" cx="33.92" cy="30.76" r="0.84"/><circle class="cls-2" cx="26.73" cy="30.76" r="0.84"/><circle class="cls-2" cx="19.53" cy="30.76" r="0.84"/><circle class="cls-2" cx="12.33" cy="30.76" r="0.84"/><circle class="cls-2" cx="5.13" cy="30.76" r="0.84"/></pattern><pattern id="New_Pattern-21" data-name="New Pattern" width="43.43" height="32.75" patternTransform="translate(461.6 140.18) scale(0.59 0.56)" patternUnits="userSpaceOnUse" viewBox="0 0 43.43 32.75"><rect class="cls-1" width="43.43" height="32.75"/><circle class="cls-2" cx="37.23" cy="3.07" r="0.84"/><circle class="cls-2" cx="30.03" cy="3.07" r="0.84"/><circle class="cls-2" cx="22.84" cy="3.07" r="0.84"/><circle class="cls-2" cx="15.64" cy="3.07" r="0.84"/><circle class="cls-2" cx="8.44" cy="3.07" r="0.84"/><circle class="cls-2" cx="1.24" cy="3.07" r="0.84"/><circle class="cls-2" cx="40.83" cy="8.58" r="0.84"/><circle class="cls-2" cx="33.63" cy="8.58" r="0.84"/><circle class="cls-2" cx="26.43" cy="8.58" r="0.84"/><circle class="cls-2" cx="19.24" cy="8.58" r="0.84"/><circle class="cls-2" cx="12.04" cy="8.58" r="0.84"/><circle class="cls-2" cx="4.84" cy="8.58" r="0.84"/><circle class="cls-2" cx="37.23" cy="14.16" r="0.84"/><circle class="cls-2" cx="30.03" cy="14.16" r="0.84"/><circle class="cls-2" cx="22.84" cy="14.16" r="0.84"/><circle class="cls-2" cx="15.64" cy="14.16" r="0.84"/><circle class="cls-2" cx="8.44" cy="14.16" r="0.84"/><circle class="cls-2" cx="1.24" cy="14.16" r="0.84"/><circle class="cls-2" cx="40.83" cy="19.68" r="0.84"/><circle class="cls-2" cx="33.63" cy="19.68" r="0.84"/><circle class="cls-2" cx="26.43" cy="19.68" r="0.84"/><circle class="cls-2" cx="19.24" cy="19.68" r="0.84"/><circle class="cls-2" cx="12.04" cy="19.68" r="0.84"/><circle class="cls-2" cx="4.84" cy="19.68" r="0.84"/><circle class="cls-2" cx="37.52" cy="25.24" r="0.84"/><circle class="cls-2" cx="30.33" cy="25.24" r="0.84"/><circle class="cls-2" cx="23.13" cy="25.24" r="0.84"/><circle class="cls-2" cx="15.93" cy="25.24" r="0.84"/><circle class="cls-2" cx="8.73" cy="25.24" r="0.84"/><circle class="cls-2" cx="1.53" cy="25.24" r="0.84"/><circle class="cls-2" cx="41.12" cy="30.76" r="0.84"/><circle class="cls-2" cx="33.92" cy="30.76" r="0.84"/><circle class="cls-2" cx="26.73" cy="30.76" r="0.84"/><circle class="cls-2" cx="19.53" cy="30.76" r="0.84"/><circle class="cls-2" cx="12.33" cy="30.76" r="0.84"/><circle class="cls-2" cx="5.13" cy="30.76" r="0.84"/></pattern></defs><title>Tupelo_Illo_4-FINAL</title><text class="cls-3" transform="translate(49.21 56.96) scale(1.13 1)">TUPE<tspan class="cls-4" x="73.61" y="0">L</tspan><tspan x="87.42" y="0">O CHAINTREE</tspan></text><text class="cls-5" transform="translate(60.58 187.51) scale(1.13 1)">1</text><text class="cls-6" transform="translate(69.75 187.51) scale(1.13 1)">1</text><text class="cls-7" transform="translate(135.09 123.23) scale(1.13 1)">Owner of chain <tspan x="0" y="24">wishes to append data. </tspan><tspan x="0" y="48">Submits to signer&apos;s </tspan><tspan x="0" y="72">group for validation.</tspan></text><text class="cls-5" transform="translate(63.58 841.43) scale(1.13 1)">3</text><text class="cls-6" transform="translate(72.75 841.43) scale(1.13 1)">3</text><path class="cls-8" d="M161.09,766.74c1,0,1.83,0,2.48,0s1.47,0,2.48,0l2.36,0a7.77,7.77,0,0,0,1.52-.21l.41,2.79a.79.79,0,0,1-.52.14c-.14,0-.21,0-.22-.1a2.59,2.59,0,0,0-.76-1.41,3.1,3.1,0,0,0-1.71-.33c-1.55,0-2.36.1-2.42.3a7,7,0,0,0-.2,2v7a6.84,6.84,0,0,0,.2,1.82c0,.09.24.18.62.26a4,4,0,0,0,.79.13c.06,0,.09.1.09.29a.68.68,0,0,1-.05.27l-2.55-.09-2.64.09a.37.37,0,0,1-.08-.29c0-.18,0-.27.08-.27a4.43,4.43,0,0,0,.85-.12q.56-.12.63-.27a7.06,7.06,0,0,0,.15-1.74v-7.07a5.49,5.49,0,0,0-.2-2c-.11-.2-.91-.3-2.37-.3a3.1,3.1,0,0,0-1.71.33,2.59,2.59,0,0,0-.76,1.41c0,.07-.08.1-.22.1a.77.77,0,0,1-.52-.14l.41-2.79a7.68,7.68,0,0,0,1.52.21Z"/><path class="cls-8" d="M177.36,771.06a2,2,0,0,1,1.72.57,1.57,1.57,0,0,1-.25,1,.72.72,0,0,1-.59.32,1,1,0,0,1-.73-.34,1.22,1.22,0,0,0-.9-.33,1.52,1.52,0,0,0-1.18.57,1.76,1.76,0,0,0-.51,1.19V777a6.51,6.51,0,0,0,.18,1.74c0,.09.22.18.58.26a3.55,3.55,0,0,0,.76.13s.07.08.08.23a.63.63,0,0,1,0,.33l-2.37-.09-2.4.09a.42.42,0,0,1-.09-.32q0-.24.09-.24a3.26,3.26,0,0,0,.78-.13c.35-.08.53-.17.56-.26a5.42,5.42,0,0,0,.16-1.37v-3.69a1.47,1.47,0,0,0-.31-1.06,1.24,1.24,0,0,0-.54-.32,2,2,0,0,0-.53-.09c-.14,0-.21,0-.21,0,0-.31.05-.47.13-.48a29.05,29.05,0,0,0,3-.51l.11,0c.06,0,.09,0,.11.16a1,1,0,0,1,0,.25l-.13,1a3.92,3.92,0,0,1,1.09-1A2.44,2.44,0,0,1,177.36,771.06Z"/><path class="cls-8" d="M184.44,771.08a4.36,4.36,0,0,1,1.79.34,2.92,2.92,0,0,1,1.17.88,4.07,4.07,0,0,1,.6,1.09,3.63,3.63,0,0,1,.18,1.11c0,.26,0,.42-.13.48a1.16,1.16,0,0,1-.51.08H182c-.12,0-.17,0-.17.1a3.52,3.52,0,0,0,.83,2.27,2.92,2.92,0,0,0,2.42,1,4.18,4.18,0,0,0,.88-.08,4.71,4.71,0,0,0,.72-.18,3.39,3.39,0,0,0,.5-.22l.36-.2.16-.1c.09,0,.13.09.13.26a.63.63,0,0,1-.13.35,4.06,4.06,0,0,1-1.3,1,3.94,3.94,0,0,1-1.87.44,4.39,4.39,0,0,1-3.13-1.22,3.88,3.88,0,0,1-1.31-3,4.29,4.29,0,0,1,1.24-3.24A4.34,4.34,0,0,1,184.44,771.08Zm-.22.72a2,2,0,0,0-1.75.87,2.76,2.76,0,0,0-.6,1.44c0,.09,0,.13.13.13h4.29c.07,0,.11-.06.11-.19a2.58,2.58,0,0,0-.59-1.44A1.88,1.88,0,0,0,184.22,771.8Z"/><path class="cls-8" d="M193.9,771.08a4.28,4.28,0,0,1,1.78.34,2.88,2.88,0,0,1,1.18.88,3.77,3.77,0,0,1,.59,1.09,3.37,3.37,0,0,1,.19,1.11c0,.26,0,.42-.13.48a1.16,1.16,0,0,1-.51.08h-5.54c-.12,0-.18,0-.18.1a3.53,3.53,0,0,0,.84,2.27,2.92,2.92,0,0,0,2.42,1,4.18,4.18,0,0,0,.88-.08,4.29,4.29,0,0,0,.71-.18,3.11,3.11,0,0,0,.51-.22l.36-.2.16-.1c.09,0,.13.09.13.26a.63.63,0,0,1-.13.35,4.06,4.06,0,0,1-1.3,1,4,4,0,0,1-1.87.44,4.39,4.39,0,0,1-3.13-1.22,3.88,3.88,0,0,1-1.31-3,4.29,4.29,0,0,1,1.24-3.24A4.34,4.34,0,0,1,193.9,771.08Zm-.22.72a2,2,0,0,0-1.75.87,2.76,2.76,0,0,0-.6,1.44c0,.09,0,.13.13.13h4.29c.07,0,.11-.06.11-.19a2.58,2.58,0,0,0-.59-1.44A1.88,1.88,0,0,0,193.68,771.8Z"/><path class="cls-8" d="M207.21,777a6.51,6.51,0,0,0,.18,1.74c0,.09.22.18.57.26a3.4,3.4,0,0,0,.75.13s.07.08.08.23a.63.63,0,0,1,0,.33l-2.35-.09-2.4.09a.42.42,0,0,1-.09-.32q0-.24.09-.24a3.26,3.26,0,0,0,.78-.13c.35-.08.53-.17.56-.26a5.42,5.42,0,0,0,.16-1.37v-3.69a1.47,1.47,0,0,0-.31-1.06,1.24,1.24,0,0,0-.54-.32,2,2,0,0,0-.53-.09c-.14,0-.21,0-.21,0,0-.31,0-.47.13-.48a29.05,29.05,0,0,0,3-.51l0,0h.07c.06,0,.09,0,.11.16a1,1,0,0,1,0,.25,10.73,10.73,0,0,0-.11,1.41Zm-1.79-8.25a.91.91,0,0,1,0-1.39,1.23,1.23,0,0,1,1.56,0,.91.91,0,0,1,0,1.39,1.23,1.23,0,0,1-1.56,0Z"/><path class="cls-8" d="M213.35,771.06a9.09,9.09,0,0,1,1.22.11l1,.14a10,10,0,0,1,.26,2c0,.06-.09.09-.28.09s-.32,0-.33-.13a2,2,0,0,0-.63-1,1.69,1.69,0,0,0-1.18-.49c-1.05,0-1.58.39-1.58,1.16a1.36,1.36,0,0,0,.09.51,1,1,0,0,0,.34.43l.38.3c.09.06.29.16.59.31l.56.28.51.27.61.32a4.81,4.81,0,0,1,.52.33,2.86,2.86,0,0,1,.49.42,2.74,2.74,0,0,1,.3.47,1.34,1.34,0,0,1,.14.58,2.36,2.36,0,0,1-1,1.92,3.83,3.83,0,0,1-2.38.77,7.16,7.16,0,0,1-.84,0c-.26,0-.56-.09-.92-.16s-.62-.13-.81-.16a4.81,4.81,0,0,1-.25-1,6.2,6.2,0,0,1-.12-1.05.52.52,0,0,1,.26-.12c.22,0,.34,0,.35.12a2.17,2.17,0,0,0,.83,1.14,2.35,2.35,0,0,0,1.5.56,1.92,1.92,0,0,0,1.16-.34,1.17,1.17,0,0,0,.45-1,1.44,1.44,0,0,0-.14-.62,1.53,1.53,0,0,0-.46-.5c-.22-.15-.42-.28-.6-.38l-.78-.38c-.34-.15-.59-.28-.75-.37-1.14-.58-1.71-1.28-1.71-2.09a2,2,0,0,1,1-1.72A3.86,3.86,0,0,1,213.35,771.06Z"/><path class="cls-8" d="M231.65,772.94v3.9a6.64,6.64,0,0,0,.15,1.49.37.37,0,0,0,.24.21,1.51,1.51,0,0,0,.42.1l.44,0,.2,0s.07.08.07.21a.55.55,0,0,1-.06.19q-.06.12-.12.12c-.22,0-.47,0-.74.08l-.76.14-.66.16-.48.13-.2,0c-.12,0-.17-.1-.17-.31v-1l0-.09a4.26,4.26,0,0,1-2.88,1.38,2.63,2.63,0,0,1-1.4-.36,2.19,2.19,0,0,1-.85-1,4.6,4.6,0,0,1-.39-1.15,6.25,6.25,0,0,1-.11-1.16v-2.46a1.43,1.43,0,0,0-.31-1.06,1.13,1.13,0,0,0-.54-.32,2,2,0,0,0-.52-.09c-.14,0-.21,0-.21,0,0-.31,0-.47.13-.48a29.58,29.58,0,0,0,3-.51l.1,0c.06,0,.1,0,.12.16a1,1,0,0,1,0,.25A11.08,11.08,0,0,0,226,773v2.64a3.87,3.87,0,0,0,.51,2.22,1.9,1.9,0,0,0,1.65.71,2,2,0,0,0,1.25-.46c.4-.3.6-.57.6-.79v-3.65a1.47,1.47,0,0,0-.31-1.06,1.24,1.24,0,0,0-.54-.32,2,2,0,0,0-.53-.09c-.14,0-.21,0-.21,0,0-.31.05-.47.13-.48a29.05,29.05,0,0,0,3-.51l.11,0c.06,0,.1,0,.11.16a1,1,0,0,1,0,.25A10.49,10.49,0,0,0,231.65,772.94Z"/><path class="cls-8" d="M239.37,771.08a4.31,4.31,0,0,1,3.3,1.26,3.88,3.88,0,0,1,1.19,2.69,4.48,4.48,0,0,1-1.48,3.3,4.68,4.68,0,0,1-3.34,1.42l-.58,0a1.93,1.93,0,0,1-.45-.07l-.31-.08-.29-.11-.22-.09a.37.37,0,0,0-.09.25v1.68a6.41,6.41,0,0,0,.18,1.74q0,.13.57.27a3.89,3.89,0,0,0,.75.12s.07.08.09.25a.66.66,0,0,1,0,.32l-2.35-.1-2.4.1a.48.48,0,0,1-.08-.32c0-.17,0-.25.08-.25a3.7,3.7,0,0,0,.78-.12q.52-.14.57-.27a5.38,5.38,0,0,0,.15-1.36v-8.07a1.43,1.43,0,0,0-.31-1.06,1.24,1.24,0,0,0-.54-.32,2,2,0,0,0-.53-.09c-.13,0-.2,0-.2,0,0-.32,0-.48.13-.49a29.2,29.2,0,0,0,3-.51l.11,0c.05,0,.07,0,.07.11s0,.16,0,.26a.88.88,0,0,0,0,.18v.11a5.37,5.37,0,0,1,1-.44A3.9,3.9,0,0,1,239.37,771.08Zm-.71,1a1.83,1.83,0,0,0-1.12.32,1.08,1.08,0,0,0-.44.93v4.39a1.05,1.05,0,0,0,.64.89,2.8,2.8,0,0,0,1.39.36,2.43,2.43,0,0,0,2.06-1,3.77,3.77,0,0,0,.77-2.33,3.46,3.46,0,0,0-1-2.59A3.25,3.25,0,0,0,238.66,772Z"/><path class="cls-8" d="M250.43,771a3.86,3.86,0,0,1,1.65.33c.11,0,.16-.11.16-.35v-2.11a6.22,6.22,0,0,0-.13-1.25c-.08-.21-.45-.31-1.13-.31h-.2c-.08,0-.13-.07-.13-.21s0-.32.13-.32c.45,0,.85-.09,1.23-.15a8.05,8.05,0,0,0,.88-.2c.21-.06.39-.13.53-.18l.33-.15.09-.06h0a.26.26,0,0,1,.17.11.45.45,0,0,1,.11.2,4.91,4.91,0,0,0-.24,1.7v8.79a6.56,6.56,0,0,0,.13,1.49.37.37,0,0,0,.24.21,1.53,1.53,0,0,0,.41.1l.41,0,.2,0s.06.09.06.23,0,.29-.13.29-.47,0-.74.08l-.77.13-.67.14-.5.12-.2,0c-.09,0-.13-.11-.13-.33v-.23c0-.08,0-.11-.09-.08a5.34,5.34,0,0,1-2.33.6,4.29,4.29,0,0,1-3.06-1.15,3.65,3.65,0,0,1-1.23-2.75,4.46,4.46,0,0,1,1.5-3.33A4.81,4.81,0,0,1,250.43,771Zm-.28.82a2.32,2.32,0,0,0-2,1,3.89,3.89,0,0,0-.73,2.36,3.77,3.77,0,0,0,.86,2.47,2.89,2.89,0,0,0,2.37,1.05,1.91,1.91,0,0,0,1.17-.31,1,1,0,0,0,.42-.81V773a1,1,0,0,0-.5-.77A2.75,2.75,0,0,0,250.15,771.82Z"/><path class="cls-8" d="M260.77,771.08a2.4,2.4,0,0,1,1.74.52,2.26,2.26,0,0,1,.53,1.67v4.51a1,1,0,0,0,.24.68.81.81,0,0,0,.66.28,1.58,1.58,0,0,0,.77-.28c.06,0,.09,0,.09.16a.73.73,0,0,1-.11.41,2.74,2.74,0,0,1-1.54.68,1.51,1.51,0,0,1-1-.37,2.14,2.14,0,0,1-.64-.78.6.6,0,0,0-.16.13L261,779c-.16.11-.35.22-.56.34a3.26,3.26,0,0,1-.75.3,3.58,3.58,0,0,1-.87.11,2.77,2.77,0,0,1-1.67-.48,1.65,1.65,0,0,1-.66-1.43,1.47,1.47,0,0,1,.24-.81,2.34,2.34,0,0,1,.58-.63,5.08,5.08,0,0,1,.9-.5c.38-.16.7-.29,1-.38l1.06-.32.93-.29a.27.27,0,0,0,.19-.29v-1.47a1.14,1.14,0,0,0-.44-1,1.69,1.69,0,0,0-1.05-.34,1.6,1.6,0,0,0-1.1.4,1.37,1.37,0,0,0-.44,1c0,.45-.3.68-.9.68a.94.94,0,0,1-.86-.37c0-.56.46-1.12,1.39-1.67A5.43,5.43,0,0,1,260.77,771.08Zm-2.07,7.26a1.62,1.62,0,0,0,1,.28,2.23,2.23,0,0,0,1.14-.32c.37-.22.55-.44.55-.66v-2c-.11,0-.4.14-.85.27s-.81.25-1.07.35a2.22,2.22,0,0,0-.75.48,1.08,1.08,0,0,0-.36.8A1,1,0,0,0,258.7,778.34Z"/><path class="cls-8" d="M266.69,772.29h-1.28c-.07,0-.11-.14-.11-.41a.33.33,0,0,1,0-.14,4.16,4.16,0,0,0,1.39-1,4.74,4.74,0,0,0,.47-.58c.16-.21.29-.4.39-.55a2.06,2.06,0,0,0,.15-.26c.44,0,.66,0,.66.1v1.93h3a.16.16,0,0,1,.18.18,1.6,1.6,0,0,1-.22.74h-2.93v4.79a1.74,1.74,0,0,0,.45,1.25,1.57,1.57,0,0,0,1.18.46,2.87,2.87,0,0,0,1.36-.37c.05,0,.11,0,.2.17s.13.21.11.22a3.61,3.61,0,0,1-1,.62,3.47,3.47,0,0,1-1.41.3,2.67,2.67,0,0,1-1.83-.64,2.28,2.28,0,0,1-.74-1.84Z"/><path class="cls-8" d="M277,771.08a4.36,4.36,0,0,1,1.79.34,2.92,2.92,0,0,1,1.17.88,4.07,4.07,0,0,1,.6,1.09,3.63,3.63,0,0,1,.18,1.11c0,.26,0,.42-.13.48a1.1,1.1,0,0,1-.5.08h-5.55c-.11,0-.17,0-.17.1a3.57,3.57,0,0,0,.83,2.27,2.94,2.94,0,0,0,2.42,1,4.18,4.18,0,0,0,.88-.08,4.71,4.71,0,0,0,.72-.18,3,3,0,0,0,.5-.22l.37-.2.15-.1c.09,0,.13.09.13.26a.63.63,0,0,1-.13.35,4.31,4.31,0,0,1-3.17,1.42,4.4,4.4,0,0,1-3.13-1.22,3.91,3.91,0,0,1-1.31-3,4.29,4.29,0,0,1,1.24-3.24A4.34,4.34,0,0,1,277,771.08Zm-.22.72a2,2,0,0,0-1.74.87,2.71,2.71,0,0,0-.61,1.44.12.12,0,0,0,.13.13h4.29c.08,0,.11-.06.11-.19a2.58,2.58,0,0,0-.59-1.44A1.88,1.88,0,0,0,276.78,771.8Z"/><path class="cls-8" d="M287,771a3.86,3.86,0,0,1,1.65.33c.11,0,.16-.11.16-.35v-2.11a6.22,6.22,0,0,0-.13-1.25c-.08-.21-.45-.31-1.13-.31h-.19c-.09,0-.14-.07-.14-.21s.05-.32.14-.32c.44,0,.84-.09,1.22-.15a8.05,8.05,0,0,0,.88-.2l.54-.18.33-.15.08-.06h.05a.22.22,0,0,1,.17.11.45.45,0,0,1,.11.2,4.91,4.91,0,0,0-.24,1.7v8.79a7.19,7.19,0,0,0,.13,1.49.36.36,0,0,0,.25.21,1.38,1.38,0,0,0,.4.1l.41,0,.2,0s.06.09.06.23,0,.29-.13.29l-.74.08-.76.13-.68.14-.5.12-.2,0c-.09,0-.13-.11-.13-.33v-.23c0-.08,0-.11-.09-.08a5.34,5.34,0,0,1-2.33.6,4.29,4.29,0,0,1-3.06-1.15,3.65,3.65,0,0,1-1.23-2.75,4.43,4.43,0,0,1,1.51-3.33A4.77,4.77,0,0,1,287,771Zm-.28.82a2.32,2.32,0,0,0-2,1,3.89,3.89,0,0,0-.73,2.36,3.77,3.77,0,0,0,.86,2.47,2.89,2.89,0,0,0,2.37,1.05,1.91,1.91,0,0,0,1.17-.31,1,1,0,0,0,.42-.81V773a1,1,0,0,0-.5-.77A2.75,2.75,0,0,0,286.75,771.82Z"/><path class="cls-8" d="M293.91,779.53a1.05,1.05,0,0,1-.39-.81,1,1,0,0,1,.39-.79,1.36,1.36,0,0,1,.91-.33,1.27,1.27,0,0,1,.89.33,1,1,0,0,1,.37.79,1.1,1.1,0,0,1-.37.81,1.28,1.28,0,0,1-.89.34A1.37,1.37,0,0,1,293.91,779.53Z"/><path class="cls-8" d="M170.15,800a13.53,13.53,0,0,1-.31,1.5,3.83,3.83,0,0,1-.44,1.33,11.75,11.75,0,0,1-5.26.86,7,7,0,0,1-4.94-1.89,6,6,0,0,1-2-4.51,6.31,6.31,0,0,1,2.09-4.76,7.16,7.16,0,0,1,5.12-2,30.25,30.25,0,0,1,5.35.49c0,1.74,0,2.68,0,2.81s-.15.29-.46.29c-.15,0-.24,0-.28-.1s-.1-.34-.17-.51a3.16,3.16,0,0,0-.42-.69,3.11,3.11,0,0,0-.77-.72,4.4,4.4,0,0,0-1.27-.53,7.08,7.08,0,0,0-1.86-.22,4.77,4.77,0,0,0-3.68,1.69,5.55,5.55,0,0,0-1.51,3.82,6.87,6.87,0,0,0,.61,2.91,5.24,5.24,0,0,0,1.95,2.19,5.65,5.65,0,0,0,3.16.87,4.69,4.69,0,0,0,3.36-1.13,2.51,2.51,0,0,0,.54-.77c.15-.32.27-.59.35-.8s.15-.32.19-.32l.32,0,.3.08Z"/><path class="cls-8" d="M175.78,795.08a2.39,2.39,0,0,1,1.73.52,2.22,2.22,0,0,1,.53,1.67v4.51a1,1,0,0,0,.24.68.84.84,0,0,0,.66.28,1.51,1.51,0,0,0,.77-.28c.06,0,.09,0,.09.16a.66.66,0,0,1-.11.41,2.69,2.69,0,0,1-1.54.68,1.51,1.51,0,0,1-1-.37,2.11,2.11,0,0,1-.63-.78s-.07,0-.17.13a4,4,0,0,1-.38.29c-.16.11-.35.22-.56.34a3.67,3.67,0,0,1-.75.3,3.7,3.7,0,0,1-.87.11,2.75,2.75,0,0,1-1.67-.48,1.65,1.65,0,0,1-.66-1.43,1.47,1.47,0,0,1,.24-.81,2.31,2.31,0,0,1,.57-.63,5.08,5.08,0,0,1,.9-.5c.38-.16.71-.29,1-.38l1.07-.32.92-.29a.28.28,0,0,0,.2-.29v-1.47a1.17,1.17,0,0,0-.44-1,1.72,1.72,0,0,0-1.06-.34,1.63,1.63,0,0,0-1.1.4,1.37,1.37,0,0,0-.43,1c0,.45-.31.68-.91.68a.92.92,0,0,1-.85-.37c0-.56.46-1.12,1.38-1.67A5.47,5.47,0,0,1,175.78,795.08Zm-2.07,7.26a1.62,1.62,0,0,0,1,.28,2.29,2.29,0,0,0,1.14-.32c.37-.22.55-.44.55-.66v-2c-.12,0-.4.14-.86.27s-.81.25-1.06.35a2.22,2.22,0,0,0-.75.48,1.08,1.08,0,0,0-.36.8A1,1,0,0,0,173.71,802.34Z"/><path class="cls-8" d="M187,795a2.35,2.35,0,0,1,2.15,1,6.13,6.13,0,0,1,.62,3.16V801a7,7,0,0,0,.17,1.74c0,.09.22.18.58.26a3.43,3.43,0,0,0,.74.13c.05,0,.08.08.09.23a.63.63,0,0,1,0,.33l-2.35-.09-2.31.09a.42.42,0,0,1-.09-.32q0-.24.09-.24a2.8,2.8,0,0,0,.73-.13c.32-.08.49-.17.52-.26a5.42,5.42,0,0,0,.16-1.37v-2a4.19,4.19,0,0,0-.53-2.48,2.05,2.05,0,0,0-1.72-.67,2.34,2.34,0,0,0-1.35.46c-.43.31-.65.58-.65.83V801a6.51,6.51,0,0,0,.18,1.74c0,.09.22.18.57.26a3.4,3.4,0,0,0,.75.13s.07.08.08.23a.63.63,0,0,1,0,.33l-2.35-.09-2.4.09a.42.42,0,0,1-.09-.32q0-.24.09-.24a3.26,3.26,0,0,0,.78-.13c.35-.08.53-.17.56-.26a5.42,5.42,0,0,0,.16-1.37v-3.69a1.47,1.47,0,0,0-.31-1.06,1.24,1.24,0,0,0-.54-.32,2,2,0,0,0-.53-.09c-.14,0-.21,0-.21,0,0-.31.05-.47.13-.48a29.05,29.05,0,0,0,3-.51l.11,0c.06,0,.09,0,.11.16a1,1,0,0,1,0,.25,5.39,5.39,0,0,0-.09.78c0,.05,0,.08,0,.08l.06,0a5.78,5.78,0,0,1,1.38-.89A3.81,3.81,0,0,1,187,795Z"/><path class="cls-8" d="M199,795a2.35,2.35,0,0,1,2.16,1,6.15,6.15,0,0,1,.61,3.16V801a6.51,6.51,0,0,0,.18,1.74c0,.09.22.18.57.26a3.4,3.4,0,0,0,.75.13s.07.08.09.23a.72.72,0,0,1,0,.33l-2.35-.09-2.31.09a.42.42,0,0,1-.09-.32q0-.24.09-.24a2.87,2.87,0,0,0,.74-.13c.31-.08.49-.17.52-.26a5.46,5.46,0,0,0,.15-1.37v-2a4.19,4.19,0,0,0-.53-2.48,2,2,0,0,0-1.71-.67,2.39,2.39,0,0,0-1.36.46c-.43.31-.65.58-.65.83V801a6.51,6.51,0,0,0,.18,1.74c0,.09.22.18.57.26a3.4,3.4,0,0,0,.75.13s.07.08.09.23a1,1,0,0,1,0,.33l-2.36-.09-2.4.09a.48.48,0,0,1-.08-.32c0-.16,0-.24.08-.24a3.4,3.4,0,0,0,.79-.13c.34-.08.53-.17.56-.26a5.46,5.46,0,0,0,.15-1.37v-3.69a1.43,1.43,0,0,0-.31-1.06,1.13,1.13,0,0,0-.54-.32,2,2,0,0,0-.52-.09c-.14,0-.21,0-.21,0,0-.31,0-.47.13-.48a29.2,29.2,0,0,0,3-.51l.11,0c.06,0,.1,0,.11.16a.51.51,0,0,1,0,.25,6.73,6.73,0,0,0-.08.78c0,.05,0,.08,0,.08a.13.13,0,0,0,.07,0,5.5,5.5,0,0,1,1.37-.89A3.81,3.81,0,0,1,199,795Z"/><path class="cls-8" d="M209.41,795.06a4.87,4.87,0,0,1,3.39,1.27,4,4,0,0,1,1.4,3,4,4,0,0,1-1.37,3.07,4.75,4.75,0,0,1-3.38,1.28,4.87,4.87,0,0,1-3.41-1.28,4.11,4.11,0,0,1,0-6.14A4.88,4.88,0,0,1,209.41,795.06Zm-.24.76a2.33,2.33,0,0,0-1.91.95,3.65,3.65,0,0,0-.73,2.31,4.22,4.22,0,0,0,.93,2.75,2.77,2.77,0,0,0,2.19,1.14,2.27,2.27,0,0,0,1.91-1,3.72,3.72,0,0,0,.75-2.34,4,4,0,0,0-.94-2.7A2.82,2.82,0,0,0,209.17,795.82Z"/><path class="cls-8" d="M216.8,796.29h-1.28c-.07,0-.11-.14-.11-.41,0-.08,0-.12,0-.14a4.23,4.23,0,0,0,1.38-1,5.92,5.92,0,0,0,.48-.58l.38-.55a2.06,2.06,0,0,0,.15-.26c.44,0,.66,0,.66.1v1.93h3a.16.16,0,0,1,.18.18,1.49,1.49,0,0,1-.22.74h-2.93v4.79a1.74,1.74,0,0,0,.45,1.25,1.59,1.59,0,0,0,1.18.46,2.91,2.91,0,0,0,1.37-.37s.11,0,.19.17.13.21.11.22a3.87,3.87,0,0,1-2.42.92,2.67,2.67,0,0,1-1.83-.64,2.32,2.32,0,0,1-.74-1.84Z"/><path class="cls-8" d="M232.61,795a4.35,4.35,0,0,1,3.32,1.28,4,4,0,0,1,1.19,2.72,4.28,4.28,0,0,1-1.55,3.27,5,5,0,0,1-3.42,1.4,9.65,9.65,0,0,1-1.55-.12,8.36,8.36,0,0,0-.84-.13,1.34,1.34,0,0,0-.5.11,1.86,1.86,0,0,1-.34.1,1.31,1.31,0,0,1-.27,0c-.13,0-.19-.09-.19-.14s0-.12.06-.32.09-.5.14-.89a13,13,0,0,0,.06-1.31v-8.09a5.57,5.57,0,0,0-.13-1.25c-.07-.21-.45-.31-1.12-.31h-.2c-.09,0-.13-.07-.13-.21s0-.32.13-.32c.44,0,.85-.09,1.22-.15a7.53,7.53,0,0,0,.88-.2l.54-.18.33-.15.09-.06h0a.26.26,0,0,1,.18.11.58.58,0,0,1,.11.2,4.91,4.91,0,0,0-.24,1.7v3.42c0,.14,0,.22.06.22l.07,0a4.36,4.36,0,0,1,.94-.41A3.44,3.44,0,0,1,232.61,795Zm-.7,1a1.8,1.8,0,0,0-1,.3,1,1,0,0,0-.44.87v4.55a.94.94,0,0,0,.64.89,3.77,3.77,0,0,0,1.51.28,2.23,2.23,0,0,0,2-1,4.21,4.21,0,0,0,.7-2.39,3.48,3.48,0,0,0-.91-2.5A3.2,3.2,0,0,0,231.91,796Z"/><path class="cls-8" d="M243.13,795.08a4.32,4.32,0,0,1,1.78.34,3,3,0,0,1,1.18.88,3.77,3.77,0,0,1,.59,1.09,3.37,3.37,0,0,1,.19,1.11c0,.26-.05.42-.13.48a1.16,1.16,0,0,1-.51.08h-5.54c-.12,0-.18,0-.18.1a3.53,3.53,0,0,0,.84,2.27,2.91,2.91,0,0,0,2.42,1,4.18,4.18,0,0,0,.88-.08,4.56,4.56,0,0,0,.71-.18,3.11,3.11,0,0,0,.51-.22l.36-.2.16-.1c.08,0,.13.09.13.26a.72.72,0,0,1-.13.35,4.06,4.06,0,0,1-1.3,1,4,4,0,0,1-1.87.44,4.43,4.43,0,0,1-3.14-1.22,3.91,3.91,0,0,1-1.31-3,4.18,4.18,0,0,1,4.36-4.43Zm-.22.72a2,2,0,0,0-1.75.87,2.76,2.76,0,0,0-.6,1.44c0,.09,0,.13.13.13H245c.07,0,.11-.06.11-.19a2.53,2.53,0,0,0-.6-1.44A1.85,1.85,0,0,0,242.91,795.8Z"/><path class="cls-8" d="M259.5,795a2.45,2.45,0,0,1,1.46.42,2.21,2.21,0,0,1,.8,1,5.24,5.24,0,0,1,3.41-1.39q2.77,0,2.77,3.75V801a6.51,6.51,0,0,0,.18,1.74c0,.09.22.18.57.26a3.4,3.4,0,0,0,.75.13s.07.08.09.23a.72.72,0,0,1,0,.33l-2.35-.09-2.4.09a.42.42,0,0,1-.09-.32q0-.24.09-.24a3.26,3.26,0,0,0,.78-.13c.35-.08.53-.17.56-.26a4.5,4.5,0,0,0,.16-1.25v-2.21c0-2-.74-3-2.22-3a2.37,2.37,0,0,0-1.41.42c-.4.28-.6.51-.6.7l0,.07v.1a8.39,8.39,0,0,1,.09,1.41v2.2a5.74,5.74,0,0,0,.17,1.57c0,.09.22.18.57.26a3.4,3.4,0,0,0,.75.13s.07.08.09.23a.76.76,0,0,1,0,.33l-2.36-.09-2.39.09a.42.42,0,0,1-.09-.32q0-.24.09-.24a3.42,3.42,0,0,0,.78-.13c.34-.08.53-.17.56-.26a5.46,5.46,0,0,0,.15-1.37v-2c0-2.07-.7-3.11-2.11-3.11a2.45,2.45,0,0,0-1.33.44c-.45.29-.67.58-.67.85V801a7,7,0,0,0,.17,1.74c0,.09.22.18.58.26a3.43,3.43,0,0,0,.74.13c.05,0,.08.08.09.23a.63.63,0,0,1,0,.33l-2.35-.09-2.4.09a.42.42,0,0,1-.09-.32q0-.24.09-.24a3.42,3.42,0,0,0,.78-.13c.34-.08.53-.17.56-.26a5.46,5.46,0,0,0,.15-1.37v-3.69a1.48,1.48,0,0,0-.3-1.06,1.24,1.24,0,0,0-.54-.32,2.08,2.08,0,0,0-.53-.09c-.14,0-.21,0-.21,0,0-.31,0-.47.13-.48a29.05,29.05,0,0,0,3-.51l.11,0c.06,0,.09,0,.11.16a1,1,0,0,1,0,.25,5.39,5.39,0,0,0-.09.78c0,.05,0,.08,0,.08s0,0,.07,0a5.9,5.9,0,0,1,1.37-.89A3.85,3.85,0,0,1,259.5,795Z"/><path class="cls-8" d="M275.2,795.08a2.4,2.4,0,0,1,1.74.52,2.26,2.26,0,0,1,.53,1.67v4.51a1,1,0,0,0,.24.68.81.81,0,0,0,.66.28,1.58,1.58,0,0,0,.77-.28c.06,0,.09,0,.09.16a.73.73,0,0,1-.11.41,2.74,2.74,0,0,1-1.54.68,1.51,1.51,0,0,1-1-.37,2.14,2.14,0,0,1-.64-.78.6.6,0,0,0-.16.13l-.39.29c-.16.11-.35.22-.56.34a3.26,3.26,0,0,1-.75.3,3.58,3.58,0,0,1-.87.11,2.77,2.77,0,0,1-1.67-.48,1.65,1.65,0,0,1-.66-1.43,1.47,1.47,0,0,1,.24-.81,2.34,2.34,0,0,1,.58-.63,4.74,4.74,0,0,1,.9-.5c.38-.16.7-.29,1-.38l1.06-.32.93-.29a.27.27,0,0,0,.19-.29v-1.47a1.14,1.14,0,0,0-.44-1,1.69,1.69,0,0,0-1.05-.34,1.6,1.6,0,0,0-1.1.4,1.34,1.34,0,0,0-.44,1c0,.45-.3.68-.9.68a.94.94,0,0,1-.86-.37c0-.56.46-1.12,1.39-1.67A5.43,5.43,0,0,1,275.2,795.08Zm-2.07,7.26a1.62,1.62,0,0,0,1,.28,2.23,2.23,0,0,0,1.14-.32c.37-.22.55-.44.55-.66v-2c-.11,0-.4.14-.85.27s-.81.25-1.07.35a2.22,2.22,0,0,0-.75.48,1.08,1.08,0,0,0-.36.8A1,1,0,0,0,273.13,802.34Z"/><path class="cls-8" d="M286.44,795a2.35,2.35,0,0,1,2.16,1,6.15,6.15,0,0,1,.61,3.16V801a6.51,6.51,0,0,0,.18,1.74c0,.09.22.18.57.26a3.4,3.4,0,0,0,.75.13s.07.08.09.23a.72.72,0,0,1,0,.33l-2.35-.09-2.31.09a.42.42,0,0,1-.09-.32q0-.24.09-.24a2.87,2.87,0,0,0,.74-.13c.31-.08.49-.17.51-.26a5,5,0,0,0,.16-1.37v-2a4.19,4.19,0,0,0-.53-2.48,2,2,0,0,0-1.72-.67,2.39,2.39,0,0,0-1.35.46c-.43.31-.65.58-.65.83V801a6.51,6.51,0,0,0,.18,1.74c0,.09.22.18.57.26a3.4,3.4,0,0,0,.75.13s.07.08.09.23a1,1,0,0,1,0,.33l-2.36-.09-2.4.09c-.06,0-.08-.16-.08-.32s0-.24.08-.24a3.26,3.26,0,0,0,.78-.13c.35-.08.54-.17.57-.26a5.46,5.46,0,0,0,.15-1.37v-3.69a1.43,1.43,0,0,0-.31-1.06,1.24,1.24,0,0,0-.54-.32,2,2,0,0,0-.53-.09c-.14,0-.2,0-.2,0,0-.31,0-.47.13-.48a29.2,29.2,0,0,0,3-.51l.11,0c.06,0,.1,0,.11.16a.51.51,0,0,1,0,.25,5,5,0,0,0-.08.78c0,.05,0,.08,0,.08a.09.09,0,0,0,.06,0,5.78,5.78,0,0,1,1.38-.89A3.81,3.81,0,0,1,286.44,795Z"/><path class="cls-8" d="M295.28,801a6.51,6.51,0,0,0,.18,1.74c0,.09.22.18.57.26a3.4,3.4,0,0,0,.75.13s.07.08.09.23a1,1,0,0,1,0,.33l-2.36-.09-2.4.09a.48.48,0,0,1-.08-.32c0-.16,0-.24.08-.24a3.26,3.26,0,0,0,.78-.13c.35-.08.54-.17.57-.26a5.46,5.46,0,0,0,.15-1.37v-3.69a1.43,1.43,0,0,0-.31-1.06,1.13,1.13,0,0,0-.54-.32,2,2,0,0,0-.52-.09c-.14,0-.21,0-.21,0,0-.31,0-.47.13-.48a29.2,29.2,0,0,0,3-.51l.05,0h.06c.06,0,.1,0,.11.16a.51.51,0,0,1,0,.25,10.73,10.73,0,0,0-.11,1.41Zm-1.79-8.25a.91.91,0,0,1,0-1.39,1.23,1.23,0,0,1,1.56,0,.91.91,0,0,1,0,1.39,1.23,1.23,0,0,1-1.56,0Z"/><path class="cls-8" d="M303.14,795.08a4.34,4.34,0,0,1,3.3,1.26,3.86,3.86,0,0,1,1.18,2.69,4.46,4.46,0,0,1-1.47,3.3,4.68,4.68,0,0,1-3.34,1.42l-.59,0a1.93,1.93,0,0,1-.45-.07l-.31-.08-.28-.11-.22-.09a.37.37,0,0,0-.09.25v1.68a6.41,6.41,0,0,0,.18,1.74q0,.13.57.27a3.89,3.89,0,0,0,.75.12s.07.08.08.25a.58.58,0,0,1,0,.32l-2.35-.1-2.4.1a.42.42,0,0,1-.09-.32c0-.17,0-.25.09-.25a3.7,3.7,0,0,0,.78-.12c.35-.09.53-.18.56-.27a4.93,4.93,0,0,0,.16-1.36v-8.07a1.47,1.47,0,0,0-.31-1.06,1.24,1.24,0,0,0-.54-.32,2,2,0,0,0-.53-.09q-.21,0-.21,0c0-.32.05-.48.14-.49a29.2,29.2,0,0,0,3-.51l.11,0s.07,0,.07.11a1.38,1.38,0,0,1,0,.26c0,.1,0,.16,0,.18v.11a5.86,5.86,0,0,1,1-.44A3.9,3.9,0,0,1,303.14,795.08Zm-.71,1a1.81,1.81,0,0,0-1.12.32,1.08,1.08,0,0,0-.44.93v4.39a1,1,0,0,0,.64.89,2.76,2.76,0,0,0,1.38.36,2.44,2.44,0,0,0,2.07-1,3.77,3.77,0,0,0,.77-2.33,3.43,3.43,0,0,0-1-2.59A3.21,3.21,0,0,0,302.43,796Z"/><path class="cls-8" d="M318,796.94v3.9a6.64,6.64,0,0,0,.15,1.49.37.37,0,0,0,.24.21,1.51,1.51,0,0,0,.42.1l.44,0,.2,0s.07.08.07.21a.55.55,0,0,1-.06.19q-.06.12-.12.12c-.22,0-.47,0-.74.08l-.76.14-.66.16-.48.13-.2,0c-.12,0-.17-.1-.17-.31v-1l-.05-.09a4.26,4.26,0,0,1-2.88,1.38,2.63,2.63,0,0,1-1.4-.36,2.19,2.19,0,0,1-.85-1,4.6,4.6,0,0,1-.39-1.15,6.25,6.25,0,0,1-.11-1.16v-2.46a1.43,1.43,0,0,0-.31-1.06,1.13,1.13,0,0,0-.54-.32,2,2,0,0,0-.52-.09c-.14,0-.21,0-.21,0,0-.31,0-.47.13-.48a29.58,29.58,0,0,0,3-.51l.1,0c.06,0,.1,0,.11.16a.51.51,0,0,1,0,.25,12.7,12.7,0,0,0-.13,1.44v2.64a3.87,3.87,0,0,0,.51,2.22,1.9,1.9,0,0,0,1.65.71,2,2,0,0,0,1.25-.46c.4-.3.6-.57.6-.79v-3.65a1.47,1.47,0,0,0-.31-1.06,1.24,1.24,0,0,0-.54-.32,2,2,0,0,0-.53-.09c-.14,0-.21,0-.21,0,0-.31.05-.47.13-.48a29.05,29.05,0,0,0,3-.51l.11,0c.06,0,.1,0,.11.16a1,1,0,0,1,0,.25A10.49,10.49,0,0,0,318,796.94Z"/><path class="cls-8" d="M321.75,801.33v-8.46a5.57,5.57,0,0,0-.14-1.25c-.07-.21-.44-.31-1.12-.31h-.2c-.08,0-.13-.07-.13-.21s0-.32.13-.32c.44,0,.85-.09,1.22-.15a7.08,7.08,0,0,0,.88-.2c.22-.06.4-.13.54-.18l.33-.15.09-.06h0a.26.26,0,0,1,.17.11.45.45,0,0,1,.11.2,4.91,4.91,0,0,0-.24,1.7V801a7,7,0,0,0,.17,1.74c0,.09.22.18.58.26a3.4,3.4,0,0,0,.75.13s.07.08.08.23a.63.63,0,0,1,0,.33l-2.35-.09-2.4.09a.42.42,0,0,1-.09-.32q0-.24.09-.24A3.26,3.26,0,0,0,321,803c.34-.08.53-.17.56-.26A5.42,5.42,0,0,0,321.75,801.33Z"/><path class="cls-8" d="M330.5,795.08a2.4,2.4,0,0,1,1.74.52,2.26,2.26,0,0,1,.53,1.67v4.51a1,1,0,0,0,.24.68.81.81,0,0,0,.66.28,1.58,1.58,0,0,0,.77-.28c.05,0,.08,0,.08.16a.66.66,0,0,1-.11.41,2.69,2.69,0,0,1-1.54.68,1.51,1.51,0,0,1-1-.37,2.14,2.14,0,0,1-.64-.78s-.07,0-.17.13a4,4,0,0,1-.38.29c-.16.11-.35.22-.56.34a3.26,3.26,0,0,1-.75.3,3.7,3.7,0,0,1-.87.11,2.77,2.77,0,0,1-1.67-.48,1.65,1.65,0,0,1-.66-1.43,1.47,1.47,0,0,1,.24-.81,2.31,2.31,0,0,1,.57-.63,4.87,4.87,0,0,1,.91-.5c.38-.16.7-.29,1-.38l1.07-.32.93-.29a.27.27,0,0,0,.19-.29v-1.47a1.14,1.14,0,0,0-.44-1,1.69,1.69,0,0,0-1-.34,1.6,1.6,0,0,0-1.1.4,1.34,1.34,0,0,0-.44,1c0,.45-.3.68-.9.68a.93.93,0,0,1-.86-.37c0-.56.46-1.12,1.38-1.67A5.5,5.5,0,0,1,330.5,795.08Zm-2.07,7.26a1.62,1.62,0,0,0,1,.28,2.23,2.23,0,0,0,1.14-.32c.37-.22.55-.44.55-.66v-2a8.66,8.66,0,0,1-.86.27c-.45.13-.8.25-1.06.35a2.22,2.22,0,0,0-.75.48,1.08,1.08,0,0,0-.36.8A1,1,0,0,0,328.43,802.34Z"/><path class="cls-8" d="M336.42,796.29h-1.28c-.07,0-.11-.14-.11-.41a.33.33,0,0,1,0-.14,4.16,4.16,0,0,0,1.39-1,4.74,4.74,0,0,0,.47-.58l.39-.55a2.06,2.06,0,0,0,.15-.26c.44,0,.66,0,.66.1v1.93h3a.16.16,0,0,1,.18.18,1.6,1.6,0,0,1-.22.74h-2.93v4.79a1.74,1.74,0,0,0,.45,1.25,1.56,1.56,0,0,0,1.18.46,2.87,2.87,0,0,0,1.36-.37s.11,0,.2.17.12.21.11.22a3.61,3.61,0,0,1-1,.62,3.5,3.5,0,0,1-1.41.3,2.7,2.7,0,0,1-1.84-.64,2.31,2.31,0,0,1-.73-1.84Z"/><path class="cls-8" d="M346.73,795.08a4.36,4.36,0,0,1,1.79.34,2.92,2.92,0,0,1,1.17.88,4.07,4.07,0,0,1,.6,1.09,3.63,3.63,0,0,1,.18,1.11c0,.26,0,.42-.13.48a1.16,1.16,0,0,1-.51.08h-5.54c-.12,0-.17,0-.17.1a3.52,3.52,0,0,0,.83,2.27,2.92,2.92,0,0,0,2.42,1,4.18,4.18,0,0,0,.88-.08,4.71,4.71,0,0,0,.72-.18,3.39,3.39,0,0,0,.5-.22l.36-.2.16-.1c.09,0,.13.09.13.26a.63.63,0,0,1-.13.35,4.06,4.06,0,0,1-1.3,1,3.94,3.94,0,0,1-1.87.44,4.39,4.39,0,0,1-3.13-1.22,3.88,3.88,0,0,1-1.31-3,4.29,4.29,0,0,1,1.24-3.24A4.34,4.34,0,0,1,346.73,795.08Zm-.22.72a2,2,0,0,0-1.75.87,2.76,2.76,0,0,0-.6,1.44c0,.09,0,.13.13.13h4.29c.07,0,.11-.06.11-.19a2.58,2.58,0,0,0-.59-1.44A1.88,1.88,0,0,0,346.51,795.8Z"/><path class="cls-8" d="M356.76,795a3.86,3.86,0,0,1,1.65.33c.11,0,.16-.11.16-.35v-2.11a6.22,6.22,0,0,0-.13-1.25c-.08-.21-.45-.31-1.13-.31h-.2c-.08,0-.13-.07-.13-.21s0-.32.13-.32c.45,0,.85-.09,1.23-.15a8.05,8.05,0,0,0,.88-.2c.21-.06.39-.13.53-.18l.33-.15.09-.06h.05a.26.26,0,0,1,.17.11.45.45,0,0,1,.11.2,4.91,4.91,0,0,0-.24,1.7v8.79a6.56,6.56,0,0,0,.13,1.49.37.37,0,0,0,.24.21,1.53,1.53,0,0,0,.41.1l.41,0,.2,0s.06.09.06.23,0,.29-.13.29-.47,0-.74.08l-.77.13-.67.14-.5.12-.2,0c-.09,0-.13-.11-.13-.33v-.23c0-.08,0-.11-.09-.08a5.34,5.34,0,0,1-2.33.6,4.29,4.29,0,0,1-3.06-1.15,3.65,3.65,0,0,1-1.23-2.75,4.46,4.46,0,0,1,1.5-3.33A4.81,4.81,0,0,1,356.76,795Zm-.28.82a2.32,2.32,0,0,0-2,1,3.89,3.89,0,0,0-.73,2.36,3.77,3.77,0,0,0,.86,2.47,2.89,2.89,0,0,0,2.37,1.05,1.91,1.91,0,0,0,1.17-.31,1,1,0,0,0,.42-.81V797a1,1,0,0,0-.5-.77A2.75,2.75,0,0,0,356.48,795.82Z"/><path class="cls-8" d="M363.64,803.53a1.05,1.05,0,0,1-.39-.81,1,1,0,0,1,.39-.79,1.34,1.34,0,0,1,.91-.33,1.27,1.27,0,0,1,.89.33,1,1,0,0,1,.36.79,1.09,1.09,0,0,1-.36.81,1.28,1.28,0,0,1-.89.34A1.35,1.35,0,0,1,363.64,803.53Z"/><path class="cls-8" d="M164.23,814.7l4.4,10.32c.26.61.47,1.08.64,1.4a1,1,0,0,0,.68.48,2.69,2.69,0,0,0,.81.19c.06,0,.09.12.09.37a.81.81,0,0,1,0,.19l-2.42-.09-2.56.09a.43.43,0,0,1-.07-.32c0-.16,0-.24.1-.24a2.71,2.71,0,0,0,.66-.1c.26-.07.41-.15.46-.25a1.17,1.17,0,0,0,0-.32,2.29,2.29,0,0,0-.08-.59,4.07,4.07,0,0,0-.14-.54l-.09-.21-.9-2.21a.19.19,0,0,0-.13-.08c-.57,0-1.13-.06-1.67-.06-.76,0-1.7,0-2.79.1l-.11.06-1,2.15a4.74,4.74,0,0,0-.38,1.34.44.44,0,0,0,.18.4,1.87,1.87,0,0,0,.64.22,3.62,3.62,0,0,0,.64.09s.07.08.07.23a.72.72,0,0,1,0,.33l-2.26-.09c-.3,0-.55,0-.77,0l-.74,0-.78,0a.37.37,0,0,1-.09-.29q0-.27.09-.27a2.92,2.92,0,0,0,.68-.1,1.16,1.16,0,0,0,.57-.27,7.79,7.79,0,0,0,1-1.84l3.82-8.73c0-.07.07-.17.12-.31s.1-.25.12-.32a2.41,2.41,0,0,1,.14-.28,1.12,1.12,0,0,1,.15-.24l.17-.18a.45.45,0,0,1,.22-.13.77.77,0,0,1,.27,0Zm-2.55,7.06,1.56,0c.64,0,1.31,0,2,0l.07-.1-1.79-4.32-1.89,4.36C161.63,821.73,161.65,821.76,161.68,821.76Z"/><path class="cls-8" d="M178.33,819a2.34,2.34,0,0,1,2.15,1,6.13,6.13,0,0,1,.62,3.16V825a6.51,6.51,0,0,0,.18,1.74c0,.09.22.18.57.26a3.4,3.4,0,0,0,.75.13s.07.08.08.23a.63.63,0,0,1,0,.33l-2.35-.09-2.31.09a.42.42,0,0,1-.09-.32q0-.24.09-.24a2.93,2.93,0,0,0,.74-.13c.31-.08.48-.17.51-.26a5,5,0,0,0,.16-1.37v-2a4.19,4.19,0,0,0-.53-2.48,2.05,2.05,0,0,0-1.72-.67,2.34,2.34,0,0,0-1.35.46c-.43.31-.65.58-.65.83V825a6.51,6.51,0,0,0,.18,1.74c0,.09.22.18.57.26a3.4,3.4,0,0,0,.75.13s.07.08.08.23a.63.63,0,0,1,0,.33l-2.35-.09-2.4.09a.42.42,0,0,1-.09-.32q0-.24.09-.24a3.26,3.26,0,0,0,.78-.13c.35-.08.53-.17.56-.26a5,5,0,0,0,.16-1.37v-3.69a1.47,1.47,0,0,0-.31-1.06,1.24,1.24,0,0,0-.54-.32,2,2,0,0,0-.53-.09c-.14,0-.21,0-.21,0,0-.31.05-.47.14-.48a29.2,29.2,0,0,0,3-.51l.11,0c.06,0,.1,0,.11.16a.51.51,0,0,1,0,.25,5.39,5.39,0,0,0-.09.78c0,.05,0,.08,0,.08l.06,0a5.78,5.78,0,0,1,1.38-.89A3.81,3.81,0,0,1,178.33,819Z"/><path class="cls-8" d="M185.7,819.22l.69,0,.73,0,.71,0a.81.81,0,0,1,0,.29c0,.18,0,.28-.08.28a2.11,2.11,0,0,0-.59.13c-.27.09-.42.18-.45.28v0a42.73,42.73,0,0,0,2.36,5.1l1.67-4.28a2,2,0,0,0,.15-.6.53.53,0,0,0-.34-.48,2,2,0,0,0-.91-.18c-.06,0-.09-.09-.09-.26a.41.41,0,0,1,.09-.31l.86.06c.38,0,.74,0,1.1,0s.67,0,1.05,0l.86-.06a.81.81,0,0,1,0,.29c0,.18,0,.28-.08.28a2.39,2.39,0,0,0-.79.17,1,1,0,0,0-.64.57l-3.94,9.43a4,4,0,0,1-1.15,1.69,2,2,0,0,1-1.16.48.87.87,0,0,1-.68-.25.77.77,0,0,1-.22-.51.7.7,0,0,1,.3-.63,2.34,2.34,0,0,0,2.42-1.68c.08-.19.17-.43.27-.7l.24-.66L185,820.76a2.72,2.72,0,0,0-.45-.66,1.52,1.52,0,0,0-.6-.3,2.36,2.36,0,0,0-.65-.11c-.06,0-.09-.09-.09-.26a.41.41,0,0,1,.09-.31Z"/><path class="cls-8" d="M198.76,819.06a4.87,4.87,0,0,1,3.39,1.27,4,4,0,0,1,1.41,3,4,4,0,0,1-1.38,3.07,4.72,4.72,0,0,1-3.37,1.28,4.85,4.85,0,0,1-3.41-1.28,4.1,4.1,0,0,1-.05-6.14A4.88,4.88,0,0,1,198.76,819.06Zm-.24.76a2.3,2.3,0,0,0-1.9.95,3.65,3.65,0,0,0-.74,2.31,4.17,4.17,0,0,0,.94,2.75A2.76,2.76,0,0,0,199,827a2.3,2.3,0,0,0,1.92-1,3.72,3.72,0,0,0,.75-2.34,4,4,0,0,0-.95-2.7A2.81,2.81,0,0,0,198.52,819.82Z"/><path class="cls-8" d="M211.48,819a2.35,2.35,0,0,1,2.15,1,6.13,6.13,0,0,1,.62,3.16V825a7,7,0,0,0,.17,1.74c0,.09.22.18.58.26a3.43,3.43,0,0,0,.74.13s.08.08.09.23a.63.63,0,0,1,0,.33l-2.35-.09-2.31.09a.42.42,0,0,1-.09-.32q0-.24.09-.24a2.8,2.8,0,0,0,.73-.13c.32-.08.49-.17.52-.26a5.42,5.42,0,0,0,.16-1.37v-2a4.19,4.19,0,0,0-.53-2.48,2.05,2.05,0,0,0-1.72-.67,2.34,2.34,0,0,0-1.35.46c-.43.31-.65.58-.65.83V825a6.51,6.51,0,0,0,.18,1.74c0,.09.22.18.57.26a3.4,3.4,0,0,0,.75.13s.07.08.08.23a.63.63,0,0,1,0,.33l-2.35-.09-2.4.09a.42.42,0,0,1-.09-.32q0-.24.09-.24a3.26,3.26,0,0,0,.78-.13c.35-.08.53-.17.56-.26a5.42,5.42,0,0,0,.16-1.37v-3.69a1.47,1.47,0,0,0-.31-1.06,1.24,1.24,0,0,0-.54-.32,2,2,0,0,0-.53-.09c-.14,0-.21,0-.21,0,0-.31.05-.47.13-.48a29.05,29.05,0,0,0,3-.51l.11,0c.06,0,.09,0,.11.16a1,1,0,0,1,0,.25,5.39,5.39,0,0,0-.09.78c0,.05,0,.08,0,.08l.06,0a5.78,5.78,0,0,1,1.38-.89A3.81,3.81,0,0,1,211.48,819Z"/><path class="cls-8" d="M221.51,819.08a4.32,4.32,0,0,1,1.78.34,3,3,0,0,1,1.18.88,3.77,3.77,0,0,1,.59,1.09,3.65,3.65,0,0,1,.19,1.11c0,.26-.05.42-.14.48a1.07,1.07,0,0,1-.5.08h-5.54c-.12,0-.18,0-.18.1a3.53,3.53,0,0,0,.84,2.27,2.91,2.91,0,0,0,2.42,1,4.08,4.08,0,0,0,.87-.08,4.71,4.71,0,0,0,.72-.18,3.11,3.11,0,0,0,.51-.22l.36-.2.15-.1c.09,0,.14.09.14.26a.66.66,0,0,1-.14.35,3.9,3.9,0,0,1-1.29,1,4,4,0,0,1-1.87.44,4.41,4.41,0,0,1-3.14-1.22,3.91,3.91,0,0,1-1.31-3,4.18,4.18,0,0,1,4.36-4.43Zm-.22.72a2,2,0,0,0-1.75.87,2.79,2.79,0,0,0-.61,1.44c0,.09,0,.13.14.13h4.29c.07,0,.11-.06.11-.19a2.53,2.53,0,0,0-.6-1.44A1.85,1.85,0,0,0,221.29,819.8Z"/><path class="cls-8" d="M235.91,819.08a4.45,4.45,0,0,1,3.35,1c0,.87-.27,1.3-.82,1.3a.92.92,0,0,1-.57-.14,3.07,3.07,0,0,1-.5-.54,2,2,0,0,0-1.63-.9,2.27,2.27,0,0,0-1.64.76,3.16,3.16,0,0,0-.74,2.27,3.91,3.91,0,0,0,.87,2.6,3,3,0,0,0,2.41,1,4.18,4.18,0,0,0,.88-.08,4.29,4.29,0,0,0,.71-.18,3.11,3.11,0,0,0,.51-.22l.36-.2.16-.1c.09,0,.13.09.13.26a.63.63,0,0,1-.13.35,4.06,4.06,0,0,1-1.3,1,3.94,3.94,0,0,1-1.87.44,4.39,4.39,0,0,1-3.13-1.22,3.88,3.88,0,0,1-1.31-3,4.68,4.68,0,0,1,1.1-3.11A3.88,3.88,0,0,1,235.91,819.08Z"/><path class="cls-8" d="M244.89,819.08a2.4,2.4,0,0,1,1.74.52,2.26,2.26,0,0,1,.53,1.67v4.51a1,1,0,0,0,.24.68.81.81,0,0,0,.66.28,1.58,1.58,0,0,0,.77-.28c.06,0,.09,0,.09.16a.73.73,0,0,1-.11.41,2.74,2.74,0,0,1-1.54.68,1.51,1.51,0,0,1-1-.37,2.14,2.14,0,0,1-.64-.78.73.73,0,0,0-.17.13,4,4,0,0,1-.38.29c-.16.11-.35.22-.56.34a3.26,3.26,0,0,1-.75.3,3.58,3.58,0,0,1-.87.11,2.77,2.77,0,0,1-1.67-.48,1.65,1.65,0,0,1-.66-1.43,1.47,1.47,0,0,1,.24-.81,2.31,2.31,0,0,1,.57-.63,5.22,5.22,0,0,1,.91-.5c.38-.16.7-.29,1-.38l1.06-.32.93-.29a.27.27,0,0,0,.19-.29v-1.47a1.14,1.14,0,0,0-.44-1,1.69,1.69,0,0,0-1-.34,1.6,1.6,0,0,0-1.1.4,1.34,1.34,0,0,0-.44,1c0,.45-.3.68-.9.68a.94.94,0,0,1-.86-.37c0-.56.46-1.12,1.38-1.67A5.5,5.5,0,0,1,244.89,819.08Zm-2.07,7.26a1.62,1.62,0,0,0,1,.28,2.23,2.23,0,0,0,1.14-.32c.37-.22.55-.44.55-.66v-2c-.11,0-.4.14-.85.27s-.81.25-1.07.35a2.22,2.22,0,0,0-.75.48,1.08,1.08,0,0,0-.36.8A1,1,0,0,0,242.82,826.34Z"/><path class="cls-8" d="M256.13,819a2.34,2.34,0,0,1,2.15,1,6.13,6.13,0,0,1,.62,3.16V825a6.51,6.51,0,0,0,.18,1.74c0,.09.22.18.57.26a3.4,3.4,0,0,0,.75.13s.07.08.08.23a.63.63,0,0,1,0,.33l-2.35-.09-2.31.09a.42.42,0,0,1-.09-.32q0-.24.09-.24a2.87,2.87,0,0,0,.74-.13c.31-.08.48-.17.51-.26a5,5,0,0,0,.16-1.37v-2a4.19,4.19,0,0,0-.53-2.48,2,2,0,0,0-1.72-.67,2.34,2.34,0,0,0-1.35.46c-.43.31-.65.58-.65.83V825a6.51,6.51,0,0,0,.18,1.74c0,.09.22.18.57.26a3.4,3.4,0,0,0,.75.13s.07.08.09.23a.72.72,0,0,1,0,.33l-2.35-.09-2.4.09a.42.42,0,0,1-.09-.32q0-.24.09-.24a3.26,3.26,0,0,0,.78-.13c.35-.08.53-.17.56-.26a5,5,0,0,0,.16-1.37v-3.69a1.43,1.43,0,0,0-.31-1.06,1.24,1.24,0,0,0-.54-.32,2,2,0,0,0-.53-.09c-.14,0-.21,0-.21,0,0-.31,0-.47.14-.48a29.2,29.2,0,0,0,3-.51l.11,0c.06,0,.1,0,.11.16a.51.51,0,0,1,0,.25,5.39,5.39,0,0,0-.09.78c0,.05,0,.08.05.08l.06,0a5.78,5.78,0,0,1,1.38-.89A3.81,3.81,0,0,1,256.13,819Z"/><path class="cls-8" d="M271.11,819.08a4.43,4.43,0,0,1,3.34,1c0,.87-.27,1.3-.81,1.3a.92.92,0,0,1-.57-.14,3.46,3.46,0,0,1-.51-.54,2,2,0,0,0-1.63-.9,2.29,2.29,0,0,0-1.64.76,3.16,3.16,0,0,0-.73,2.27,3.91,3.91,0,0,0,.87,2.6,3,3,0,0,0,2.4,1,4.12,4.12,0,0,0,.88-.08,4.71,4.71,0,0,0,.72-.18,3.11,3.11,0,0,0,.51-.22l.36-.2.15-.1c.09,0,.13.09.13.26a.63.63,0,0,1-.13.35,3.85,3.85,0,0,1-1.3,1,3.94,3.94,0,0,1-1.87.44,4.4,4.4,0,0,1-3.13-1.22,3.91,3.91,0,0,1-1.31-3,4.73,4.73,0,0,1,1.1-3.11A3.89,3.89,0,0,1,271.11,819.08Z"/><path class="cls-8" d="M280.52,819.06a4.87,4.87,0,0,1,3.39,1.27,4,4,0,0,1,1.41,3,4,4,0,0,1-1.38,3.07,4.72,4.72,0,0,1-3.37,1.28,4.85,4.85,0,0,1-3.41-1.28,4.1,4.1,0,0,1-.05-6.14A4.88,4.88,0,0,1,280.52,819.06Zm-.24.76a2.3,2.3,0,0,0-1.9.95,3.65,3.65,0,0,0-.74,2.31,4.17,4.17,0,0,0,.94,2.75,2.76,2.76,0,0,0,2.19,1.14,2.29,2.29,0,0,0,1.91-1,3.72,3.72,0,0,0,.75-2.34,4,4,0,0,0-.95-2.7A2.81,2.81,0,0,0,280.28,819.82Z"/><path class="cls-8" d="M293.24,819a2.35,2.35,0,0,1,2.15,1,6.13,6.13,0,0,1,.62,3.16V825a6.51,6.51,0,0,0,.18,1.74c0,.09.21.18.57.26a3.4,3.4,0,0,0,.75.13s.07.08.08.23a.63.63,0,0,1,0,.33l-2.35-.09-2.31.09a.42.42,0,0,1-.09-.32q0-.24.09-.24a2.93,2.93,0,0,0,.74-.13c.31-.08.48-.17.51-.26a5.42,5.42,0,0,0,.16-1.37v-2a4.19,4.19,0,0,0-.53-2.48,2.05,2.05,0,0,0-1.72-.67,2.34,2.34,0,0,0-1.35.46c-.43.31-.65.58-.65.83V825a6.51,6.51,0,0,0,.18,1.74c0,.09.22.18.57.26a3.4,3.4,0,0,0,.75.13s.07.08.08.23a.63.63,0,0,1,0,.33l-2.35-.09-2.4.09a.42.42,0,0,1-.09-.32q0-.24.09-.24a3.26,3.26,0,0,0,.78-.13c.35-.08.53-.17.56-.26a5.42,5.42,0,0,0,.16-1.37v-3.69a1.47,1.47,0,0,0-.31-1.06,1.24,1.24,0,0,0-.54-.32,2,2,0,0,0-.53-.09c-.14,0-.21,0-.21,0,0-.31,0-.47.13-.48a29.05,29.05,0,0,0,3-.51l.11,0c.06,0,.1,0,.11.16a1,1,0,0,1,0,.25,5.39,5.39,0,0,0-.09.78c0,.05,0,.08.05.08l.06,0a5.78,5.78,0,0,1,1.38-.89A3.81,3.81,0,0,1,293.24,819Z"/><path class="cls-8" d="M304.63,814a2.38,2.38,0,0,1,2.09.76c0,.82-.26,1.23-.79,1.23a.75.75,0,0,1-.55-.3,7,7,0,0,0-.61-.61,1.16,1.16,0,0,0-.82-.32,1.65,1.65,0,0,0-1.5,1.06,5.49,5.49,0,0,0-.52,2.48v1c0,.07,0,.1.11.1h2.44c.07,0,.11.05.11.14a1.65,1.65,0,0,1-.27.78h-2.26c-.09,0-.13,0-.13.12V825a6.55,6.55,0,0,0,.19,1.74c0,.09.21.18.54.26a3,3,0,0,0,.7.13s.07.08.08.23a.63.63,0,0,1,0,.33l-2.35-.09-2.31.09s-.05-.08-.07-.18a1.22,1.22,0,0,1,0-.27c0-.07,0-.11.07-.11a3,3,0,0,0,.75-.13c.32-.08.5-.17.52-.26a6.18,6.18,0,0,0,.22-1.74v-4.49c0-.09,0-.14-.1-.14H299s-.07,0-.07-.12.12-.28.36-.49a1.13,1.13,0,0,1,.74-.31h.14c.07,0,.1,0,.1-.12V819a5,5,0,0,1,1.38-3.53A4.07,4.07,0,0,1,304.63,814Z"/><path class="cls-8" d="M308.7,825a6.51,6.51,0,0,0,.18,1.74c0,.09.22.18.57.26a3.4,3.4,0,0,0,.75.13s.07.08.09.23a.72.72,0,0,1,0,.33l-2.35-.09-2.4.09a.42.42,0,0,1-.09-.32q0-.24.09-.24a3.26,3.26,0,0,0,.78-.13c.35-.08.53-.17.56-.26a5,5,0,0,0,.16-1.37v-3.69a1.47,1.47,0,0,0-.31-1.06,1.24,1.24,0,0,0-.54-.32,2,2,0,0,0-.53-.09c-.14,0-.21,0-.21,0,0-.31.05-.47.14-.48a29.2,29.2,0,0,0,3-.51l.05,0h.06c.06,0,.1,0,.11.16a.51.51,0,0,1,0,.25,10.73,10.73,0,0,0-.11,1.41Zm-1.79-8.25a.91.91,0,0,1,0-1.39,1.23,1.23,0,0,1,1.56,0,.91.91,0,0,1,0,1.39,1.23,1.23,0,0,1-1.56,0Z"/><path class="cls-8" d="M317.08,819.06a2,2,0,0,1,1.72.57,1.64,1.64,0,0,1-.24,1,.75.75,0,0,1-.6.32,1,1,0,0,1-.72-.34,1.22,1.22,0,0,0-.91-.33,1.52,1.52,0,0,0-1.18.57,1.76,1.76,0,0,0-.51,1.19V825a6.51,6.51,0,0,0,.18,1.74c0,.09.22.18.58.26a3.55,3.55,0,0,0,.76.13s.07.08.09.23a.72.72,0,0,1,0,.33l-2.37-.09-2.4.09a.42.42,0,0,1-.09-.32q0-.24.09-.24a3.26,3.26,0,0,0,.78-.13c.35-.08.53-.17.56-.26a5,5,0,0,0,.16-1.37v-3.69a1.47,1.47,0,0,0-.31-1.06,1.24,1.24,0,0,0-.54-.32,2,2,0,0,0-.53-.09c-.14,0-.21,0-.21,0,0-.31.05-.47.13-.48a29.05,29.05,0,0,0,3-.51l.11,0c.06,0,.1,0,.11.16a.51.51,0,0,1,0,.25l-.13,1a4.06,4.06,0,0,1,1.09-1A2.44,2.44,0,0,1,317.08,819.06Z"/><path class="cls-8" d="M326,819a2.46,2.46,0,0,1,1.47.42,2.21,2.21,0,0,1,.8,1,5.24,5.24,0,0,1,3.41-1.39q2.78,0,2.77,3.75V825a6.51,6.51,0,0,0,.18,1.74c0,.09.22.18.57.26a3.4,3.4,0,0,0,.75.13s.07.08.08.23a.63.63,0,0,1,0,.33l-2.35-.09-2.4.09a.42.42,0,0,1-.09-.32q0-.24.09-.24a3.26,3.26,0,0,0,.78-.13c.35-.08.53-.17.56-.26a4.5,4.5,0,0,0,.16-1.25v-2.21c0-2-.74-3-2.22-3a2.35,2.35,0,0,0-1.41.42c-.4.28-.6.51-.6.7l0,.07v.1a9.9,9.9,0,0,1,.08,1.41v2.2a5.69,5.69,0,0,0,.18,1.57c0,.09.22.18.57.26a3.4,3.4,0,0,0,.75.13s.07.08.09.23a.76.76,0,0,1,0,.33l-2.36-.09-2.4.09a.48.48,0,0,1-.08-.32c0-.16,0-.24.08-.24a3.4,3.4,0,0,0,.79-.13c.34-.08.53-.17.56-.26a5.46,5.46,0,0,0,.15-1.37v-2c0-2.07-.7-3.11-2.11-3.11a2.42,2.42,0,0,0-1.33.44c-.45.29-.67.58-.67.85V825a7,7,0,0,0,.17,1.74c0,.09.22.18.57.26a3.59,3.59,0,0,0,.75.13c.05,0,.08.08.09.23a.63.63,0,0,1,0,.33l-2.36-.09-2.39.09a.42.42,0,0,1-.09-.32q0-.24.09-.24a3.42,3.42,0,0,0,.78-.13c.34-.08.53-.17.56-.26a5.46,5.46,0,0,0,.15-1.37v-3.69a1.48,1.48,0,0,0-.3-1.06,1.24,1.24,0,0,0-.54-.32,2.08,2.08,0,0,0-.53-.09c-.14,0-.21,0-.21,0,0-.31,0-.47.13-.48a29.05,29.05,0,0,0,3-.51l.11,0c.06,0,.09,0,.11.16a1,1,0,0,1,0,.25,5.39,5.39,0,0,0-.09.78c0,.05,0,.08,0,.08s0,0,.07,0a5.7,5.7,0,0,1,1.37-.89A3.84,3.84,0,0,1,326,819Z"/><path class="cls-8" d="M163.28,843a2.35,2.35,0,0,1,2.16,1,6.15,6.15,0,0,1,.61,3.16V849a6.51,6.51,0,0,0,.18,1.74c0,.09.22.18.57.26a3.4,3.4,0,0,0,.75.13s.07.08.09.23a.76.76,0,0,1,0,.33l-2.36-.09-2.31.09a.42.42,0,0,1-.09-.32q0-.24.09-.24a2.87,2.87,0,0,0,.74-.13c.31-.08.49-.17.52-.26a5.46,5.46,0,0,0,.15-1.37v-2a4.19,4.19,0,0,0-.53-2.48,2,2,0,0,0-1.71-.67,2.39,2.39,0,0,0-1.36.46c-.43.31-.65.58-.65.83V849a6.51,6.51,0,0,0,.18,1.74c0,.09.22.18.57.26a3.49,3.49,0,0,0,.75.13s.07.08.09.23a.76.76,0,0,1,0,.33l-2.36-.09-2.39.09a.42.42,0,0,1-.09-.32q0-.24.09-.24a3.42,3.42,0,0,0,.78-.13c.34-.08.53-.17.56-.26a5.46,5.46,0,0,0,.15-1.37v-3.69a1.43,1.43,0,0,0-.31-1.06,1.13,1.13,0,0,0-.54-.32,2,2,0,0,0-.52-.09c-.14,0-.21,0-.21,0,0-.31,0-.47.13-.48a29.58,29.58,0,0,0,3-.51l.1,0c.06,0,.1,0,.12.16a1,1,0,0,1,0,.25,5.39,5.39,0,0,0-.09.78c0,.05,0,.08,0,.08s0,0,.07,0a5.5,5.5,0,0,1,1.37-.89A3.81,3.81,0,0,1,163.28,843Z"/><path class="cls-8" d="M173.31,843.08a4.36,4.36,0,0,1,1.79.34,2.92,2.92,0,0,1,1.17.88,4.07,4.07,0,0,1,.6,1.09,3.63,3.63,0,0,1,.18,1.11c0,.26,0,.42-.13.48a1.16,1.16,0,0,1-.51.08h-5.54c-.12,0-.17,0-.17.1a3.52,3.52,0,0,0,.83,2.27,2.94,2.94,0,0,0,2.42,1,4.18,4.18,0,0,0,.88-.08,4.71,4.71,0,0,0,.72-.18,3.39,3.39,0,0,0,.5-.22l.36-.2.16-.1c.09,0,.13.09.13.26a.63.63,0,0,1-.13.35,4.06,4.06,0,0,1-1.3,1,3.94,3.94,0,0,1-1.87.44,4.39,4.39,0,0,1-3.13-1.22,3.88,3.88,0,0,1-1.31-3,4.29,4.29,0,0,1,1.24-3.24A4.34,4.34,0,0,1,173.31,843.08Zm-.22.72a2,2,0,0,0-1.75.87,2.76,2.76,0,0,0-.6,1.44c0,.09,0,.13.13.13h4.29c.07,0,.11-.06.11-.19a2.58,2.58,0,0,0-.59-1.44A1.88,1.88,0,0,0,173.09,843.8Z"/><path class="cls-8" d="M191.31,844.37c0-.46-.49-.68-1.46-.68h-.08c-.06,0-.09-.09-.09-.25a.42.42,0,0,1,.09-.32l.73,0,.75,0,.74,0,.65,0,.62,0,.69,0a.81.81,0,0,1,0,.29c0,.18,0,.28-.11.28a2.5,2.5,0,0,0-.77.16,1,1,0,0,0-.64.54l-2.88,7a.62.62,0,0,1-.62.43c-.14,0-.23,0-.26-.08L186,846l-2.22,5.39a.42.42,0,0,1-.09.15.72.72,0,0,1-.2.18.51.51,0,0,1-.3.1c-.15,0-.24,0-.26-.08-.36-.7-.76-1.54-1.2-2.53s-.87-1.87-1.27-2.65a27.9,27.9,0,0,0-1.38-2.43,1.34,1.34,0,0,0-1.19-.43c-.06,0-.09-.09-.09-.26a.41.41,0,0,1,.09-.31l.72,0,.73,0,.73,0,2.2-.1a.81.81,0,0,1,0,.32c0,.16,0,.25-.08.25-.73,0-1.1.14-1.1.44a3,3,0,0,0,.28.59l.95,1.83c.46.86.92,1.76,1.39,2.7l.83-2.11c.31-.77.53-1.31.65-1.64a2.76,2.76,0,0,0,.19-.56.84.84,0,0,0-.1-.32,1.88,1.88,0,0,0-.21-.37l-.11-.17a.93.93,0,0,0-.42-.3,2,2,0,0,0-.7-.09c-.06,0-.09-.09-.09-.25a.42.42,0,0,1,.09-.32l.72,0,.7,0,.71,0,.7,0,.73,0,.73,0a1,1,0,0,1,0,.33q0,.21-.06.24c-.71,0-1.06.25-1.06.76a32.67,32.67,0,0,0,2.42,4.8c.22-.6.5-1.32.84-2.17s.58-1.47.73-1.88A3,3,0,0,0,191.31,844.37Z"/><path class="cls-8" d="M203,843.06a9.09,9.09,0,0,1,1.22.11l1,.14a10,10,0,0,1,.26,2c0,.06-.09.09-.28.09s-.32,0-.33-.13a2,2,0,0,0-.63-1,1.69,1.69,0,0,0-1.18-.49c-1,0-1.58.39-1.58,1.16a1.36,1.36,0,0,0,.09.51,1,1,0,0,0,.34.43l.38.3c.09.06.29.16.59.31l.56.28.51.27.61.32a4.81,4.81,0,0,1,.52.33,2.86,2.86,0,0,1,.49.42,2.74,2.74,0,0,1,.3.47,1.34,1.34,0,0,1,.14.58,2.36,2.36,0,0,1-1,1.92,3.83,3.83,0,0,1-2.38.77,7.16,7.16,0,0,1-.84,0c-.26,0-.56-.09-.92-.16s-.62-.13-.81-.16a4.81,4.81,0,0,1-.25-1,6.2,6.2,0,0,1-.12-1.05.52.52,0,0,1,.26-.12c.22,0,.34,0,.35.12a2.17,2.17,0,0,0,.83,1.14,2.35,2.35,0,0,0,1.5.56,1.92,1.92,0,0,0,1.16-.34,1.17,1.17,0,0,0,.45-1,1.44,1.44,0,0,0-.14-.62,1.53,1.53,0,0,0-.46-.5c-.22-.15-.42-.28-.6-.38l-.78-.38c-.34-.15-.59-.28-.75-.37-1.14-.58-1.71-1.28-1.71-2.09a2,2,0,0,1,.95-1.72A3.86,3.86,0,0,1,203,843.06Z"/><path class="cls-8" d="M208.44,844.29h-1.27c-.08,0-.11-.14-.11-.41,0-.08,0-.12,0-.14a4.23,4.23,0,0,0,1.38-1,5.92,5.92,0,0,0,.48-.58l.38-.55.16-.26c.43,0,.65,0,.65.1v1.93h3a.16.16,0,0,1,.18.18,1.49,1.49,0,0,1-.22.74h-2.93v4.79a1.71,1.71,0,0,0,.46,1.25,1.55,1.55,0,0,0,1.17.46,2.91,2.91,0,0,0,1.37-.37s.11,0,.19.17.13.21.11.22a3.87,3.87,0,0,1-2.42.92,2.67,2.67,0,0,1-1.83-.64,2.32,2.32,0,0,1-.74-1.84Z"/><path class="cls-8" d="M218.74,843.08a2.39,2.39,0,0,1,1.73.52,2.22,2.22,0,0,1,.53,1.67v4.51a1,1,0,0,0,.24.68.81.81,0,0,0,.66.28,1.55,1.55,0,0,0,.77-.28c.06,0,.09,0,.09.16a.73.73,0,0,1-.11.41,2.69,2.69,0,0,1-1.54.68,1.51,1.51,0,0,1-1-.37,2.11,2.11,0,0,1-.63-.78s-.07,0-.17.13-.22.18-.38.29l-.56.34a3.67,3.67,0,0,1-.75.3,3.7,3.7,0,0,1-.87.11,2.75,2.75,0,0,1-1.67-.48,1.65,1.65,0,0,1-.66-1.43,1.47,1.47,0,0,1,.24-.81,2.31,2.31,0,0,1,.57-.63,5.08,5.08,0,0,1,.9-.5c.38-.16.71-.29,1-.38l1.07-.32.92-.29a.28.28,0,0,0,.2-.29v-1.47a1.17,1.17,0,0,0-.44-1,1.72,1.72,0,0,0-1.06-.34,1.62,1.62,0,0,0-1.1.4,1.37,1.37,0,0,0-.44,1c0,.45-.3.68-.9.68a1,1,0,0,1-.86-.37c0-.56.47-1.12,1.39-1.67A5.44,5.44,0,0,1,218.74,843.08Zm-2.07,7.26a1.62,1.62,0,0,0,1,.28,2.29,2.29,0,0,0,1.14-.32c.37-.22.55-.44.55-.66v-2c-.12,0-.4.14-.86.27s-.81.25-1.07.35a2.28,2.28,0,0,0-.74.48,1.06,1.06,0,0,0-.37.8A1,1,0,0,0,216.67,850.34Z"/><path class="cls-8" d="M224.65,844.29h-1.27c-.08,0-.11-.14-.11-.41,0-.08,0-.12,0-.14a4.13,4.13,0,0,0,1.38-1,4.78,4.78,0,0,0,.48-.58l.38-.55a1.64,1.64,0,0,0,.16-.26c.44,0,.66,0,.66.1v1.93h3c.11,0,.17.06.17.18a1.49,1.49,0,0,1-.22.74h-2.92v4.79a1.74,1.74,0,0,0,.45,1.25,1.55,1.55,0,0,0,1.17.46,2.91,2.91,0,0,0,1.37-.37s.11,0,.2.17.12.21.11.22a3.53,3.53,0,0,1-1,.62,3.42,3.42,0,0,1-1.4.3,2.68,2.68,0,0,1-1.84-.64,2.32,2.32,0,0,1-.74-1.84Z"/><path class="cls-8" d="M235,843.08a4.32,4.32,0,0,1,1.78.34,3,3,0,0,1,1.18.88,3.77,3.77,0,0,1,.59,1.09,3.37,3.37,0,0,1,.19,1.11c0,.26-.05.42-.13.48a1.16,1.16,0,0,1-.51.08h-5.54c-.12,0-.18,0-.18.1a3.53,3.53,0,0,0,.84,2.27,2.91,2.91,0,0,0,2.42,1,4.18,4.18,0,0,0,.88-.08,4.56,4.56,0,0,0,.71-.18,3.11,3.11,0,0,0,.51-.22l.36-.2.16-.1c.08,0,.13.09.13.26a.72.72,0,0,1-.13.35,4.06,4.06,0,0,1-1.3,1,4,4,0,0,1-1.87.44,4.43,4.43,0,0,1-3.14-1.22,3.91,3.91,0,0,1-1.31-3,4.18,4.18,0,0,1,4.36-4.43Zm-.22.72a2,2,0,0,0-1.75.87,2.76,2.76,0,0,0-.6,1.44c0,.09,0,.13.13.13h4.29c.07,0,.11-.06.11-.19a2.53,2.53,0,0,0-.6-1.44A1.85,1.85,0,0,0,234.75,843.8Z"/><path class="cls-8" d="M240.94,851.53a1,1,0,0,1-.38-.81,1,1,0,0,1,.38-.79,1.36,1.36,0,0,1,.91-.33,1.26,1.26,0,0,1,.89.33,1,1,0,0,1,.37.79,1.06,1.06,0,0,1-.37.81,1.26,1.26,0,0,1-.89.34A1.37,1.37,0,0,1,240.94,851.53Z"/><text class="cls-5" transform="translate(60.58 526) scale(1.13 1)">2</text><text class="cls-6" transform="translate(69.75 526) scale(1.13 1)">2</text><text class="cls-9" transform="translate(156.11 469.73) scale(1.13 1)">Confirmation <tspan x="0" y="24">from 2/3 of</tspan><tspan x="0" y="48">the stake.</tspan></text><polygon class="cls-10" points="89.75 312.15 49.93 332.46 49.93 340.47 89.75 360.84 129.58 340.47 129.58 332.46 89.75 312.15"/><polyline class="cls-11" points="90.04 352.41 50.22 332.04 90.04 311.73 129.87 332.04"/><polygon class="cls-10" points="90.04 360.42 129.87 340.04 129.87 332.04 90.04 352.41 90.04 360.42"/><polygon class="cls-11" points="90.04 361.08 50.22 340.7 50.22 332.04 90.04 352.41 90.04 361.08"/><polygon class="cls-11" points="90.04 360.42 129.87 340.04 129.87 332.04 90.04 352.41 90.04 360.42"/><polygon class="cls-12" points="89.71 360.18 129.54 339.8 129.54 331.79 89.71 352.17 89.71 360.18"/><polygon class="cls-10" points="144.15 282.36 104.32 302.67 104.32 310.68 144.15 331.06 183.97 310.68 183.97 302.67 144.15 282.36"/><polyline class="cls-11" points="144.44 322.62 104.61 302.25 144.44 281.94 184.26 302.25"/><polygon class="cls-10" points="144.44 330.63 184.26 310.25 184.26 302.25 144.44 322.62 144.44 330.63"/><polygon class="cls-11" points="144.44 331.29 104.61 310.92 104.61 302.25 144.44 322.62 144.44 331.29"/><polygon class="cls-11" points="144.44 330.63 184.26 310.25 184.26 302.25 144.44 322.62 144.44 330.63"/><polygon class="cls-13" points="144.1 330.39 183.93 310.01 183.93 302.01 144.1 322.38 144.1 330.39"/><polygon class="cls-10" points="198.43 254.09 158.6 274.4 158.6 282.41 198.43 302.78 238.26 282.41 238.26 274.4 198.43 254.09"/><polyline class="cls-11" points="198.72 294.35 158.89 273.97 198.72 253.66 238.54 273.97"/><polygon class="cls-10" points="198.72 302.36 238.54 281.98 238.54 273.97 198.72 294.35 198.72 302.36"/><polygon class="cls-11" points="198.72 303.02 158.89 282.64 158.89 273.97 198.72 294.35 198.72 303.02"/><polygon class="cls-11" points="198.72 302.36 238.54 281.98 238.54 273.97 198.72 294.35 198.72 302.36"/><polygon class="cls-14" points="198.39 302.12 238.21 281.74 238.21 273.73 198.39 294.11 198.39 302.12"/><line class="cls-15" x1="143.19" y1="240.98" x2="143.19" y2="303.02"/><polygon class="cls-16" points="143.23 222.34 103.41 242.65 103.41 250.65 143.23 271.03 183.06 250.65 183.06 242.65 143.23 222.34"/><polyline class="cls-11" points="143.52 262.6 103.69 242.22 143.52 221.91 183.35 242.22"/><polygon class="cls-10" points="143.52 270.6 183.35 250.23 183.35 242.22 143.52 262.6 143.52 270.6"/><polygon class="cls-11" points="143.52 271.26 103.69 250.89 103.69 242.22 143.52 262.6 143.52 271.26"/><polygon class="cls-11" points="143.52 270.6 183.35 250.23 183.35 242.22 143.52 262.6 143.52 270.6"/><polygon class="cls-17" points="143.19 270.36 183.02 249.99 183.02 241.98 143.19 262.35 143.19 270.36"/><line class="cls-15" x1="112.14" y1="321.99" x2="125.34" y2="315.31"/><line class="cls-15" x1="168.04" y1="293.38" x2="181.24" y2="286.7"/><line class="cls-15" x1="114.17" y1="347.66" x2="372.23" y2="457.97"/><polygon class="cls-8" points="198.72 388.22 211.1 380.23 217.4 391.88 198.72 388.22"/><text class="cls-18" transform="translate(250.63 274.14) scale(1.13 1)">BEFORE</text><polygon class="cls-19" points="258.31 981.2 221.05 1000.2 221.05 1007.7 258.31 1026.76 295.57 1007.7 295.57 1000.2 258.31 981.2"/><polyline class="cls-20" points="258.58 1018.87 221.32 999.81 258.58 980.8 295.84 999.81"/><polygon class="cls-19" points="258.58 1026.36 295.84 1007.3 295.84 999.81 258.58 1018.87 258.58 1026.36"/><polygon class="cls-20" points="258.58 1026.98 221.32 1007.92 221.32 999.81 258.58 1018.87 258.58 1026.98"/><polygon class="cls-20" points="258.58 1026.36 295.84 1007.3 295.84 999.81 258.58 1018.87 258.58 1026.36"/><polygon class="cls-21" points="258.27 1026.13 295.53 1007.07 295.53 999.58 258.27 1018.64 258.27 1026.13"/><polygon class="cls-22" points="293.37 1024.51 260.41 1041.32 260.41 1047.95 293.37 1064.81 326.33 1047.95 326.33 1041.32 293.37 1024.51"/><polyline class="cls-20" points="293.61 1057.83 260.65 1040.97 293.61 1024.16 326.57 1040.97"/><polygon class="cls-22" points="293.61 1064.46 326.57 1047.6 326.57 1040.97 293.61 1057.83 293.61 1064.46"/><polygon class="cls-20" points="293.61 1065 260.65 1048.14 260.65 1040.97 293.61 1057.83 293.61 1065"/><polygon class="cls-20" points="293.61 1064.46 326.57 1047.6 326.57 1040.97 293.61 1057.83 293.61 1064.46"/><polygon class="cls-23" points="293.69 1064.53 326.64 1047.67 326.64 1041.05 293.69 1057.91 293.69 1064.53"/><polygon class="cls-22" points="338.38 999.86 305.42 1016.67 305.42 1023.29 338.38 1040.16 371.34 1023.29 371.34 1016.67 338.38 999.86"/><polyline class="cls-20" points="338.62 1033.18 305.66 1016.32 338.62 999.51 371.58 1016.32"/><polygon class="cls-22" points="338.62 1039.8 371.58 1022.94 371.58 1016.32 338.62 1033.18 338.62 1039.8"/><polygon class="cls-20" points="338.62 1040.35 305.66 1023.49 305.66 1016.32 338.62 1033.18 338.62 1040.35"/><polygon class="cls-20" points="338.62 1039.8 371.58 1022.94 371.58 1016.32 338.62 1033.18 338.62 1039.8"/><polygon class="cls-24" points="338.62 1039.8 371.58 1022.94 371.58 1016.32 338.62 1033.18 338.62 1039.8"/><polygon class="cls-22" points="383.31 976.46 350.35 993.27 350.35 999.9 383.31 1016.76 416.26 999.9 416.26 993.27 383.31 976.46"/><polyline class="cls-20" points="383.54 1009.78 350.58 992.92 383.54 976.11 416.5 992.92"/><polygon class="cls-22" points="383.54 1016.41 416.5 999.54 416.5 992.92 383.54 1009.78 383.54 1016.41"/><polygon class="cls-20" points="383.54 1016.95 350.58 1000.09 350.58 992.92 383.54 1009.78 383.54 1016.95"/><polygon class="cls-20" points="383.54 1016.41 416.5 999.54 416.5 992.92 383.54 1009.78 383.54 1016.41"/><polygon class="cls-25" points="383.27 1016.68 416.23 999.82 416.23 993.19 383.27 1010.05 383.27 1016.68"/><polygon class="cls-19" points="309.2 953.33 271.94 972.33 271.94 979.83 309.2 998.89 346.46 979.83 346.46 972.33 309.2 953.33"/><polyline class="cls-20" points="309.47 991 272.21 971.93 309.47 952.93 346.73 971.93"/><polygon class="cls-19" points="309.47 998.49 346.73 979.43 346.73 971.93 309.47 991 309.47 998.49"/><polygon class="cls-20" points="309.47 999.11 272.21 980.04 272.21 971.93 309.47 991 309.47 999.11"/><polygon class="cls-20" points="309.47 998.49 346.73 979.43 346.73 971.93 309.47 991 309.47 998.49"/><polygon class="cls-26" points="309.16 998.26 346.42 979.2 346.42 971.71 309.16 990.77 309.16 998.26"/><line class="cls-27" x1="382.27" y1="941.13" x2="382.27" y2="994.39"/><polygon class="cls-19" points="359.99 926.88 322.73 945.88 322.73 953.37 359.99 972.43 397.25 953.37 397.25 945.88 359.99 926.88"/><polyline class="cls-20" points="360.26 964.54 323 945.48 360.26 926.48 397.52 945.48"/><polygon class="cls-19" points="360.26 972.04 397.52 952.98 397.52 945.48 360.26 964.54 360.26 972.04"/><polygon class="cls-20" points="360.26 972.65 323 953.59 323 945.48 360.26 964.54 360.26 972.65"/><polygon class="cls-20" points="360.26 972.04 397.52 952.98 397.52 945.48 360.26 964.54 360.26 972.04"/><polygon class="cls-28" points="359.95 971.81 397.21 952.75 397.21 945.26 359.95 964.32 359.95 971.81"/><line class="cls-27" x1="308.31" y1="914.61" x2="308.31" y2="972.66"/><polygon class="cls-29" points="308.35 897.17 271.08 916.17 271.08 923.66 308.35 942.73 345.61 923.66 345.61 916.17 308.35 897.17"/><polyline class="cls-20" points="308.62 934.84 271.35 915.77 308.62 896.77 345.88 915.77"/><polygon class="cls-19" points="308.62 942.33 345.88 923.27 345.88 915.77 308.62 934.84 308.62 942.33"/><polygon class="cls-20" points="308.62 942.95 271.35 923.88 271.35 915.77 308.62 934.84 308.62 942.95"/><polygon class="cls-20" points="308.62 942.33 345.88 923.27 345.88 915.77 308.62 934.84 308.62 942.33"/><polygon class="cls-30" points="308.31 942.1 345.57 923.04 345.57 915.55 308.31 934.61 308.31 942.1"/><line class="cls-27" x1="279.25" y1="990.41" x2="291.61" y2="984.15"/><line class="cls-27" x1="331.55" y1="963.64" x2="343.91" y2="957.39"/><line class="cls-27" x1="312.47" y1="1033.31" x2="322.44" y2="1027.85"/><line class="cls-27" x1="359.08" y1="1009.87" x2="368.25" y2="1004.41"/><text class="cls-31" transform="translate(183.85 953.33) scale(1.13 1)">AFTER </text><line class="cls-27" x1="326.46" y1="838.57" x2="389.52" y2="873.87"/><line class="cls-27" x1="326.33" y1="905.8" x2="389.52" y2="873.87"/><line class="cls-27" x1="272.21" y1="649.61" x2="272.21" y2="525.74"/><ellipse class="cls-10" cx="272.12" cy="728.33" rx="19.03" ry="9.19"/><path class="cls-32" d="M281,712.5c6.06,1.53,10.19,4.6,10.19,8.14,0,5.07-8.52,9.19-19,9.19s-19-4.12-19-9.19c0-3.33,3.66-6.24,9.15-7.86"/><line class="cls-32" x1="229.05" y1="670.38" x2="315.19" y2="626.47"/><line class="cls-32" x1="272.12" y1="648.42" x2="315.19" y2="670.38"/><ellipse class="cls-19" cx="216.13" cy="685.06" rx="19.03" ry="9.19"/><path class="cls-32" d="M224.13,669c6.51,1.46,11,4.65,11,8.34,0,5.08-8.52,9.19-19,9.19s-19-4.11-19-9.19c0-3.39,3.79-6.34,9.44-7.94"/><rect class="cls-8" x="258.6" y="647.36" width="27.59" height="2.07" transform="translate(-264.76 194.44) rotate(-27.01)"/><rect class="cls-8" x="271.22" y="634.37" width="2.07" height="27.91" transform="translate(-429 596.46) rotate(-62.99)"/><line class="cls-33" x1="272.12" y1="699.05" x2="272.12" y2="686.15"/><rect class="cls-10" x="258.48" y="676.82" width="27.59" height="2.07" transform="translate(-278.16 197.6) rotate(-27.01)"/><rect class="cls-10" x="271.1" y="663.83" width="2.07" height="27.91" transform="translate(-455.32 612.44) rotate(-62.99)"/><text class="cls-34" transform="translate(209.08 671.77) scale(1.13 1)">a</text><ellipse class="cls-19" cx="336.02" cy="687.64" rx="19.03" ry="9.19"/><path class="cls-32" d="M345.11,671.87c5.92,1.55,9.94,4.59,9.94,8.07,0,5.08-8.52,9.19-19,9.19s-19-4.11-19-9.19c0-3.38,3.79-6.34,9.44-7.94"/><text class="cls-34" transform="translate(328.93 675.29) scale(1.13 1)">b</text><text class="cls-34" transform="translate(264.6 716.83) scale(1.13 1)">d</text><ellipse class="cls-19" cx="334.54" cy="623.47" rx="19.03" ry="9.19"/><path class="cls-32" d="M342,607.31c6.83,1.4,11.62,4.66,11.62,8.47,0,5.07-8.52,9.19-19,9.19s-19-4.12-19-9.19c0-3.67,4.46-6.84,10.9-8.31"/><text class="cls-34" transform="translate(327.46 610.85) scale(1.13 1)">c</text><line class="cls-27" x1="37.41" y1="659.58" x2="180.51" y2="744.24"/><line class="cls-27" x1="374.75" y1="464.06" x2="37.41" y2="659.58"/><polygon class="cls-8" points="61.9 683.35 78.19 672.83 86.48 688.17 61.9 683.35"/><rect class="cls-8" x="228.49" y="584.67" width="87.26" height="32.94"/><text class="cls-35" transform="translate(239.4 607.57) scale(1.13 1)">SIGNERS</text></svg>